<svg id="Layer_1" xmlns="http://www.w3.org/2000/svg" viewBox="0 0 830 300"><defs><style>.cls-1{fill:#0079bc}</style></defs><path class="cls-1" d="M138.22 92.38c.45.77.45 1.27 1.4 1.66.14-.02.29-.1.47-.23l.18-.15.22-1.09.4.07c.17.02.3.02.46-.07.24-.03.6-.14.69-.4l.31-.4c.32-.42.56-.83.56-1.26-.43.11-.72.49-1.14.69-1.16 0-2 .01-3.09.19-.33.2-.86.61-.46.99M144.15 101.72c-.17.42-.61.87-.65 1.31.21.35.4.69.7.96.94-1.24 1.78-2.8 1.36-4.29-.19-.5-.37-.83-.7-1.14l-.93.38c.25.9.45 1.85.23 2.77M167.16 112v.66c1.26-1.39 2.92-2.27 4.24-3.56.41-.35.86-.59 1.16-1.03-.84.15-1.7.25-2.5.58-1.61.58-2.46 1.73-2.9 3.35"/><path class="cls-1" d="M199.79 114.21c-.24-.61-.46-1.25-.86-1.78-.56-.48-1.12-.95-1.68-1.41l.58-.69-.62-1.2-.68-.94-.88-1.29c-.41-.69-1.04-1.23-1.91-1.78-.65-.36-1.73-.54-2.6-.54h-1.11c-.61 0-1.02-.59-1.28-1.06-.46-.48-.73-1.13-1.02-1.71l.79-.08c.29-.03.56-.09.84-.19 1.59-.34 2.64-.92 3.68-2.17 1.46-1.11 1.58-3.18 1.27-4.75-.25-.84-.65-1.35-1.04-1.68-1.28-1.25-2.99-1.9-4.63-2.57-1.19-.27-1.84-.74-2.48-1.78l-.02-.64c0-.31.12-.58.25-.82l.13-.2c-1.48-.06-2.72.25-3.9 1.21-.16.18-.27.36-.4.58l-.16.29c-.05.09-.11.18-.17.26l-.13.73c-2.82.31-5.22.86-7.98 1.49-2.48.69-4.92 1.5-7.41 2.2-.99.18-2.16.59-3.15.76-2.64.37-5.07.55-7.52-.37-.6-.26-.96-.7-1.23-1.27.01-.41.07-.8.16-1.2 1.25-.31 1.54.09 1.96 1.05l.68.25 1.21-.28c.53-.24.89-.55 1.27-1.01l.33-.42c1.05.1 1.9.06 2.87-.35.69-.25 1.34-.6 1.99-1.01l2-1.28c-3.16-.02-6.07-1.68-9.24-1.5-1.22.01-2.34.35-3.53.77-.91.56-1.91 1.08-2.54 1.96-.8.87-1.23 2.46-1.03 3.64.2 1.35 1.02 2.41 2.07 3.14l1 .54c.3.15.63.29.97.38.56.23 1.15.36 1.76.38 5.8.89 11.97-2.05 17.64-2.98.48-.19.99-.28 1.51-.36l.62.36.53.25c.83-.39 1.45-.58 2.35-.78 2.31.18 5.01.15 7.08 1.3.45.28.78.4 1.27.49l.32-.78c.85-.88 1.44-.76 2.52-.46.32.86.37 1.24-.09 2.07-.78.77-1.76.65-2.75.79-.82-.2-1.62-.53-2.48-.56-2.15-.45-4.35-.91-6.56-.83-3.27.3-6.37.72-9.53 1.78l-.81.19c-5.47 1.84-10.97 3.48-16.77 1.06l-3.2-1.23c.22-1.73.38-3.47-.35-5.12-.9-2.29.73-4.48-.06-6.65-.77-.48-1.62-.39-2.46-.25-1.46-.76-3.07-.88-4.63-1.3-.7-.39-1.4-.75-2.2-.92a3.48 3.48 0 0 0-1.92 0c-1.45.34-2.6.92-4.06 1.18-1.3.82-2.37.67-3.81.67-.23.02-.48.03-.68.17-.49.24-.78.61-.99 1.1-.2 1.14 0 2.38.19 3.5-.01.49-.17.86-.39 1.28l-.29.54c-.46.93-.55 2-.62 3.09-.1 1.55-.22 2.37-.85 3.82-.98-.41-1.54-.68-2.31-1.43l-.6-.62c-.21-.2-.41-.4-.63-.58-1.27-1.25-3.15-2.41-3.17-4.39.22-1.58 1.73-2.83 1.54-4.45-.02-.72-.57-1.36-.98-1.93.3-1.08-.16-1.63-1.01-2.22-.21.18-.12.44-.12.68v.75c-1.15-.08-1.8-.12-2.89-.55-.4-.46-.71-.78-1.32-.96l-.92-.04.87 1.18c-.47.69-.81 1.36-1.13 2.12h-1.69c-.25-.14-.29-.16-.59-.14-.37-.08-.67-.05-1.02.04.49.52.8.92 1.16 1.55l-.31.29c-.35.34-.49.6-.51 1.09-.19.72-.04 1.25.4 1.84.37.71 2.96 1.51 3.74 1.79-1.01.17-2.32.23-3.02 1.1l-.43 1.12c-.32-.08-.64-.16-.94-.29l-.14-.07c.13.63.24 1.02.94 1.27.22.2.43.41.6.65l.35.54c.63.66 1.27.82 2.22.87l1.23-.25c.99-.32 1.82.41 2.23 1.01.35.57.04 1.19-.24 1.7l-.65.35c-.3.14-.44.29-.44.47 0 .23.16.47.26.65.54.9.92 1.46 1.73 2.18.86.88 1.99 1.46 3.08 2.01 1.42 2.81 2.63 3.64 5.47 4.86l-1.79 1.06-1.57.8c-.55.43-1.17.73-1.79.95-.25.2-.52.39-.84.53l-.87.35c-1.12.37-2 .35-3.11 0-.59-.09-1.19-.15-1.75-.36-.63-.18-1.3.01-2 .24l-1.2 1.06-.15.5c-.15.39-.39.76-.77.94-1.06.6-.75 2.42-1.48 3.39-.39.49-.56.64-.62 1.25l.54.2c.43-.32.73-.41 1.25-.5l.81.45c.39.24.65.51.92.86 0 .43.01.75.03 1.06l1.07-.54c.82-.42.89-.66 1.91-.64l1.15.05c.62.01.99-.1 1.48-.42l.46-.3c.47.79.74 1.28.69 2.22.59-.3 1.21-.58 1.73-.99l.56-.69 1.07-.44c.49-.48 1-1.04.75-1.79-.02-.62.1-1.01.4-1.54l.29-.5.59.26c.64.4.85.79.86 1.5l-.23.58c.45.1.71.09 1.1-.04 1.09-.02 1.95-.18 2.97-.56.43-.14.6-.18.77-.18 1.58 0 3.05-.24 4.17-1.34l.55-.78c.28-.47.73-.76 1.2-1.03.64.14 1.11.29 1.69.6l.7.39c.23.12.48.24 1.03.42l.68.16c1.58.09 3.33.14 4.69-.62l1.37-.62c.34-.3.67-.44 1.1-.53l.63-.13c.23-.04.43-.1.64-.19 1.2-.35 2.02-.82 3.08-1.47.43-.23.93-.43 1.39-.59l1.42-.49c.87-.3 1.42-.56 2.1-1.03l-1.47-.82c.39-.95.59-1.41 1.58-1.88 1.28-.61 2.68-1.11 3.98-1.65 1.23-.58 2.34-1.18 3.6-1.67l1.84-1.26c2.85-1.53 4.42-2.02 7.66-2.32-.17.46-.32.94-.56 1.37-.18.31-.42.6-.77.79-1.47.99-4.21 1.14-5.87 1.19l-1.69 1.26c-.46.27-.84.7-1.23 1.08l-1.27 2.14-.19.62c-.12.33-.27.64-.51.93-.41.97-.83 1.41-1.51 1.92.71.21 1.39.42 2.08.67-.25.48-.5.96-.79 1.42-1.27.97-2.71.9-4.18.63l-.83-.25c-.95-.39-1.94-.66-2.97-.33-1.1.2-1.64.84-2.11 1.77-.47.51-.52 1.29-.65 1.94l-.39.14c-.45.18-.79.42-.92.83l-.29.86.61-.1c.53-.23.84-.19 1.35.02l.34.33c-.17.69-.13 1.05.05 1.71l.67-.49c.41-.29.82-.52 1.34-.65.25-.1.5-.15.76-.2l.27 1.43.61.37.7-.51c.3-.23.57-.4.92-.51.43-.05.82-.03 1.24.05l.96.19c.61.11.99.09 1.53-.23.19-.08.36-.17.55-.27l1.16-.3c1.36-.01 2.55-.66 3.26-1.8.29-.96 2.28-2.63 3.09-3.36l.09 2.95 1.07-.71c1.61-1.36 1.99-3.23 4-4.5.66-.92 1.2-1.61 1.41-2.75 1.04-2.62.96-3.12 3.23-5.06.73-.62 1.46-1.23 2.18-1.86.15 1.39.19 2.84.61 4.18 0 .38.02.71.2 1.04.3.93.98 1.66 1.81 2.17l1.05.59.83.3.55.22c.94.4 1.16 1.02 1.35 1.83.38 0 .61-.07 1.06-.24.31-.13.59-.32.85-.53 1.31-.92 2.15-.95 3.55-.15l.18.84-.02.55c-.03.29-.14.55-.25.81-.18.12-.35.22-.55.3-.79.15-1.6.11-2.4.11-.86 0-1.88.17-2.63.57-.67.58-.97 1.06-1.17 1.93l.13 1.01-.33.21c-.37.24-.63.5-.7.95-.1.2-.13.41-.14.63v.22c.42-.23.85-.43 1.31-.62l2.23.25c-.3.71-.52 1.11-.43 1.92.4-.26.82-.51 1.29-.73l.85-.36 1.22-.23c.26.04.5.08.75.08.71 0 1.67-.36 2.36-.58-.3.95-.6 1.37.07 2.28.45-.79.9-1.13 1.75-1.51l3.16-.64c.36-.46.42-.93.45-1.59v-.69c-.24-1.12-.59-2.03-.47-3.22-.09-.41.02-.8.03-1.21l-.26-1.51h1.53l.92.19c.35-.31-.02-.84-.18-1.15m-21.59-21.21c-5.41.96-10.68 2.55-16.05 3.69-1.31.18-2.42.18-3.75.18-1.74 0-3.72-.56-5.03-1.46-.65-.36-1.33-1.1-1.54-1.82-.21-.73-.21-1.46.22-2.37.43-.91 1.32-1.82 2.39-2.37 2.64-1.11 5.7-.74 8.38.01.18.13.82.29.83.3-.36.19-.71.37-1.09.53-.95.59-2.53.74-3.5.74-.05.44-.28.92-.67 1.1l-.65.19c-.14-.36-.23-.77-.41-1.1-.75-.6-1.62-.53-2.45-.19-.97.09-1.58 1-1.58 1.88v.75c.66 1.42 1.6 1.81 3.11 2.24 4.68 1.3 9.43-.42 13.89-1.66 1.63-.58 3.36-1.12 5.07-1.47.89-.36 1.73-.54 2.63-.74.6-.17 1.23-.18 1.84-.2l-.75.88c-.28.32-.55.63-.88.91m-55.65 15.12c-.33-.29-.58-.98-.78-1.39l.52-.13.25-.06c.08-.02.14-.03.21-.03.45-.18.94-.23 1.41-.41-.09-.09-.16-.17-.21-.23l-.09-.13c-.06-.08-.13-.14-.19-.21-.49-.91-1.87-.22-2.67-.19-1.43-.35-2.56-.84-3.5-2.01-.21-.18-.38-.36-.55-.58l-.48-.63c.61-.33.77-.47 1.05-1.13.26-.46.43-.97.44-1.5l-.22-.56c-.18-.3-.28-.63-.45-.93l-1.1-.93c-.56-.24-.98-.37-1.57-.37-.29 0-.67.21-.9.37h-1.08c-.44 0-.66-.06-.93-.45-.01-.09-.02-.18 0-.27l.06-.25c.02-.09.03-.19.03-.28 0-.05-.01-.1-.03-.15l-.1-.21c-.05-.12-.08-.24-.09-.38.22-.44.57-.52 1.02-.52h.28c.36-.3.67-.58.9-1.02v-.23c-.1-.44-.22-.81-.45-1.19-.46-.56-1.08-.75-1.79-.76-.34-.12-.86-.19-1.07-.53-.16-.27-.25-.78-.01-1.05l.09-.16c.17-.28.41-.57.78-.57.34-.27.57-.33.7-.77.32-.14.56-.2.93-.2.32 0 .66.04.99.04.04-.41-.18-.76-.18-1.14 0-.35.18-.65.42-.89.68-.17 1.28-.18 1.96 0 .47.23.63.8.63 1.26l.73-.52c.87.1 1.03.86 1.04 1.57-.25.79-.92 1.3-1.1 2.06-.29.96-.42 1.63-.22 2.61.22.92.67 1.67 1.32 2.39.71.99 1.71 1.81 2.65 2.59 1.24 1.22 2.83 2.03 4.17 3.13-.17 1.85.38 3.75 1.32 5.34.52.86.47 1.88.89 2.76.16.26.26.57.39.86h-1.45c-1.55-.19-2.85-.92-3.93-2m10.45 8.66c-.06.05-.11.12-.17.16-.41.7-.85 1.45-1.74 1.66-.56.22-1.04.3-1.64.28.15-.31.35-.62.38-.98l.68-1.15c-.38 0-.68.08-.97.16-.08.01-.13.02-.2.02-.48.23-.66.7-.91 1.13-.42.71-1.07 1.08-1.76 1.46-.33.26-.64.28-1.03.2-.21-.68-.42-1.46-1.11-1.86-.78-.33-1.56-.25-2.39-.02l-.14.15-.2.15s-.08.04-.11.07c-.09.06-.2.13-.3.23-.95.66-.41 1.7-.55 2.62l-.05.32-.67-.19-.17-.13c-.21-.15-.43-.23-.74-.23-.59.24-.67.44-.94.96-.37-.25-.51-.32-.77-.7v-.23l-.23-.59c-.77.28-1.05.77-1.38 1.47h-.75a.507.507 0 0 1-.37-.28c-.13-.27-.17-.36-.39-.46l-1.35-.03c-.02-.2-.05-.39-.05-.6 0-.4-.02-.55-.13-.84-.71.27-.84.85-1.14 1.47-.43-.01-.64-.06-.88-.43l-.1-.2-.1-.18c-.18-.28-.32-.35-.63-.49.07-.53.17-.92.45-1.39.45-.39.89-.79 1.37-1.13.21-.14.39-.27.39-.56 0-.09-.05-.18-.07-.27l.27-.25c.83-.32 1.84-.23 2.61.18.99.33 1.78.37 2.88.37 1.28-.35 2.53-.86 3.6-1.66.24-.01.41-.03.6-.19 1.12-.57 2.13-1.34 3.3-1.83.84-.69 1.86-1.05 2.85-1.47.07 0 .13-.01.2-.02l.26-.07.4-.1c.2.1.36.21.52.37l.18.19c.06.07.12.13.19.18 1.04.4 1.47 1.96 2.2 2.76.25.12.47.33.66.52l.3.31c.16.16.33.28.51.43-.23.23-.44.47-.65.72m5.03-.73-.4-.17c-.05-.63-.18-1.18 0-1.81v-.6h-1.41c0 .95-.03 1.55-.41 2.4-.77-.27-1.32-.57-1.94-1.1l-.66-.56c-.69-.4-.86-1.3-.87-1.98.27-.7.17-1.18 0-1.88-.1-.09-.17-.18-.25-.28a.972.972 0 0 0-.3-.22l-.16-.08-.65 1.47c-1.14-1.08-1.87-2.07-2.59-3.45-.2-.95.41-1.75.67-2.61-.02-.51-.42-1.1-.7-1.53l-.81 1.53c-.59-1.24-.91-2.26-.91-3.65 0-.6-.23-1.22-.01-1.81.23-.75.23-1.46.88-2.02.41-.52.71-1.13 1.12-1.67v-.58l-.48-.61c-.26.44-.56.82-.87 1.22.09-1.65.16-3.18 1.12-4.63.18-.62-.1-1.27-.05-1.9l.02-.33c.29.07.56.12.83.28l.16.09c.23.15.38.07.66-.05l.07-.17c.03-.1.05-.2.07-.32.45-.54-.25-1.09-.76-1.2a7.81 7.81 0 0 1-.95-.25c.03-.18.05-.32.05-.49l-.02-.45c.89.05 1.5.17 2.3.58.26-.41.5-.59.89-.75l1.32-.55c.63-.18 1.11-.18 1.75-.18 2.4-1.19 3.72-1.21 5.71.38.2-.16.38-.2.63-.2.99.17 1.88.48 2.64 1.09.34.5 1.07.52 1.58.38.45-.01.82-.1 1.27-.05v1.24c-.94-.1-1.36-.02-2.19.43 0 .53.04.75.25 1.15.06 0 .14-.01.21-.03.3-.08.59-.16.9-.16.25 0 .39.05.62.13v.93c-.34 1.38.6 2.69.61 4.07l-.55.1-.2-.49c-.29.36-.3.89-.52 1.36.03.3.24.51.45.7.24.75.7 1.35 1.1 2.02.46.76.64 1.46.44 2.4 0 1.92-.29 3.32-1.04 5.09l-.35-.64c-.17-.31-.35-.59-.57-.86-.2.47-.43.92-.69 1.36.18.19.21.35.23.5v.24c.3.93.86 1.48.45 2.55-.44 1.47-1.1 2.38-2.18 3.47-.25.09-.38.29-.6.48-.04-1.08.03-1.95-.7-2.87-.67.44-.81.88-.81 1.36 0 .74.2 1.42.1 2.17-.25.35-.63.55-.87.9-.1.04-.2.1-.29.16l-.49.36c-.61.42-1.05.54-1.83.58m40.25-10.6c-.47.53-.98.82-1.41 1.18-1.76 1.06-3.11 2.55-3.54 4.62-.25.46-.26.99-.44 1.47-.2.26-.38.53-.55.81l-.47.69-.46-1.55-.21.19c-.17.14-.23.22-.29.42-.83.61-.5 1.58-.88 2.4-.24 1.18-.83 1.85-1.82 2.5-.13-.24-.14-.32-.31-.49l-.68-2.26c-1.2 1.17-1.59 3.11-3.33 3.72-.47.63-.51 1.3-1.35 1.69l-.17.13c-.29.22-.49.3-.83.4-.46-.65-.81-.93-1.6-1.13-.1.2-.11.25-.02.43l.17.35.07.12c-.3.64-.85 1.09-1.53 1.3h-.93l-.36-.14-.14-.17-.1-.14c-.2-.26-.36-.39-.7-.48-.31 0-.6.06-1.24-.16-.47-.16-.87.14-1.35.16l-.86-.54v-1.3c-.51 0-1.03.33-1.56.38-.26-.23-.37-.32-.42-.68l.66-1.1c.71-.56 1.72-.71 2.6-.54.7.29 2.74.92 3.53.92 1.33 0 2.64-.36 3.55-1.3.95-1.57 1.51-2.8 2.91-4.07-.57-.19-1.03-.05-1.62-.04-.46.18-.74.13-1.22.11.81-1.32 1.71-3.34 2.79-4.28 1.35-1.66 4.05-1.5 5.94-2.01.52-.23 1.01-.52 1.54-.74.56-.32 1.3-.87 1.56-1.49.46-.78.41-1.37.24-2.2 1.48-.12 2.8.02 4.11.75.56.24.91.91 1.08 1.45-.03.28-.14.45-.33.62m17 8.73c2.11 1.76.03 4.76 1.61 6.68.25.43.16.8-.01 1.25-.23.37-.63.52-1.06.52h-.44c-.13-.16-.25-.41-.41-.54-.46-.38-1.46.16-1.8.38-.25-.11-.41-.2-.63-.38-.23-.19-.2-.63-.2-.89-.23.06-.49.17-.73.32-.5.06-.75.45-1.1.76l-.16.11a.61.61 0 0 1-.25.08c-.13 0-.24-.05-.34-.12-.37-.32-.7-.43-1.1-.45h-.32c-.13-.33-.19-.56-.19-.91-.81-.16-1.69.14-2.5.18-.03-.41.06-.68.08-1.07.28-.65.73-1.06 1.5-1.06h2.42c1.1 0 2.04-.28 2.9-.96 0-.39.22-.73.22-1.11 0-1.13-.44-2.2-.44-3.33-.14-.1-.23-.12-.37-.09l-.12.03c-.13.03-.17.04-.23.04-.65 0-1.31-.18-1.97-.19-.66-.17-1.45-.03-2 .36-.43.07-.74.49-1.05.76-.84-.89-1.55-1.14-2.66-1.6-.92-.38-1.86-.81-2.41-1.7-.24-.61-.47-1.2-.65-1.83-.01-2.08-.25-4.3-1.43-6.05-.12-.17-.23-.32-.35-.42-.58-.48-1.13-.93-1.76-1.28-3.1-1.3-6.6-.21-9.51 1.09-3.11 1.98-6.49 3.45-9.82 5.01-1.87.87-3.87 1.55-5.52 2.83-.24.48.12 1.22.33 1.59.04.23.31.52.44.72-.57.19-1.14.36-1.73.52-.86 0-1.5-.17-2.16-.73-.61-.5-1.37.02-1.85.41l1.77 1.29c-.36.21-.74.42-1.06.69-1.39.77-2.79.7-4.17-.01-.39.32-.78.55-1.2.76l.9.57-1.92 1.07c-1.27.42-1.9.26-3.12-.08.9-.36 1.98-.71 2.73-1.33.14-.21.33-.34.56-.43l.2-.07.13-.04c.38-.53.63-.72 1.48-1.3.17-.11.32-.23.48-.35.48-.41 1.07-.71 1.33-1.3 1.4-1.61 1-3.88 2.2-5.52 1.08-2.19 1.3-4.59 1.33-6.98h.61c.71.2 1.33.39 1.98.74 5.62 1.87 11.42.3 16.74-1.65 5.95-1.65 11.67-2.39 17.39-.74.78.21 1.62.18 2.44.18 1.21-.21 2.03-.43 2.87-1.29.46-.57.46-1.19.46-1.89-.22-.55-.44-1.09-.9-1.49-.37-.17-.7-.38-1.12-.38h-1.11c-.28 0-.71.23-.9.38-.41.17-.47.36-.66.72l-.63-.17s-.3-.13-.63-.25c-.68-.26-.63-.23-1.42-.25.52-.51.55-.57 1.13-.91l.16-.1.11-.08c.02-.24-.52-.24-.66-.25a.926.926 0 0 0-.51-.18h-.17c-.62 0-.98.57-1.54.74-.54.18-1.1.23-1.65.23s-1.05-.04-1.56-.06c.39-.49.78-.99 1.26-1.4.58-.65 1.46-.93 2.22-1.33 0-.55.23-1.11.43-1.62l.3-.27c.36-.34.45-.36.92-.5.19 1.2.78 1.97 1.81 2.61 1.13.57 2.41.75 3.55 1.31h.13l.18.08c.11.05.22.08.34.1.46.2.86.48 1.31.73.74.41 1.11 1.23 1.3 1.99 0 .75 0 1.46-.21 2-.43.9-1.53 1.82-2.4 2.39-1.32.73-3.29.92-5.27.92.23.29.45.52.63.8 1.12 1.15 1.05 2.83 1.99 4.05.94.57 2.04.56 3.1.56h1.32c1.06.24 1.76 1.03 2.4 1.83.45.57.76.92 1.13 1.57-1.01-.08-2.1-.06-3.08-.36-.18.17-.16.29-.04.8l.13.11c.09.08.18.17.26.27l.1.22c.46.39.67.53 1.28.7l1.09.54c1.23.69 1.77 1.45 2.58 2.51l-3.1.19z"/><path class="cls-1" d="M135.8 89.07c.64.18 1.54-.17 2.24-.18.47-.19.88-.19 1.31-.19.66 0 1.11.19 1.54.19-.18-.49-.44-1-.86-1.36-2.11-.56-3.51.69-6.02-.05.25 1.07.71 1.41 1.79 1.6M141.13 108.75c1.19-.99 1.97-1.86 2.22-3.34l-.7-1.16c-.44 1.06-.77 2.05-1.76 2.78-.64-.12-.82.05-1.14.58v.56c-.45.71-1.02 1.22-1.74 1.63-.23.17-.41.13-.6.12v-1.23h-.97c0 .22-.05.4-.1.58l-.16.54c-1.01-.47-1.17-.88-1.87-1.65-.09-.19-.1-.33-.1-.53 0-.26-.02-.39-.12-.58-.06-.05-.11-.11-.17-.16l-.19-.21c-.17-.17-.36-.29-.58-.38l-.21.54-.45-.54c-.05-.06-.11-.11-.17-.17-.43-.55-.69-1.53-.89-2.23-.49.72-.73 1.39-.49 2.29.09.1.17.19.22.28l.09.13c.04.05.08.1.13.14.11.26.26.49.44.71l.24.29c.08.09.14.19.2.29.27.16.44.37.59.63l.14.25c.11.19.18.28.35.4.05.2.08.27.24.41l.12.11.14.26c.55.45 1.17.8 1.72 1.25.43.18.87.37 1.34.37 1.08-.18 1.77-.73 2.67-1.29.58-.5.95-1.17 1.54-1.67M133.01 92.57c.36 0 .65.01 1 .12l.03.16c.07.36.46.73.69 1h.29c.67-.03 1.04-.52 1.06-1.14l.45-1.12c-.78-.39-1.27-.2-2.03-.4-1.01.18-1.74-.21-2.48-.79.14.69.14 1.92.98 2.16"/><path class="cls-1" d="M132.05 97.14c.24.92.6 1.58 1.32 2.22.18 1.11.4 2.21.65 3.3.21.86-.42 1.85.23 2.59.45.56 1.35.94 2.02.94.55 0 1.24.03 1.77-.19.63-.18 1.29-.51 1.57-1.13v-1.13c-.42-.82.23-1.44.23-2.19v-.16c.02-.12.07-.23.15-.32.17-.36.18-.6.18-.97 0-.15 0-.29.02-.43l.05-.28c.72-.29 1.02-.75 1.37-1.41 0-.26.02-.4.17-.62 2.72-.92 2.9-2.09 2.9-4.66-.16-.27-.36-.49-.6-.69l-.3-.25c-.14.24-.17.45-.17.76 0 .27-.01.46-.11.78 0 .71-.2 1.56-.64 2.14-.49.38-1.36.54-1.97.54-.34.71-.56 1.84-1.31 2.2-.52 0-.98.1-1.29-.35a.49.49 0 0 1-.15-.35c0-.12.06-.25.15-.33.36-.57.9-.75.9-1.52-1.3-.52-2.13-.57-3.58-.57-.4.36-.51.66-.24 1.15.02.33.13.49.35.73l.32.32c-.07.07-.17.15-.3.06l.43.36c-.1.12-.16.18-.22.23l-.14.11c-.27.39-.88.52-1.27.35-1.06-.54-1.07-1.46-1.07-2.19-.25-.1-.51-.16-.8-.2-1.6-.27-1.97-1.24-2.5-2.55.01-.76.16-1.35-.04-2.09-.44.34-.91.68-1.15 1.19.2.77.03 1.69.44 2.39.4.85 1.02 1.65 2 1.87.2.14.43.21.64.34m6.29 7.43c-.45.41-1.29.25-1.85.25-.67 0-.82-.09-1.21-.68l.4-.23.18-.11c.46 0 .92-.05 1.37-.05s.78.05 1.2.2l-.09.62zm-3.34-4.83c.74-.19 1.39-.49 2.05-.86.06.08.13.19.22.27l.14.1.17.11c.36.16.71.3 1.11.39.14.66-.03 1-.03 1.61 0 .38-.18.75-.4 1.06h-2.88c-.14-.24-.22-.51-.39-.73v-1.96zM190.76 110.94c-.16-.13-.28-.24-.4-.42-.82-.47-1.61-.43-2.62-.36-1.25.09-1.84.12-2.95-.24 0 .11.02.17.21.35l.19.11.08.22c.7.74 1.93.75 2.86.89l2.9-.18c0-.09-.03-.14-.07-.19l-.2-.19zM130.15 98.79c0-.12-.05-.25-.15-.37l-.18-.24-.12-.25v-.11c-.24.07-.47.17-.66.35l-.1.17-.23.11c-.63.93-.62 2.2-.19 3.28.33 1.11.5 1.48 1.18 2.09 0-.56.4-.77.44-1.19-.2-.35-.62-1.47-.7-1.8-.13-.46-.07-.93.3-1.62.07-.13.28-.33.4-.43M138.22 136.71c.45.77.45 1.27 1.4 1.66.14-.02.29-.1.47-.23l.18-.15.22-1.08.4.07c.17.02.3.02.46-.07.24-.03.6-.14.69-.41l.31-.4c.32-.42.56-.83.56-1.26-.43.12-.72.49-1.14.7-1.16 0-2 .01-3.09.18-.33.2-.86.61-.46.99M144.15 146.05c-.17.42-.61.87-.65 1.31.21.35.4.69.7.96.94-1.24 1.78-2.8 1.36-4.29-.19-.5-.37-.83-.7-1.15l-.93.39c.25.9.45 1.84.23 2.77M135.8 133.39c.64.18 1.54-.16 2.24-.18.47-.18.88-.18 1.31-.18.66 0 1.11.18 1.54.18-.18-.48-.44-.99-.86-1.36-2.11-.56-3.51.69-6.02-.05.25 1.07.71 1.4 1.79 1.59M141.13 153.08c1.19-.98 1.97-1.86 2.22-3.35l-.7-1.16c-.44 1.06-.77 2.05-1.76 2.77-.64-.11-.82.06-1.14.59v.55c-.45.71-1.02 1.22-1.74 1.63-.23.17-.41.13-.6.13V153h-.97c0 .23-.05.41-.1.58l-.16.54c-1.01-.48-1.17-.88-1.87-1.65-.09-.19-.1-.33-.1-.53 0-.26-.02-.39-.12-.58l-.17-.17-.19-.21a1.91 1.91 0 0 0-.58-.39l-.21.55-.45-.54c-.05-.06-.11-.11-.17-.17-.43-.56-.69-1.53-.89-2.23-.49.71-.73 1.4-.49 2.29.09.1.17.19.22.27l.09.14s.08.1.13.14c.11.26.26.49.44.71l.24.29c.08.09.14.19.2.28.27.17.44.37.59.64l.14.26c.11.18.18.27.35.4.05.2.08.27.24.41l.12.11.14.25c.55.45 1.17.81 1.72 1.26.43.18.87.38 1.34.38 1.08-.19 1.77-.74 2.67-1.29.58-.5.95-1.17 1.54-1.67M190.76 155.27c-.16-.12-.28-.24-.4-.43-.82-.46-1.61-.43-2.62-.36-1.25.1-1.84.13-2.95-.23 0 .11.02.17.21.35l.19.11.08.21c.7.74 1.93.75 2.86.9l2.9-.18c0-.09-.03-.15-.07-.19l-.2-.19zM167.16 156.33v.66c1.26-1.39 2.92-2.27 4.24-3.57.41-.35.86-.59 1.16-1.03-.84.14-1.7.25-2.5.58-1.61.58-2.46 1.73-2.9 3.34"/><path class="cls-1" d="M199.79 158.54c-.24-.62-.46-1.25-.86-1.79-.56-.47-1.12-.95-1.68-1.4l.58-.69-.62-1.19-.68-.94-.88-1.29c-.41-.69-1.04-1.24-1.91-1.79-.65-.35-1.73-.53-2.6-.53h-1.11c-.61 0-1.02-.59-1.28-1.06-.46-.48-.73-1.13-1.02-1.71l.79-.08c.29-.04.56-.09.84-.19 1.59-.35 2.64-.92 3.68-2.18 1.46-1.11 1.58-3.18 1.27-4.76-.25-.84-.65-1.35-1.04-1.68-1.28-1.26-2.99-1.9-4.63-2.57-1.19-.27-1.84-.75-2.48-1.78l-.02-.64c0-.31.12-.58.25-.82l.13-.19c-1.48-.06-2.72.25-3.9 1.21-.16.17-.27.36-.4.58l-.16.28c-.05.09-.11.17-.17.26l-.13.73c-2.82.31-5.22.86-7.98 1.49-2.48.69-4.92 1.5-7.41 2.2-.99.17-2.16.59-3.15.75-2.64.37-5.07.56-7.52-.37-.6-.25-.96-.7-1.23-1.27.01-.42.07-.8.16-1.21 1.25-.31 1.54.1 1.96 1.06l.68.26 1.21-.28c.53-.24.89-.55 1.27-1.01l.33-.42c1.05.1 1.9.06 2.87-.35.69-.24 1.34-.6 1.99-1.01l2-1.28c-3.16-.02-6.07-1.68-9.24-1.5-1.22.01-2.34.35-3.53.77-.91.56-1.91 1.08-2.54 1.96-.8.88-1.23 2.46-1.03 3.64.2 1.35 1.02 2.41 2.07 3.14l1 .53c.3.15.63.29.97.38.56.22 1.15.36 1.76.37 5.8.9 11.97-2.05 17.64-2.98.48-.19.99-.28 1.51-.36l.62.36.53.25c.83-.39 1.45-.58 2.35-.78 2.31.18 5.01.16 7.08 1.31.45.28.78.4 1.27.49l.32-.78c.85-.89 1.44-.77 2.52-.46.32.85.37 1.24-.09 2.06-.78.78-1.76.65-2.75.8-.82-.21-1.62-.53-2.48-.57-2.15-.45-4.35-.9-6.56-.83-3.27.3-6.37.72-9.53 1.78l-.81.18c-5.47 1.84-10.97 3.49-16.77 1.06l-3.2-1.24c.22-1.72.38-3.46-.35-5.12-.9-2.29.73-4.48-.06-6.65-.77-.47-1.62-.38-2.46-.25-1.46-.76-3.07-.88-4.63-1.3-.7-.39-1.4-.75-2.2-.92a3.48 3.48 0 0 0-1.92 0c-1.45.34-2.6.91-4.06 1.18-1.3.82-2.37.67-3.81.67-.23.02-.48.03-.68.17-.49.24-.78.61-.99 1.1-.2 1.14 0 2.38.19 3.5-.01.49-.17.86-.39 1.28l-.29.54c-.46.93-.55 2-.62 3.08-.1 1.55-.22 2.38-.85 3.82-.98-.41-1.54-.68-2.31-1.43l-.6-.62c-.21-.2-.41-.4-.63-.59-1.27-1.24-3.15-2.4-3.17-4.39.22-1.59 1.73-2.83 1.54-4.45-.02-.72-.57-1.37-.98-1.92.3-1.09-.16-1.63-1.01-2.22-.21.17-.12.43-.12.68v.74c-1.15-.08-1.8-.12-2.89-.55-.4-.46-.71-.78-1.32-.96l-.92-.04.87 1.18c-.47.69-.81 1.36-1.13 2.12h-1.69c-.25-.13-.29-.15-.59-.13-.37-.08-.67-.05-1.02.04.49.52.8.92 1.16 1.55l-.31.29c-.35.33-.49.59-.51 1.09-.19.71-.04 1.24.4 1.83.37.71 2.96 1.51 3.74 1.78-1.01.18-2.32.24-3.02 1.11l-.43 1.12c-.32-.09-.64-.17-.94-.3l-.14-.07c.13.64.24 1.03.94 1.27.22.2.43.41.6.65l.35.54c.63.66 1.27.82 2.22.86l1.23-.25c.99-.32 1.82.41 2.23 1.01.35.57.04 1.19-.24 1.7l-.65.35c-.3.15-.44.3-.44.48 0 .22.16.45.26.64.54.9.92 1.46 1.73 2.18.86.88 1.99 1.46 3.08 2.01 1.42 2.81 2.63 3.64 5.47 4.87l-1.79 1.06-1.57.79c-.55.43-1.17.73-1.79.96-.25.2-.52.38-.84.53l-.87.34c-1.12.36-2 .35-3.11 0-.59-.09-1.19-.15-1.75-.36-.63-.18-1.3.01-2 .24l-1.2 1.06-.15.5c-.15.39-.39.76-.77.94-1.06.6-.75 2.42-1.48 3.38-.39.48-.56.64-.62 1.25l.54.2c.43-.32.73-.41 1.25-.5l.81.46c.39.23.65.51.92.86 0 .43.01.74.03 1.06l1.07-.54c.82-.42.89-.66 1.91-.65l1.15.06c.62 0 .99-.1 1.48-.42l.46-.3c.47.79.74 1.28.69 2.22.59-.3 1.21-.58 1.73-.99l.56-.69 1.07-.43c.49-.47 1-1.04.75-1.8-.02-.62.1-1 .4-1.54l.29-.5.59.27c.64.4.85.79.86 1.49l-.23.59c.45.1.71.08 1.1-.05 1.09-.02 1.95-.18 2.97-.57.43-.14.6-.17.77-.17 1.58 0 3.05-.24 4.17-1.34l.55-.78c.28-.48.73-.76 1.2-1.03.64.13 1.11.29 1.69.6l.7.38c.23.12.48.24 1.03.42l.68.16c1.58.08 3.33.12 4.69-.62l1.37-.62c.34-.31.67-.44 1.1-.53l.63-.13c.23-.05.43-.11.64-.19 1.2-.35 2.02-.82 3.08-1.47.43-.23.93-.43 1.39-.59l1.42-.48c.87-.3 1.42-.56 2.1-1.04l-1.47-.82c.39-.96.59-1.4 1.58-1.88 1.28-.61 2.68-1.11 3.98-1.65 1.23-.58 2.34-1.18 3.6-1.66l1.84-1.26c2.85-1.53 4.42-2.02 7.66-2.32-.17.47-.32.94-.56 1.37-.18.31-.42.6-.77.79-1.47.98-4.21 1.14-5.87 1.18l-1.69 1.26c-.46.28-.84.69-1.23 1.07l-1.27 2.15-.19.62c-.12.34-.27.65-.51.93-.41.97-.83 1.42-1.51 1.92.71.21 1.39.42 2.08.68-.25.48-.5.96-.79 1.42-1.27.97-2.71.89-4.18.62l-.83-.24c-.95-.39-1.94-.66-2.97-.33-1.1.2-1.64.84-2.11 1.77-.47.51-.52 1.29-.65 1.94l-.39.14c-.45.18-.79.41-.92.82l-.29.86.61-.1c.53-.23.84-.19 1.35.02l.34.33c-.17.69-.13 1.04.05 1.71l.67-.5c.41-.28.82-.52 1.34-.64.25-.1.5-.15.76-.21l.27 1.43.61.37.7-.51c.3-.22.57-.39.92-.51.43-.05.82-.03 1.24.04l.96.19c.61.11.99.09 1.53-.23.19-.07.36-.16.55-.27l1.16-.29c1.36-.02 2.55-.67 3.26-1.81.29-.95 2.28-2.63 3.09-3.35l.09 2.94 1.07-.72c1.61-1.36 1.99-3.23 4-4.49.66-.92 1.2-1.61 1.41-2.76 1.04-2.61.96-3.11 3.23-5.06.73-.62 1.46-1.23 2.18-1.86.15 1.39.19 2.84.61 4.18 0 .38.02.71.2 1.04.3.94.98 1.67 1.81 2.18l1.05.59.83.29.55.23c.94.4 1.16 1.02 1.35 1.84.38 0 .61-.08 1.06-.24.31-.12.59-.32.85-.54 1.31-.91 2.15-.95 3.55-.15l.18.84-.02.55c-.03.29-.14.55-.25.82-.18.12-.35.22-.55.29-.79.15-1.6.12-2.4.12-.86 0-1.88.17-2.63.57-.67.57-.97 1.05-1.17 1.92l.13 1.02-.33.2c-.37.24-.63.51-.7.95-.1.19-.13.41-.14.63v.22c.42-.23.85-.43 1.31-.62l2.23.24c-.3.72-.52 1.12-.43 1.93.4-.27.82-.52 1.29-.73l.85-.36 1.22-.23c.26.04.5.08.75.08.71 0 1.67-.36 2.36-.58-.3.95-.6 1.37.07 2.28.45-.79.9-1.13 1.75-1.51l3.16-.64c.36-.46.42-.94.45-1.59v-.69c-.24-1.12-.59-2.03-.47-3.22-.09-.41.02-.8.03-1.21l-.26-1.52h1.53l.92.19c.35-.31-.02-.84-.18-1.16m-21.59-21.2c-5.41.95-10.68 2.55-16.05 3.68-1.31.19-2.42.19-3.75.19-1.74 0-3.72-.55-5.03-1.46-.65-.36-1.33-1.1-1.54-1.82-.21-.74-.21-1.46.22-2.37.43-.9 1.32-1.82 2.39-2.37 2.64-1.1 5.7-.73 8.38.01.18.13.82.3.83.3-.36.19-.71.38-1.09.53-.95.59-2.53.74-3.5.74-.05.44-.28.92-.67 1.11l-.65.18c-.14-.36-.23-.76-.41-1.1-.75-.6-1.62-.53-2.45-.2-.97.09-1.58 1-1.58 1.89v.74c.66 1.43 1.6 1.82 3.11 2.24 4.68 1.3 9.43-.41 13.89-1.65 1.63-.59 3.36-1.11 5.07-1.47.89-.37 1.73-.55 2.63-.74.6-.17 1.23-.18 1.84-.2l-.75.88c-.28.32-.55.63-.88.91m-55.65 15.11c-.33-.28-.58-.98-.78-1.39l.52-.12.25-.06c.08-.02.14-.03.21-.03.45-.18.94-.23 1.41-.41-.09-.09-.16-.16-.21-.24l-.09-.13c-.06-.07-.13-.14-.19-.2-.49-.91-1.87-.22-2.67-.19-1.43-.35-2.56-.85-3.5-2.02-.21-.18-.38-.36-.55-.58l-.48-.64c.61-.33.77-.48 1.05-1.14.26-.45.43-.97.44-1.5l-.22-.56c-.18-.3-.28-.63-.45-.93l-1.1-.92c-.56-.24-.98-.38-1.57-.38-.29 0-.67.21-.9.37h-1.08c-.44 0-.66-.06-.93-.43-.01-.1-.02-.19 0-.28l.06-.26c.02-.09.03-.18.03-.28 0-.05-.01-.1-.03-.14l-.1-.21a1.18 1.18 0 0 1-.09-.37c.22-.45.57-.53 1.02-.53h.28c.36-.3.67-.59.9-1.02v-.24c-.1-.44-.22-.8-.45-1.19-.46-.56-1.08-.75-1.79-.76-.34-.13-.86-.19-1.07-.53-.16-.27-.25-.79-.01-1.05l.09-.16c.17-.28.41-.58.78-.58.34-.27.57-.32.7-.76.32-.14.56-.2.93-.2.32 0 .66.05.99.05.04-.41-.18-.76-.18-1.15 0-.34.18-.65.42-.88.68-.17 1.28-.18 1.96 0 .47.23.63.79.63 1.26l.73-.52c.87.1 1.03.86 1.04 1.57-.25.78-.92 1.3-1.1 2.06-.29.96-.42 1.63-.22 2.61.22.92.67 1.67 1.32 2.39.71 1 1.71 1.81 2.65 2.59 1.24 1.21 2.83 2.03 4.17 3.12-.17 1.85.38 3.76 1.32 5.34.52.86.47 1.88.89 2.76.16.27.26.58.39.87h-1.45c-1.55-.19-2.85-.93-3.93-2.01m10.45 8.66c-.06.06-.11.12-.17.17-.41.71-.85 1.45-1.74 1.65a3.7 3.7 0 0 1-1.64.29c.15-.32.35-.64.38-.98l.68-1.15c-.38 0-.68.08-.97.15-.08.02-.13.03-.2.03-.48.23-.66.71-.91 1.12-.42.7-1.07 1.08-1.76 1.47-.33.27-.64.28-1.03.21-.21-.69-.42-1.47-1.11-1.87-.78-.33-1.56-.25-2.39-.02l-.14.15-.2.15-.11.07c-.09.06-.2.13-.3.23-.95.65-.41 1.69-.55 2.62l-.05.32-.67-.19-.17-.13c-.21-.15-.43-.23-.74-.23-.59.25-.67.44-.94.96-.37-.25-.51-.32-.77-.69v-.25l-.23-.58c-.77.29-1.05.76-1.38 1.47h-.75a.507.507 0 0 1-.37-.28c-.13-.27-.17-.36-.39-.46l-1.35-.03c-.02-.21-.05-.39-.05-.6 0-.4-.02-.55-.13-.84-.71.27-.84.85-1.14 1.47-.43-.01-.64-.07-.88-.43l-.1-.19-.1-.18c-.18-.29-.32-.36-.63-.49.07-.53.17-.92.45-1.39.45-.38.89-.79 1.37-1.13.21-.15.39-.28.39-.55 0-.09-.05-.18-.07-.27l.27-.25c.83-.32 1.84-.24 2.61.19.99.33 1.78.37 2.88.37 1.28-.36 2.53-.85 3.6-1.66.24 0 .41-.04.6-.19 1.12-.57 2.13-1.34 3.3-1.84.84-.69 1.86-1.06 2.85-1.47.07 0 .13-.01.2-.03l.26-.06.4-.1c.2.1.36.2.52.37l.18.19c.06.06.12.12.19.18 1.04.4 1.47 1.96 2.2 2.76.25.12.47.33.66.52l.3.31c.16.17.33.28.51.42-.23.23-.44.47-.65.72m5.03-.73-.4-.16c-.05-.63-.18-1.18 0-1.81v-.6h-1.41c0 .95-.03 1.55-.41 2.4-.77-.27-1.32-.56-1.94-1.1l-.66-.56c-.69-.4-.86-1.3-.87-1.98.27-.7.17-1.17 0-1.87-.1-.09-.17-.18-.25-.28a.813.813 0 0 0-.3-.21l-.16-.08-.65 1.46c-1.14-1.07-1.87-2.07-2.59-3.45-.2-.95.41-1.74.67-2.6-.02-.51-.42-1.1-.7-1.53l-.81 1.53c-.59-1.24-.91-2.26-.91-3.65 0-.6-.23-1.23-.01-1.81.23-.75.23-1.46.88-2.02.41-.53.71-1.14 1.12-1.67v-.58l-.48-.6c-.26.43-.56.81-.87 1.22.09-1.65.16-3.19 1.12-4.63.18-.62-.1-1.27-.05-1.9l.02-.33c.29.07.56.12.83.29l.16.09c.23.14.38.07.66-.05l.07-.17c.03-.11.05-.21.07-.32.45-.54-.25-1.09-.76-1.2-.33-.08-.63-.14-.95-.25.03-.17.05-.31.05-.49l-.02-.45c.89.05 1.5.17 2.3.58.26-.41.5-.59.89-.75l1.32-.56c.63-.17 1.11-.18 1.75-.18 2.4-1.19 3.72-1.21 5.71.37.2-.15.38-.19.63-.19.99.16 1.88.47 2.64 1.09.34.5 1.07.52 1.58.39.45-.01.82-.1 1.27-.05V133c-.94-.1-1.36-.02-2.19.43 0 .53.04.75.25 1.15.06 0 .14-.01.21-.03.3-.07.59-.15.9-.15.25 0 .39.05.62.13v.93c-.34 1.38.6 2.68.61 4.06l-.55.11-.2-.51c-.29.37-.3.9-.52 1.36.03.3.24.51.45.71.24.74.7 1.35 1.1 2.02.46.76.64 1.46.44 2.4 0 1.92-.29 3.32-1.04 5.09l-.35-.65c-.17-.3-.35-.59-.57-.87-.2.47-.43.92-.69 1.36.18.2.21.35.23.5v.25c.3.93.86 1.48.45 2.55-.44 1.47-1.1 2.38-2.18 3.46-.25.09-.38.3-.6.49-.04-1.08.03-1.95-.7-2.87-.67.43-.81.88-.81 1.36 0 .74.2 1.41.1 2.16-.25.36-.63.55-.87.91-.1.05-.2.1-.29.17l-.49.35c-.61.42-1.05.55-1.83.58m40.25-10.6c-.47.53-.98.82-1.41 1.18-1.76 1.06-3.11 2.56-3.54 4.62-.25.45-.26.98-.44 1.47-.2.26-.38.53-.55.81l-.47.69-.46-1.55-.21.18c-.17.14-.23.22-.29.42-.83.61-.5 1.56-.88 2.4-.24 1.18-.83 1.85-1.82 2.5-.13-.24-.14-.31-.31-.49l-.68-2.25c-1.2 1.17-1.59 3.12-3.33 3.72-.47.64-.51 1.3-1.35 1.69l-.17.14c-.29.21-.49.3-.83.4-.46-.66-.81-.93-1.6-1.12-.1.19-.11.25-.02.44l.17.34.07.12c-.3.63-.85 1.09-1.53 1.3h-.93l-.36-.14-.14-.17-.1-.15c-.2-.25-.36-.39-.7-.48-.31.01-.6.06-1.24-.16-.47-.16-.87.14-1.35.17l-.86-.54v-1.3c-.51 0-1.03.33-1.56.37-.26-.23-.37-.32-.42-.68l.66-1.11c.71-.55 1.72-.71 2.6-.53.7.29 2.74.92 3.53.92 1.33 0 2.64-.36 3.55-1.3.95-1.57 1.51-2.8 2.91-4.08-.57-.18-1.03-.04-1.62-.03-.46.18-.74.14-1.22.1.81-1.31 1.71-3.33 2.79-4.27 1.35-1.67 4.05-1.5 5.94-2.01.52-.23 1.01-.52 1.54-.75.56-.31 1.3-.86 1.56-1.48.46-.77.41-1.37.24-2.21 1.48-.12 2.8.02 4.11.75.56.24.91.91 1.08 1.45-.03.28-.14.45-.33.62m17 8.73c2.11 1.76.03 4.76 1.61 6.69.25.43.16.8-.01 1.25-.23.36-.63.53-1.06.53h-.44c-.13-.17-.25-.4-.41-.54-.46-.39-1.46.17-1.8.38-.25-.11-.41-.2-.63-.38-.23-.19-.2-.62-.2-.9-.23.06-.49.17-.73.33-.5.06-.75.45-1.1.75l-.16.12a.61.61 0 0 1-.25.08c-.13 0-.24-.06-.34-.13-.37-.31-.7-.42-1.1-.45h-.32c-.13-.33-.19-.56-.19-.91-.81-.17-1.69.14-2.5.17-.03-.41.06-.68.08-1.07.28-.65.73-1.06 1.5-1.06h2.42c1.1 0 2.04-.28 2.9-.96 0-.38.22-.73.22-1.11 0-1.12-.44-2.2-.44-3.32a.412.412 0 0 0-.37-.1l-.12.03c-.13.03-.17.04-.23.04-.65 0-1.31-.18-1.97-.19-.66-.17-1.45-.03-2 .36-.43.07-.74.49-1.05.76-.84-.89-1.55-1.14-2.66-1.6-.92-.39-1.86-.82-2.41-1.71-.24-.61-.47-1.2-.65-1.84-.01-2.07-.25-4.3-1.43-6.05a2.59 2.59 0 0 0-.35-.42c-.58-.48-1.13-.93-1.76-1.29-3.1-1.3-6.6-.21-9.51 1.11-3.11 1.97-6.49 3.45-9.82 5-1.87.87-3.87 1.55-5.52 2.83-.24.47.12 1.21.33 1.59.04.23.31.52.44.71-.57.2-1.14.37-1.73.52-.86-.01-1.5-.17-2.16-.72-.61-.51-1.37.02-1.85.4l1.77 1.3c-.36.21-.74.42-1.06.69-1.39.77-2.79.7-4.17-.02-.39.32-.78.55-1.2.77l.9.57-1.92 1.07c-1.27.42-1.9.26-3.12-.09.9-.35 1.98-.71 2.73-1.33.14-.21.33-.34.56-.43l.2-.07.13-.05c.38-.53.63-.72 1.48-1.3.17-.11.32-.23.48-.36.48-.4 1.07-.71 1.33-1.3 1.4-1.61 1-3.88 2.2-5.53 1.08-2.18 1.3-4.59 1.33-6.98h.61c.71.2 1.33.39 1.98.74 5.62 1.87 11.42.3 16.74-1.65 5.95-1.65 11.67-2.4 17.39-.74.78.22 1.62.19 2.44.19 1.21-.2 2.03-.42 2.87-1.29.46-.57.46-1.19.46-1.88-.22-.54-.44-1.1-.9-1.5-.37-.16-.7-.38-1.12-.38h-1.11c-.28 0-.71.23-.9.38-.41.18-.47.37-.66.73l-.63-.17s-.3-.13-.63-.25c-.68-.26-.63-.23-1.42-.26.52-.52.55-.57 1.13-.92l.16-.1.11-.07c.02-.25-.52-.25-.66-.26a.926.926 0 0 0-.51-.18h-.17c-.62 0-.98.57-1.54.74-.54.18-1.1.23-1.65.23s-1.05-.03-1.56-.06c.39-.48.78-.99 1.26-1.39.58-.64 1.46-.93 2.22-1.33 0-.55.23-1.11.43-1.62l.3-.27c.36-.33.45-.36.92-.5.19 1.2.78 1.97 1.81 2.61 1.13.56 2.41.74 3.55 1.3h.13l.18.08c.11.05.22.08.34.1.46.2.86.48 1.31.73.74.41 1.11 1.23 1.3 1.99 0 .75 0 1.46-.21 1.99-.43.91-1.53 1.84-2.4 2.39-1.32.72-3.29.92-5.27.92.23.28.45.52.63.79 1.12 1.15 1.05 2.84 1.99 4.06.94.57 2.04.56 3.1.56h1.32c1.06.24 1.76 1.03 2.4 1.83.45.58.76.92 1.13 1.58-1.01-.08-2.1-.06-3.08-.36-.18.18-.16.28-.04.8l.13.11c.09.09.18.17.26.27l.1.21c.46.39.67.53 1.28.7l1.09.55c1.23.68 1.77 1.45 2.58 2.51l-3.1.19z"/><path class="cls-1" d="M133.01 136.9c.36 0 .65.01 1 .12l.03.16c.07.36.46.74.69 1h.29c.67-.03 1.04-.52 1.06-1.14l.45-1.12c-.78-.39-1.27-.21-2.03-.4-1.01.18-1.74-.21-2.48-.8.14.69.14 1.92.98 2.16"/><path class="cls-1" d="M132.05 141.47c.24.92.6 1.58 1.32 2.22.18 1.1.4 2.21.65 3.3.21.86-.42 1.85.23 2.58.45.57 1.35.94 2.02.94.55 0 1.24.03 1.77-.18.63-.17 1.29-.51 1.57-1.14v-1.12c-.42-.82.23-1.45.23-2.19v-.16c.02-.12.07-.23.15-.32.17-.36.18-.6.18-.97 0-.15 0-.3.02-.43l.05-.28c.72-.28 1.02-.75 1.37-1.4 0-.26.02-.4.17-.62 2.72-.92 2.9-2.09 2.9-4.66-.16-.26-.36-.47-.6-.69l-.3-.25c-.14.24-.17.47-.17.76 0 .27-.01.46-.11.78 0 .71-.2 1.56-.64 2.14-.49.39-1.36.54-1.97.54-.34.7-.56 1.83-1.31 2.2-.52 0-.98.1-1.29-.35-.09-.09-.15-.21-.15-.34s.06-.25.15-.34c.36-.56.9-.75.9-1.52-1.3-.52-2.13-.57-3.58-.57-.4.36-.51.66-.24 1.15.02.32.13.49.35.72l.32.32c-.07.08-.17.16-.3.07l.43.36c-.1.12-.16.18-.22.23l-.14.11c-.27.39-.88.52-1.27.35-1.06-.54-1.07-1.46-1.07-2.19-.25-.1-.51-.15-.8-.2-1.6-.27-1.97-1.24-2.5-2.55.01-.76.16-1.35-.04-2.1-.44.33-.91.68-1.15 1.19.2.77.03 1.69.44 2.39.4.85 1.02 1.64 2 1.87.2.14.43.21.64.34m6.29 7.43c-.45.41-1.29.25-1.85.25-.67 0-.82-.08-1.21-.69l.4-.23.18-.11c.46 0 .92-.04 1.37-.04s.78.04 1.2.2l-.09.62zm-3.34-4.83c.74-.19 1.39-.49 2.05-.86.06.09.13.19.22.27l.14.1.17.11c.36.16.71.3 1.11.39.14.66-.03 1-.03 1.61 0 .38-.18.75-.4 1.06h-2.88c-.14-.24-.22-.51-.39-.73v-1.96zM130.15 143.12c0-.12-.05-.25-.15-.37l-.18-.24-.12-.25v-.11c-.24.08-.47.17-.66.35l-.1.17-.23.12c-.63.93-.62 2.2-.19 3.28.33 1.11.5 1.48 1.18 2.1 0-.56.4-.78.44-1.2-.2-.34-.62-1.47-.7-1.8-.13-.47-.07-.94.3-1.62.07-.13.28-.33.4-.43M171.95 193.33c.24-.42.4-.91.56-1.36-3.24.31-4.81.79-7.66 2.32l-1.84 1.26c-1.26.49-2.37 1.09-3.6 1.67-1.31.54-2.71 1.04-3.99 1.65-.99.48-1.19.93-1.58 1.88l1.47.82c-.68.47-1.23.74-2.1 1.03l-1.42.49c-.47.16-.96.36-1.39.59-1.05.66-1.88 1.12-3.08 1.47-.21.08-.41.14-.64.19l-.63.12c-.43.1-.76.23-1.1.54l-1.37.62c-1.36.75-3.1.7-4.69.62l-.68-.15c-.55-.19-.81-.3-1.03-.42l-.7-.39c-.58-.31-1.04-.46-1.69-.6-.47.27-.91.56-1.2 1.03l-.55.78c-1.11 1.1-2.59 1.34-4.16 1.34-.17 0-.35.03-.77.17-1.02.38-1.88.54-2.97.57-.39.13-.65.14-1.1.04l.23-.59c0-.7-.21-1.09-.86-1.49l-.59-.27-.29.5c-.31.53-.43.92-.4 1.54.24.75-.26 1.32-.75 1.79l-1.07.44-.56.68c-.52.42-1.14.7-1.73 1 .05-.94-.22-1.43-.69-2.22l-.46.3c-.49.32-.86.43-1.48.43l-1.15-.06c-1.03 0-1.09.22-1.91.64l-1.07.54c-.02-.32-.03-.63-.03-1.06-.28-.36-.53-.63-.92-.87l-.81-.45c-.53.08-.82.18-1.26.5l-.54-.2c.06-.61.23-.76.62-1.24.73-.96.41-2.79 1.48-3.39.37-.18.62-.55.77-.94l.15-.5 1.21-1.06c.7-.23 1.36-.42 2-.24.56.2 1.16.27 1.75.36 1.11.35 1.99.38 3.11 0l.88-.34c.32-.14.59-.33.84-.53.62-.23 1.24-.52 1.79-.95l1.57-.8 1.79-1.05c-2.84-1.23-4.05-2.06-5.47-4.87-1.08-.55-2.22-1.12-3.07-2.01-.81-.71-1.2-1.27-1.73-2.17-.1-.18-.26-.42-.26-.65 0-.18.14-.33.44-.48l.65-.35c.28-.52.59-1.13.24-1.7-.41-.6-1.24-1.33-2.23-1.01l-1.23.25c-.96-.05-1.59-.2-2.22-.87l-.35-.54c-.17-.24-.38-.44-.6-.65-.7-.25-.82-.64-.94-1.27l.14.06c.3.14.62.21.94.3l.43-1.12c.7-.87 2-.93 3.02-1.1-.78-.27-3.37-1.08-3.74-1.78-.44-.59-.59-1.12-.4-1.84.02-.5.16-.75.51-1.09l.31-.29c-.36-.62-.67-1.03-1.16-1.55.36-.09.66-.13 1.02-.04.3-.02.34-.01.59.12h1.69c.32-.76.67-1.43 1.13-2.11l-.87-1.18.92.04c.62.18.92.5 1.32.96 1.1.43 1.74.47 2.89.55v-.74c0-.24-.09-.51.12-.68.86.59 1.31 1.13 1.01 2.22.41.56.96 1.21.98 1.93.18 1.62-1.32 2.87-1.54 4.45.02 1.98 1.9 3.15 3.17 4.39.22.19.43.38.63.58l.6.62c.77.75 1.34 1.02 2.31 1.43.63-1.45.75-2.28.85-3.82.07-1.08.15-2.15.62-3.09l.29-.53c.22-.42.37-.79.39-1.28-.19-1.12-.39-2.37-.19-3.5.21-.49.5-.86.99-1.1.2-.14.45-.15.68-.17 1.45 0 2.51.14 3.81-.67 1.46-.27 2.62-.83 4.07-1.18a3.48 3.48 0 0 1 1.92 0c.8.17 1.5.53 2.2.92 1.57.41 3.18.53 4.63 1.3.84-.14 1.69-.23 2.46.25.79 2.16-.84 4.37.06 6.64.73 1.66.57 3.41.35 5.13l3.2 1.23c5.79 2.43 11.3.77 16.77-1.06l.81-.18c3.16-1.06 6.26-1.48 9.53-1.79 2.21-.07 4.42.39 6.56.84.86.03 1.66.36 2.48.56 1-.15 1.97-.02 2.75-.8.46-.82.42-1.21.09-2.07-1.08-.31-1.67-.42-2.52.46l-.32.78c-.49-.09-.82-.21-1.27-.49-2.07-1.15-4.78-1.12-7.08-1.3-.9.2-1.52.4-2.35.78l-.53-.25-.62-.36c-.52.08-1.02.17-1.51.36-5.68.92-11.84 3.87-17.64 2.97-.61-.01-1.2-.15-1.76-.37-.33-.1-.66-.24-.97-.38l-1-.53c-1.05-.72-1.87-1.79-2.07-3.14-.2-1.18.23-2.76 1.03-3.64.63-.88 1.63-1.4 2.54-1.96 1.19-.41 2.3-.76 3.52-.77 3.17-.18 6.08 1.47 9.24 1.49l-2 1.29c-.65.41-1.3.76-1.99 1.01-.97.4-1.82.44-2.87.35l-.33.42c-.38.45-.74.76-1.27 1.01l-1.21.28-.68-.25c-.42-.97-.71-1.37-1.96-1.06-.09.41-.15.8-.16 1.21.27.57.62 1.01 1.22 1.27 2.45.93 4.88.74 7.52.37.99-.17 2.16-.58 3.15-.75 2.49-.7 4.93-1.51 7.41-2.2 2.76-.63 5.16-1.18 7.98-1.49l.13-.72c.06-.09.13-.17.17-.26l.16-.29c.12-.21.24-.41.4-.58 1.19-.96 2.43-1.27 3.9-1.21l-.13.19c-.14.23-.25.51-.25.82l.02.65c.63 1.02 1.29 1.5 2.48 1.77 1.64.67 3.35 1.31 4.63 2.57.39.33.8.84 1.04 1.68.31 1.58.19 3.65-1.27 4.75-1.04 1.26-2.09 1.83-3.68 2.18-.27.1-.55.16-.84.19l-.79.08c.29.58.56 1.23 1.02 1.71.25.47.67 1.06 1.28 1.06h1.11c.87 0 1.95.18 2.6.54.87.55 1.5 1.09 1.91 1.78l.88 1.29.68.94.62 1.2-.58.68c.56.46 1.12.94 1.68 1.42.4.53.62 1.17.86 1.78.16.32.53.85.18 1.15l-.92-.19h-1.52l.26 1.52c0 .41-.13.79-.03 1.22-.12 1.18.23 2.09.47 3.21v.7c-.02.63-.09 1.12-.45 1.57l-3.16.64c-.85.38-1.3.72-1.75 1.51-.67-.91-.37-1.33-.07-2.28-.69.21-1.65.58-2.36.58-.25 0-.49-.04-.75-.08l-1.22.23-.85.36c-.47.21-.89.46-1.29.73-.09-.81.13-1.21.43-1.93l-2.24-.24c-.45.19-.89.39-1.32.62v-.21c.02-.22.05-.43.15-.63.07-.44.33-.71.7-.95l.33-.2-.13-1.01c.2-.87.5-1.35 1.17-1.93.75-.4 1.76-.57 2.63-.57.8 0 1.61.03 2.4-.12.21-.07.37-.18.55-.29.12-.27.22-.53.25-.81l.02-.56-.18-.85c-1.39-.79-2.23-.76-3.54.15-.27.22-.54.41-.85.54-.45.17-.68.25-1.06.25-.19-.82-.41-1.43-1.35-1.83l-.55-.23-.83-.29-1.05-.59c-.83-.51-1.51-1.23-1.81-2.17-.18-.35-.2-.66-.2-1.05-.42-1.34-.46-2.79-.61-4.18-.71.64-1.45 1.24-2.18 1.86-2.27 1.95-2.19 2.44-3.23 5.06-.21 1.15-.75 1.84-1.41 2.76-2 1.27-2.39 3.14-4 4.5l-1.07.71-.08-2.94c-.81.74-2.8 2.4-3.09 3.35-.71 1.15-1.9 1.8-3.26 1.8l-1.16.31c-.18.1-.36.19-.55.27-.54.32-.92.33-1.53.23l-.96-.2c-.41-.07-.81-.09-1.24-.04-.35.11-.63.29-.92.51l-.7.52-.61-.37-.27-1.43c-.26.05-.51.11-.76.2-.52.13-.93.37-1.34.65l-.67.5c-.18-.66-.21-1.02-.05-1.71l-.34-.33c-.52-.21-.83-.25-1.35-.03l-.61.11.29-.86c.13-.41.47-.65.92-.83l.39-.14c.13-.65.18-1.43.65-1.94.47-.93 1.01-1.56 2.11-1.77 1.03-.33 2.03-.06 2.97.33l.83.25c1.48.27 2.91.34 4.18-.63.29-.46.54-.94.79-1.43-.69-.25-1.37-.47-2.08-.67.68-.51 1.1-.96 1.51-1.92.24-.29.39-.6.51-.93l.19-.62 1.27-2.15c.39-.38.77-.8 1.23-1.07l1.69-1.25c1.67-.05 4.4-.2 5.87-1.2.35-.19.59-.49.77-.79m-31.51-18.53c-1.99-1.59-3.31-1.57-5.71-.38-.64 0-1.12 0-1.75.18l-1.32.55c-.39.17-.62.34-.89.75-.8-.41-1.41-.53-2.3-.58l.02.45c0 .18-.02.31-.05.49.31.11.61.18.95.25.51.11 1.21.65.76 1.2-.02.11-.04.21-.07.32l-.08.16c-.28.12-.43.2-.66.05l-.16-.1c-.26-.15-.53-.21-.83-.28l-.02.33c-.06.63.23 1.28.05 1.9-.97 1.45-1.04 2.98-1.12 4.63.3-.41.61-.79.87-1.22l.49.61v.58c-.41.53-.71 1.14-1.12 1.67-.65.56-.65 1.27-.88 2.03-.22.58.01 1.21.01 1.81 0 1.39.32 2.41.91 3.65l.81-1.53c.28.42.67 1.02.7 1.53-.25.85-.87 1.66-.67 2.59.72 1.39 1.45 2.39 2.59 3.47l.65-1.47.16.08c.12.05.22.12.3.22.08.1.15.19.25.28.17.7.28 1.18 0 1.88.01.68.18 1.58.87 1.98l.66.56c.63.53 1.17.82 1.94 1.1.38-.86.41-1.45.41-2.4h1.41v.6c-.18.64-.04 1.18 0 1.81l.4.17c.77-.03 1.21-.16 1.83-.58l.48-.35c.09-.06.19-.12.29-.16.24-.35.62-.55.87-.91.1-.75-.1-1.43-.1-2.16 0-.48.13-.93.8-1.36.74.92.67 1.79.71 2.87.22-.19.34-.39.6-.48 1.08-1.09 1.74-2 2.18-3.47.41-1.06-.16-1.62-.45-2.55v-.25c-.01-.15-.05-.3-.23-.49.26-.45.48-.9.69-1.37.22.27.41.55.58.86l.35.65c.75-1.77 1.04-3.16 1.04-5.08.2-.95.02-1.65-.44-2.41-.4-.67-.86-1.28-1.1-2.02-.21-.19-.42-.41-.45-.7.22-.46.23-1 .52-1.36l.2.5.55-.11c0-1.38-.95-2.68-.61-4.06v-.93c-.23-.08-.37-.13-.62-.13-.31 0-.6.08-.9.15-.07.02-.14.03-.21.03-.22-.39-.25-.62-.25-1.14.83-.45 1.26-.53 2.19-.43v-1.23c-.45-.05-.82.03-1.27.04-.51.13-1.24.11-1.58-.38-.76-.62-1.65-.93-2.64-1.09-.26 0-.44.03-.64.2m22.38 2.72c-2.68-.75-5.74-1.12-8.38-.01-1.08.54-1.96 1.45-2.39 2.36-.43.91-.43 1.64-.22 2.37.21.73.89 1.47 1.54 1.83 1.31.91 3.29 1.46 5.03 1.46 1.32 0 2.43 0 3.75-.18 5.37-1.13 10.63-2.73 16.05-3.68.32-.28.59-.59.88-.91l.75-.88c-.61.03-1.23.03-1.84.2-.89.19-1.74.37-2.63.74-1.71.36-3.43.88-5.07 1.47-4.46 1.25-9.21 2.96-13.89 1.65-1.51-.42-2.45-.81-3.11-2.23v-.75c0-.88.61-1.8 1.58-1.89.83-.33 1.7-.4 2.45.2.18.33.28.73.41 1.1l.65-.19c.39-.19.63-.66.67-1.1.97 0 2.55-.15 3.5-.73.38-.16.73-.34 1.09-.53-.02 0-.65-.17-.83-.29m-50.61 27.75c0 .28-.19.41-.39.55-.48.35-.92.75-1.37 1.13-.28.47-.38.86-.45 1.39.31.14.45.21.63.49l.1.18.1.21c.24.37.44.42.88.43.29-.62.43-1.21 1.14-1.47.11.29.13.44.13.84 0 .21.02.4.05.6l1.35.03c.21.1.26.19.39.46.08.15.2.25.37.27h.75c.32-.7.61-1.18 1.38-1.47l.24.58v.24c.26.37.4.44.77.69.27-.52.36-.72.94-.97.31 0 .53.09.74.24l.17.14.67.18.05-.31c.14-.92-.4-1.96.55-2.62.11-.1.21-.17.3-.23.03-.02.07-.05.11-.07l.2-.15.14-.15c.83-.23 1.6-.3 2.39.03.69.4.9 1.17 1.11 1.86.4.07.7.06 1.03-.21.69-.38 1.34-.75 1.76-1.46.25-.42.43-.9.91-1.12.08 0 .12-.01.2-.03.29-.08.59-.15.97-.15l-.68 1.15c-.03.35-.23.67-.38.98.6.01 1.08-.05 1.65-.28.89-.2 1.32-.95 1.74-1.65.06-.06.12-.11.17-.17.21-.25.43-.49.65-.72-.19-.13-.35-.27-.51-.42l-.3-.31c-.19-.19-.4-.4-.66-.52-.73-.79-1.16-2.36-2.2-2.76-.06-.06-.13-.11-.19-.18l-.18-.19c-.16-.17-.32-.27-.52-.37l-.4.1-.26.07c-.07.01-.12.02-.2.02-.99.42-2.01.78-2.85 1.47-1.17.49-2.18 1.26-3.3 1.84-.2.16-.37.18-.6.19-1.06.8-2.32 1.3-3.6 1.66-1.1 0-1.89-.05-2.88-.38-.77-.42-1.78-.51-2.61-.19l-.27.26c.02.08.07.17.07.26m57.82-.94c.38-.83.05-1.78.88-2.39.06-.2.13-.27.29-.42l.21-.19.46 1.55.47-.69c.18-.28.35-.55.55-.8.18-.48.19-1.02.44-1.47.42-2.06 1.77-3.56 3.54-4.62.44-.37.94-.65 1.41-1.18.2-.18.31-.34.33-.62-.17-.53-.52-1.2-1.08-1.45-1.31-.73-2.63-.87-4.11-.75.17.84.22 1.43-.24 2.21-.27.62-1 1.17-1.56 1.49-.53.23-1.02.52-1.54.74-1.89.52-4.58.36-5.94 2.02-1.08.94-1.98 2.96-2.79 4.27.48.03.76.08 1.22-.11.59 0 1.05-.14 1.62.05-1.4 1.27-1.96 2.5-2.91 4.07-.91.94-2.22 1.3-3.55 1.3-.79 0-2.83-.63-3.53-.92-.88-.17-1.89-.02-2.6.55l-.66 1.1c.06.36.17.45.43.68.53-.04 1.05-.37 1.56-.37v1.3l.86.54c.48-.03.88-.32 1.35-.16.65.21.93.16 1.24.16.35.1.51.23.7.48l.1.15.14.17.36.13h.93a2.48 2.48 0 0 0 1.53-1.3l-.07-.13-.17-.35c-.09-.18-.08-.24.02-.43.79.19 1.14.46 1.6 1.12.34-.1.55-.19.83-.41l.17-.13c.84-.39.89-1.05 1.35-1.69 1.74-.61 2.14-2.55 3.33-3.71l.68 2.26c.17.17.18.25.31.49.99-.65 1.58-1.32 1.82-2.51m-27.99-.02c-.23.09-.42.23-.56.43-.75.61-1.83.97-2.73 1.33 1.22.34 1.85.5 3.12.08l1.92-1.07-.9-.57c.41-.21.81-.45 1.2-.76 1.38.71 2.78.79 4.17.01.32-.27.7-.48 1.06-.69l-1.77-1.29c.49-.38 1.24-.91 1.85-.41.66.55 1.31.71 2.17.72.58-.16 1.15-.33 1.73-.53-.14-.19-.4-.48-.44-.72-.21-.37-.57-1.11-.33-1.58 1.64-1.29 3.65-1.96 5.52-2.84 3.33-1.55 6.71-3.03 9.82-5 2.91-1.31 6.41-2.4 9.51-1.1.64.36 1.18.81 1.76 1.29.12.11.23.25.35.42 1.18 1.75 1.41 3.97 1.43 6.05.18.63.41 1.21.65 1.83.55.89 1.49 1.32 2.41 1.7 1.11.46 1.82.71 2.66 1.6.31-.27.62-.69 1.05-.76.55-.4 1.34-.53 2-.36.65 0 1.32.18 1.97.18.05 0 .1 0 .23-.03l.12-.04c.14-.03.23-.01.37.09 0 1.13.44 2.21.44 3.33 0 .39-.22.73-.22 1.11-.86.67-1.8.96-2.9.96h-2.42c-.78 0-1.23.42-1.5 1.06-.02.39-.11.65-.07 1.07.81-.04 1.7-.33 2.5-.18 0 .34.06.58.19.89l.32.02c.39.02.73.13 1.1.44.1.07.21.13.34.13.09 0 .18-.03.25-.08l.16-.12c.36-.3.6-.7 1.1-.75.24-.16.5-.26.73-.33 0 .26-.03.7.2.9.22.17.38.26.63.37.33-.22 1.34-.76 1.8-.37.16.13.27.37.41.54h.44c.43 0 .83-.16 1.06-.53.17-.45.26-.82.01-1.25-1.58-1.93.49-4.93-1.61-6.69l3.1-.19c-.82-1.06-1.36-1.82-2.59-2.51l-1.09-.54c-.6-.17-.82-.32-1.28-.7l-.1-.22c-.08-.1-.17-.19-.26-.27l-.14-.12c-.12-.51-.14-.62.04-.8.98.3 2.07.27 3.08.36-.37-.65-.68-1-1.13-1.57-.64-.81-1.34-1.59-2.39-1.83h-1.32c-1.06 0-2.16.01-3.1-.56-.95-1.22-.88-2.9-1.99-4.05-.17-.27-.39-.52-.63-.8 1.99 0 3.96-.19 5.28-.92.87-.56 1.97-1.48 2.4-2.39.2-.53.21-1.24.21-1.99-.18-.76-.56-1.58-1.29-1.99-.45-.25-.85-.53-1.31-.73a.96.96 0 0 1-.34-.1l-.18-.07-.13-.02c-1.13-.55-2.41-.74-3.55-1.3-1.03-.64-1.62-1.4-1.81-2.61-.47.14-.57.17-.92.5l-.3.27c-.2.52-.43 1.06-.43 1.63-.76.39-1.63.68-2.22 1.33-.48.41-.87.91-1.26 1.39.52.02 1.04.06 1.56.06s1.11-.04 1.65-.23c.56-.17.92-.74 1.54-.74h.17c.2 0 .34.07.51.19.14 0 .68.01.66.25l-.11.07-.16.1c-.58.33-.61.39-1.13.91.8.02.74 0 1.42.26.33.11.63.24.63.24l.63.18c.19-.36.24-.54.66-.72.19-.16.62-.38.9-.38h1.11c.41 0 .75.21 1.12.38.46.4.68.95.9 1.5 0 .69 0 1.31-.46 1.89-.84.87-1.66 1.09-2.87 1.29-.82 0-1.66.03-2.44-.19-5.72-1.64-11.44-.91-17.38.75-5.33 1.96-11.13 3.52-16.75 1.65-.64-.36-1.27-.54-1.98-.74h-.61c-.03 2.39-.25 4.79-1.33 6.98-1.21 1.64-.8 3.92-2.2 5.53-.26.59-.85.9-1.33 1.3-.16.12-.32.24-.48.35-.85.58-1.11.77-1.48 1.3l-.13.05-.2.07zm-28.3-22.36v.24c-.22.43-.53.72-.89 1.02h-.28c-.45 0-.8.08-1.02.52.01.14.04.25.09.37l.1.22s.04.09.04.15c0 .09-.01.18-.03.28l-.06.25c-.02.1-.01.19 0 .28.27.38.49.44.93.44h1.08c.22-.16.61-.36.9-.36.59 0 1 .13 1.57.37l1.1.92c.17.3.27.64.45.94l.22.56c-.01.53-.18 1.05-.44 1.51-.28.66-.44.81-1.05 1.13l.48.64c.17.21.34.4.55.58.95 1.17 2.07 1.67 3.5 2.01.81-.02 2.18-.71 2.67.19.06.07.14.14.2.2l.09.14c.05.07.12.14.21.23-.46.18-.95.23-1.4.41-.07 0-.13.01-.21.03l-.25.06-.52.11c.21.42.45 1.11.78 1.39 1.08 1.09 2.38 1.82 3.93 2.01h1.45c-.12-.29-.23-.59-.39-.87-.41-.88-.37-1.9-.89-2.77-.94-1.58-1.5-3.49-1.32-5.34-1.35-1.09-2.94-1.91-4.17-3.13-.94-.78-1.93-1.59-2.65-2.59-.65-.72-1.1-1.47-1.32-2.39-.2-.98-.07-1.65.22-2.61.19-.75.86-1.27 1.1-2.05 0-.71-.17-1.48-1.04-1.57l-.73.51c0-.46-.16-1.02-.63-1.25-.68-.18-1.28-.17-1.96 0-.24.24-.41.54-.41.88 0 .38.22.74.18 1.14-.33 0-.66-.04-.99-.04-.37 0-.61.05-.93.2-.13.44-.36.5-.7.76-.37 0-.61.29-.78.58l-.09.16c-.24.27-.15.78.01 1.05.21.34.73.4 1.07.53.7 0 1.33.19 1.79.76.23.39.34.75.44 1.19m26.53.36-.18.15c-.17.14-.32.21-.47.23-.95-.39-.95-.89-1.4-1.66-.4-.39.13-.8.46-1 1.08-.17 1.93-.18 3.09-.18.42-.2.71-.58 1.14-.7 0 .44-.24.85-.56 1.27l-.31.4c-.09.27-.45.37-.69.41-.16.08-.29.09-.46.07l-.4-.07-.22 1.09zm-11.22 4.51c.19-.18.41-.28.66-.35v.11l.12.25.17.23c.1.13.15.26.15.37-.12.1-.33.3-.4.44-.37.68-.42 1.15-.3 1.62.08.33.51 1.45.7 1.8-.04.41-.44.62-.44 1.19-.68-.61-.85-.98-1.18-2.09-.43-1.09-.44-2.36.19-3.28l.23-.13.1-.16zm4.95-10.69c2.51.73 3.91-.51 6.02.05.42.37.68.88.86 1.37-.44 0-.88-.19-1.54-.19-.44 0-.84 0-1.31.19-.7.01-1.59.35-2.24.18-1.08-.19-1.54-.54-1.79-1.6m.03 5.39-.03-.16c-.34-.11-.64-.13-1-.13-.83-.25-.84-1.47-.98-2.16.74.58 1.47.97 2.48.79.76.19 1.25.01 2.03.4l-.45 1.12c-.03.62-.39 1.11-1.06 1.13h-.29c-.23-.27-.62-.63-.69-.99m9.45 10.18c.05-.44.48-.88.65-1.31.22-.93.02-1.88-.23-2.78l.93-.39c.33.32.51.65.7 1.15.43 1.5-.41 3.05-1.36 4.29-.3-.27-.5-.61-.7-.96m-7.15 6.23c.05-.17.1-.35.1-.58h.97v1.23c.18 0 .37.05.6-.12.73-.41 1.29-.93 1.74-1.63v-.55c.32-.53.49-.7 1.14-.59.99-.73 1.32-1.71 1.76-2.77l.7 1.16c-.25 1.49-1.02 2.36-2.22 3.35-.58.49-.96 1.17-1.54 1.67-.9.55-1.59 1.1-2.67 1.29-.47 0-.91-.19-1.34-.37-.55-.45-1.17-.81-1.72-1.25l-.14-.26-.12-.11c-.16-.14-.19-.21-.24-.41-.17-.12-.24-.21-.35-.4l-.14-.26c-.15-.26-.32-.47-.59-.63-.06-.1-.13-.2-.2-.29l-.24-.3c-.18-.23-.33-.45-.44-.71-.05-.05-.09-.09-.13-.14l-.09-.14c-.05-.08-.13-.18-.22-.27-.24-.91 0-1.58.49-2.3.2.7.46 1.67.89 2.23l.17.17.45.54.21-.55c.22.1.4.22.58.39l.19.21c.05.06.11.11.17.16.1.19.12.32.12.58 0 .2 0 .34.1.53.7.78.86 1.18 1.87 1.66l.16-.54zm-.32-12.01-.32-.32c-.22-.23-.33-.4-.35-.73-.27-.49-.15-.79.24-1.15 1.45 0 2.29.05 3.58.57 0 .77-.54.96-.9 1.52-.09.09-.15.22-.15.34 0 .13.06.25.15.35.3.45.77.34 1.29.34.75-.36.97-1.49 1.31-2.2.61 0 1.48-.16 1.97-.54.44-.58.64-1.44.64-2.14.1-.32.11-.51.11-.78 0-.3.03-.52.17-.76l.3.25c.24.2.44.42.6.69 0 2.55-.19 3.74-2.9 4.66-.15.23-.17.36-.17.62-.35.66-.65 1.12-1.37 1.41l-.05.28c-.02.12-.02.28-.02.43 0 .38 0 .62-.18.97-.08.09-.13.19-.15.32v.16c0 .75-.65 1.37-.23 2.19v1.13c-.28.63-.94.95-1.57 1.13-.52.21-1.21.18-1.77.18-.67 0-1.57-.38-2.02-.93-.65-.74-.02-1.73-.22-2.59-.25-1.09-.47-2.2-.66-3.3-.72-.64-1.08-1.3-1.32-2.23-.21-.12-.44-.19-.64-.33-.98-.24-1.59-1.03-2-1.87-.41-.7-.24-1.62-.44-2.4.24-.51.71-.85 1.15-1.18.19.75.05 1.34.04 2.09.52 1.3.9 2.27 2.5 2.55.29.05.55.1.8.2 0 .73.01 1.64 1.07 2.18.4.16 1.01.03 1.27-.35l.14-.11c.06-.05.12-.11.22-.23l-.43-.36c.13.09.23 0 .3-.07m2.32 7.32.09-.63c-.41-.15-.74-.2-1.2-.2s-.92.04-1.37.04l-.18.11-.4.23c.39.61.54.69 1.21.69.56 0 1.39.16 1.85-.25m-2.29-2.15h2.21c.22-.31.4-.68.4-1.06 0-.61.17-.95.03-1.61-.39-.09-.74-.23-1.11-.4-.06-.03-.1-.07-.17-.11l-.14-.1c-.08-.08-.16-.19-.22-.27-.67.36-1.31.66-2.05.85v1.96c.17.21.25.49.39.73h.67zm34.02 6.22c.8-.33 1.66-.43 2.5-.58-.3.45-.75.68-1.16 1.03-1.33 1.29-2.99 2.17-4.24 3.56v-.66c.44-1.62 1.29-2.77 2.9-3.35m14.93 1.62c-.18-.18-.21-.24-.21-.35 1.11.36 1.7.33 2.95.23 1.01-.07 1.8-.11 2.62.36.12.19.25.3.4.43l.2.19s.07.1.07.19l-2.91.18c-.93-.15-2.16-.16-2.86-.89l-.08-.21-.19-.11z"/><path class="cls-1" d="M305.75 150c0-82.84-68.28-150-152.52-150S.71 67.16.71 150c0 16.48 2.69 32.34 7.69 47.18-.05.2-.08.42-.11.67-.14 1.41.45 2.23 1.34 2.82C30.76 258.58 87.08 300 153.23 300s122.45-41.4 143.59-99.28c.92-.59 1.54-1.43 1.4-2.87-.03-.28-.07-.52-.13-.75 4.98-14.81 7.67-30.65 7.67-47.1M14.49 203.96l-.43-1.07c.14.11.27.23.38.37.14.16.13.39.05.7m1.24 1.78c1.38-3.75-.52-4.27-4.19-5.84-2.53-1.08-1.62-2.68-.06-3.73 3.13-2.15 1.46-4.54-.16-7.63-.7-1.34-.92-2.21-.28-3.02 1.16-1.43 3.9-.08 5.54.34 6.13 1.56 4.31-2.94 7.13-3.71 1.45-.4 2.45 2.06 3.18 3.05 2.44 3.29 3.83 1.99 5.44 1.15.8.98 1.96 1.66 3.27 1.85-.23 1.38.76 2.56 1.7 3.75.28 1.04.7 2.04 1.48 2.8-.23.9-3.27 1.74-3.04 5.14.27 4.1 6.29 4.53 7.3 7.27.2.52-.1 1.04-.51 1.65l-15.34-8.96 13.98 11.92c-.06.64.04 1.36.38 2.2.41 1.03 1.15 1.76 2.02 2.32-.97.78-1.62 1.88-1.83 3.1-.87.52-1.5 1.5-1.81 2.62-.55-.81.1-2.01-1.59-3.4-3.21-2.65-8.19.77-10.67-1.15-2.41-1.85.32-4.57-2.13-6.59-.87-.73-1.91-1.02-2.89-1.13-2.68-.34-8.73.93-6.93-3.99m3.57-37.07c-.39-1.06-1.14-1.82-1.92-2.41-2.14-1.61-8.03-3.49-3.97-6.85 3.1-2.57 1.71-3.96-.66-7.11-1.65-2.19-.03-3.12 1.84-3.27 3.81-.32 3.57-3.21 3.74-6.67.07-1.52.32-2.38 1.29-2.75 1.73-.67 3.43 1.85 4.63 3.01 4.51 4.36 5.22-.43 8.06.3 1.46.36 1.08 2.99 1.22 4.19.66 6.13 4.56 1.99 6.67 4.81 1.58 2.11-2.43 6.12-1.12 9.68 1.1 2.95 4.62 1.36 5.57 4.21.98 2.95-3.98 6.37-2.55 10.25.19.49.38.86.58 1.14-.41.72-.68 1.68-.74 2.86-.03.76-.02 1.57-.09 2.36-.06.78-.2 1.35-.39 1.76.07-.34.1-.68.1-1.03 0-2.82-2.32-5.1-5.19-5.1-.26 0-.53.02-.79.06l-8.66-18.29 5.93 19.59a5.062 5.062 0 0 0-1.66 3.74c0 .61.11 1.2.31 1.74-.44.25-.91.5-1.45.7-1.05.36-2.48-2.3-2.96-3-.19-.28-.39-.54-.58-.76l-.06-.16c-1.44-3.87-7.47-3.36-8.65-6.24-1.14-2.79 2.61-3.81 1.51-6.76m242.55-2.86c.95-2.85 4.48-1.26 5.57-4.21 1.32-3.57-2.69-7.58-1.12-9.68 2.11-2.82 6.01 1.32 6.67-4.81.13-1.2-.25-3.83 1.21-4.19 2.83-.73 3.55 4.06 8.06-.3 1.2-1.17 2.89-3.68 4.62-3.01.97.37 1.22 1.23 1.29 2.75.17 3.46-.08 6.35 3.74 6.67 1.89.16 3.49 1.08 1.84 3.27-2.37 3.15-3.76 4.55-.65 7.11 4.06 3.36-1.83 5.24-3.97 6.85-.78.59-1.53 1.35-1.92 2.41-1.1 2.95 2.65 3.97 1.51 6.76-1.17 2.88-7.21 2.37-8.65 6.24l-.06.16c-.2.22-.39.48-.58.76-.47.7-1.91 3.36-2.95 3-.55-.2-1.01-.45-1.46-.7a5.046 5.046 0 0 0-1.35-5.48l5.92-19.59-8.66 18.29c-.26-.04-.52-.06-.79-.06-2.87 0-5.19 2.28-5.19 5.1 0 .36.04.7.1 1.03-.19-.4-.32-.97-.39-1.76-.06-.79-.05-1.6-.09-2.36-.06-1.18-.32-2.14-.74-2.86.2-.28.4-.65.57-1.14 1.44-3.88-3.52-7.3-2.54-10.25m11.5 17.33c0 1.75-1.44 3.17-3.22 3.17s-3.22-1.42-3.22-3.17 1.44-3.16 3.22-3.16 3.22 1.42 3.22 3.16m-6.66 3.83c.67.59 1.51 1 2.43 1.18.21.51.08 1.19-.59 2.08-2.38 3.16-3.77 4.55-.67 7.12 4.06 3.36-1.82 5.23-3.97 6.85-.79.6-1.54 1.35-1.93 2.41-1.09 2.95 2.65 3.97 1.52 6.76-.38.92-1.25 1.5-2.31 1.98l-.18-.06c-2.78-.72-5.62.89-6.36 3.62a4.95 4.95 0 0 0-.17 1.7c-.68-.46-1.53-.72-2.95-.51-1.59.24-2.55 1.26-3.28 2.5a5.09 5.09 0 0 0-1.31-1.22l7.58-24.3-9.74 20.21-1.36 3.29c-.9.11-1.75.46-2.47 1-1.66-1.25-3.41-.17-4.29-1.59-.55-1.92-.7-3.48.58-3.89.68-.21 1.39-.56 1.97-2.1 1.43-3.88-3.53-7.3-2.55-10.25.95-2.85 4.48-1.27 5.57-4.22 1.31-3.56-2.7-7.57-1.13-9.68 2.11-2.82 6.01 1.31 6.68-4.81.13-1.21-.25-3.83 1.21-4.2 2.83-.71 3.56 4.08 8.06-.3 1.2-1.16 2.9-3.68 4.62-3.01.97.38 1.22 1.23 1.3 2.74.17 3.48-.08 6.37 3.74 6.68m-3.94 34.08c-.47 1.69-2.23 2.69-3.95 2.24-1.72-.46-2.74-2.2-2.28-3.88.47-1.69 2.23-2.7 3.96-2.24 1.71.45 2.73 2.2 2.27 3.88m-15.57 5.43c-.46 1.69-2.23 2.7-3.95 2.24-1.72-.45-2.74-2.18-2.28-3.88.46-1.69 2.23-2.7 3.95-2.24 1.71.45 2.74 2.19 2.28 3.88m-8.11.6c-1.75 2.34-2.4 3.68.27 5.89 3.73 3.1-.95 4.93-3.39 6.46a5.11 5.11 0 0 0-2.98 3.37c-.59 2.19.35 4.41 2.16 5.59-.03.19-.09.39-.18.6-.97-.53-2.33-.62-4.17.28-.76.37-3.36 1.97-4.08 1.13-1.04-1.19-1.28-2.51-2.72-3.19l3.75-18.04-7.71 17.47a5.089 5.089 0 0 0-1.77-1.64c-2.48-1.4-5.66-.58-7.09 1.87-.12.2-.23.41-.32.64-.07-.49-.21-.97-.39-1.45.06-.22.14-.46.23-.73.28-.74.64-1.47.93-2.18 1.23-2.96.39-5.08-1.7-5.54 1.38-.51 3.05-.56 3.74-2.43 1.32-3.55-2.69-7.57-1.12-9.68 2.11-2.82 6.01 1.31 6.68-4.81.13-1.2-.25-3.83 1.21-4.2 2.84-.71 3.55 4.08 8.06-.29 1.21-1.16 2.9-3.68 4.63-3.01.97.38 1.22 1.24 1.29 2.75.17 3.47-.07 6.36 3.74 6.68.56.05 1.09.16 1.52.35-.28.42-.48.89-.63 1.41-.25.93-.22 1.87.03 2.74m-.25 13.99c1.71.45 2.75 2.18 2.28 3.88-.46 1.69-2.22 2.69-3.95 2.24-1.72-.45-2.74-2.18-2.28-3.88.46-1.69 2.23-2.7 3.95-2.24m-20.35 9.92c-.89 1.51-2.86 2.04-4.41 1.15a3.138 3.138 0 0 1-1.18-4.33c.89-1.5 2.86-2.03 4.4-1.15 1.54.88 2.07 2.82 1.18 4.34m-11.27 9.2c2.24 4.74-3.9 3.98-6.54 4.55-.97.21-1.97.59-2.79 1.39-.73.7-1.21 1.49-1.47 2.41-.1.42-.16.83-.17 1.24-.76-.45-1.85-.61-3.32-.3-.84.17-3.76 1.05-4.24.06-.85-1.76-.48-3.37-2.87-4.44l12.43-12.95L182.5 264a5.126 5.126 0 0 0-3.68-3.58 5.192 5.192 0 0 0-3.51.29c.42-2.76-.8-6 .79-7.67 2.08-2.19 4.6.72 6.86-1.5 2.72-2.68.81-7.99 3.15-9.24 3.12-1.68 4.88 3.69 8.11-1.59.64-1.04 1.42-3.57 2.9-3.3 2.88.53 1.47 5.17 7.43 3.09 1.59-.56 4.21-2.13 5.48-.81.71.75.57 1.63-.01 3.03-1.34 3.21-2.79 5.71.48 7.59a5.04 5.04 0 0 0 1.49 2.79c-.22.33-.6.64-1.18.95-3.52 1.88-5.37 2.57-3.66 6.18m-2.66 10.49c-.47 1.69-2.23 2.7-3.95 2.25-1.73-.46-2.74-2.2-2.28-3.89.46-1.69 2.22-2.69 3.94-2.24 1.73.46 2.75 2.19 2.29 3.88m-31.63-8.44c-1.24 1.22-1.82-.3-3.95 1.61l-1.64-10.36c1.81-1.93 3.03-7.47 6.6-6.85 2.42.43 3.72 2.12 4.32 4.26-.58-.41-2.36-.2-3.27 1.05-2.49 3.4.05 8.23-2.05 10.3m-.51 2.15c-.03.16-.05.32-.07.47-.24-.16-.52-.29-.82-.41.28.02.57.02.89-.06m-38.8-2.15c-2.11-2.07.43-6.9-2.05-10.3-.91-1.24-2.62-1.75-3.21-1.34.39-1.36 1.69-3.54 4.11-3.97 3.57-.62 4.88 4.87 6.71 6.77l-1.71 10.36c-2.04-1.83-2.62-.31-3.86-1.53m1.39 2.2c-.31.12-.59.25-.83.41-.01-.15-.03-.31-.07-.47.33.08.62.08.9.06m-14.28.65c-2.38 1.07-2.02 2.68-2.86 4.44-.47.99-3.41.1-4.24-.06-1.47-.31-2.56-.14-3.33.3 0-.41-.06-.82-.18-1.24-.24-.92-.74-1.7-1.46-2.41-.8-.8-1.82-1.18-2.79-1.39-2.64-.57-8.78.18-6.54-4.55 1.71-3.62-.15-4.3-3.66-6.18-.58-.31-.96-.62-1.18-.95.8-.76 1.3-1.75 1.49-2.79 3.27-1.88 1.81-4.38.48-7.59-.58-1.41-.73-2.29-.01-3.03 1.28-1.32 3.9.25 5.48.81 5.96 2.08 4.56-2.56 7.44-3.09 1.48-.27 2.27 2.26 2.9 3.3 3.24 5.28 4.99-.1 8.12 1.59 2.33 1.25.41 6.56 3.13 9.24 2.27 2.22 4.79-.69 6.87 1.5 1.59 1.67.37 4.91.8 7.67-1.06-.48-2.3-.62-3.53-.29a5.147 5.147 0 0 0-3.67 3.58l-15.69-11.81 12.42 12.95zm-14.79 7.84c-1.72.45-3.48-.56-3.94-2.25-.46-1.69.55-3.42 2.27-3.88 1.72-.45 3.49.55 3.94 2.24.46 1.69-.55 3.43-2.28 3.89m-17.69-27.95c-.73.41-1.33.99-1.76 1.64l-7.71-17.47 3.75 18.04c-1.45.69-1.69 2-2.72 3.19-.73.84-3.32-.76-4.08-1.13-1.83-.9-3.2-.81-4.17-.28-.09-.21-.14-.41-.18-.6 1.81-1.18 2.76-3.4 2.16-5.59a5.146 5.146 0 0 0-2.97-3.37c-2.45-1.53-7.13-3.36-3.4-6.46 2.67-2.21 2.02-3.54.26-5.89.26-.86.29-1.81.03-2.74-.14-.51-.36-.99-.63-1.41.43-.19.96-.3 1.51-.35 3.81-.32 3.57-3.21 3.74-6.68.07-1.51.32-2.37 1.29-2.75 1.73-.67 3.42 1.85 4.62 3.01 4.51 4.37 5.22-.42 8.06.29 1.46.37 1.08 3 1.21 4.2.66 6.13 4.57 1.99 6.67 4.81 1.57 2.11-2.44 6.13-1.12 9.68.69 1.87 2.36 1.92 3.73 2.43-2.09.47-2.93 2.58-1.7 5.54.3.71.65 1.45.93 2.18.1.27.18.51.24.73-.18.47-.32.95-.4 1.45-.08-.22-.19-.43-.31-.64-1.44-2.45-4.61-3.27-7.1-1.87m4.21 7.16c-1.54.89-3.51.36-4.4-1.15-.89-1.51-.36-3.46 1.18-4.34 1.54-.87 3.52-.35 4.41 1.15.89 1.52.36 3.47-1.19 4.33m-23.09-4.96c-1.72.45-3.49-.55-3.95-2.24-.46-1.69.55-3.43 2.28-3.88 1.72-.46 3.49.55 3.95 2.24.47 1.69-.56 3.43-2.27 3.88m1.2-32.29c-.69-.48-1.34-.37-1.73-1.43-.82-2.2 2.21-4.88 2.73-7.92 2.43 3.44 5.07 6.72 7.92 9.83-.7-.61-1.37-1.47-2.15-2.25-3.07-3.1-6.23-2.2-6.77 1.77m24.87 14.51c3.72 2.63 7.63 5.01 11.72 7.12-.48.4-.91.92-1.25 1.5-1.39 2.39-3.48.87-5.9-.04-.2-.07-.38-.14-.56-.19-1.58-2.57-4.58-1.78-5.1-3.16-.53-1.46.43-3.3 1.1-5.22m17.97 10.08c1.08.47 2.19.92 3.29 1.35-.41.18-.85.36-1.35.49-.68.18-1.41-.87-1.95-1.85m9.52 3.54c2.71.85 5.48 1.6 8.3 2.22-2.41.78-3.97 3.46-5.04 5.43-.63.09-1.17.09-1.54-.28-1.54-1.5-.79-4.9-1.73-7.37m5.25 19.23c1.72-.45 3.49.55 3.95 2.24.46 1.69-.56 3.43-2.28 3.88-1.72.46-3.49-.54-3.95-2.23-.46-1.7.56-3.44 2.28-3.89m7.97-16.04c5.55.96 11.27 1.45 17.1 1.45s11.59-.49 17.17-1.46c-1.77 1.37-2.52 3.66-3.48 5.24h-7.37l-.08-1.22h-12.48l-.08 1.22h-7.31c-.97-1.57-1.7-3.84-3.46-5.23m5.12 6.97h5.53l-2.65 37.02-8.5-1.19 5.63-35.83zm7.52-1.23h3.49l1.07 12.18 1.05-12.18h3.33l3.13 40.15h-6.46l-1.05-12.23-1.07 12.23h-6.62l3.13-40.15zm10.92 1.23h5.54l5.63 35.83-8.5 1.2-2.66-37.03zm15.61-7.93c2.81-.63 5.59-1.38 8.32-2.24-.96 2.48-.19 5.88-1.74 7.39-.37.37-.9.37-1.54.28-1.06-1.97-2.63-4.67-5.04-5.43m-.89 19.24c.47-1.69 2.23-2.7 3.95-2.24 1.72.45 2.74 2.19 2.28 3.89-.46 1.69-2.23 2.69-3.94 2.23-1.72-.45-2.74-2.19-2.29-3.88m15.4-23.66c1.12-.44 2.24-.89 3.34-1.38-.55 1-1.28 2.06-1.97 1.88-.51-.13-.95-.32-1.37-.5m9.56-4.32c4.08-2.11 8-4.49 11.72-7.12.66 1.92 1.64 3.77 1.1 5.24-.51 1.39-3.52.59-5.08 3.16-.19.06-.38.12-.57.19-2.42.91-4.51 2.43-5.9.04-.34-.58-.78-1.11-1.27-1.52m27.48-20.95c2.92-3.17 5.63-6.54 8.11-10.06.49 3.06 3.56 5.76 2.73 7.98-.39 1.06-1.03.95-1.71 1.43-.55-3.97-3.71-4.87-6.78-1.77-.86.86-1.58 1.82-2.35 2.42m11.58-15.36c.75-1.22 1.47-2.47 2.16-3.72.28.91.4 1.79.13 2.53-.27.73-1.22.86-2.29 1.19m6.75-13.26c.36-.86.71-1.73 1.04-2.61-.07 1.14-.27 2.47-1.04 2.61m-3.91.58c-.46.26-.92.67-1.4 1.31-.74 1-.87 2.07-.71 3.17-4.28 8.48-9.83 16.22-16.4 23.02-2.24-.94-4.77-.31-5.01 3.49-.02.27-.02.79-.04 1.36-1.08.97-2.18 1.9-3.31 2.82-1.03.07-2 .35-3.05 1.76-.26.34-.44.68-.57 1.05-16.02 11.84-35.95 18.85-57.54 18.85s-41.46-6.99-57.47-18.8c-.12-.37-.31-.74-.58-1.09-1.07-1.43-2.05-1.71-3.11-1.76-1.1-.9-2.18-1.82-3.25-2.77-.02-.6-.02-1.13-.05-1.41-.24-3.82-2.8-4.44-5.05-3.48a94.397 94.397 0 0 1-16.37-22.96c.17-1.11.06-2.21-.7-3.24-.51-.67-.99-1.09-1.47-1.35A92.726 92.726 0 0 1 57.22 150c0-52.1 42.94-94.33 95.92-94.33S249.06 97.9 249.06 150c0 13.32-2.81 26-7.89 37.5M67.94 200.16c-1.05-.31-1.97-.46-2.23-1.17-.28-.73-.16-1.58.11-2.48.68 1.23 1.38 2.44 2.12 3.64m-6.76-13.25c-.68-.12-.89-1.34-.97-2.44.32.82.63 1.63.97 2.44m4.16 2.94c1.57 2.11-2.44 6.11-1.12 9.68 1.1 2.95 4.62 1.36 5.58 4.22.98 2.95-3.99 6.37-2.55 10.25.57 1.54 1.28 1.88 1.96 2.1 1.29.41 1.13 1.97.58 3.89-.87 1.42-2.63.34-4.29 1.59-.72-.53-1.56-.88-2.46-1l-1.36-3.29-9.74-20.21 7.57 24.3c-.51.33-.96.74-1.31 1.22-.73-1.24-1.69-2.27-3.28-2.5-1.41-.21-2.26.05-2.95.51a4.94 4.94 0 0 0-.16-1.7c-.74-2.73-3.59-4.34-6.36-3.62l-.18.06c-1.06-.48-1.95-1.06-2.31-1.98-1.14-2.79 2.6-3.8 1.51-6.76-.39-1.06-1.14-1.81-1.92-2.41-2.15-1.62-8.03-3.48-3.97-6.85 3.1-2.57 1.72-3.96-.66-7.12-.67-.9-.8-1.58-.59-2.08.91-.18 1.76-.6 2.43-1.18 3.82-.31 3.57-3.2 3.74-6.68.08-1.51.32-2.36 1.3-2.74 1.72-.68 3.42 1.85 4.62 3.01 4.52 4.37 5.23-.42 8.07.3 1.46.37 1.08 3 1.2 4.2.67 6.12 4.57 1.99 6.68 4.81m-2.15 38.85c-1.72.46-3.48-.55-3.94-2.24-.47-1.69.55-3.43 2.27-3.88 1.72-.45 3.48.55 3.94 2.24.46 1.69-.55 3.43-2.28 3.88m-15.57-5.42c-1.72.45-3.49-.55-3.95-2.24-.46-1.69.56-3.43 2.28-3.88 1.72-.45 3.48.55 3.95 2.24.46 1.69-.56 3.43-2.28 3.88m-11.33-36.98c-1.77 0-3.22-1.42-3.22-3.17s1.45-3.16 3.22-3.16 3.22 1.42 3.22 3.16-1.44 3.17-3.22 3.17m-18.75 24.86c2.47.39 5.39-.36 6.92.89 1.3 1.07-1.12 4.09 2.18 6.64 3.34 2.58 8.33-.77 10.61 1.11.48.39.65.54.63 1.06-.05 1.33.56 2.19 1.47 2.75-.9 1.44-3.01.93-5.18.89-4.67-.06-6.17 3.15-3.01 6.57.52.57 1.12 1.13 1.63 1.73 1.89 2.19.98 2.9.09 3.95a147.041 147.041 0 0 1-15.33-25.6m21.97 33.85c-.6-.7-1.19-1.39-1.77-2.09.6.12 1.15.31 1.61.62.32.21.24.75.17 1.47m1.74.61c.35-3.97-1.63-3.99-5.59-4.57-2.73-.4-2.26-2.17-1.05-3.59 2.48-2.88.23-4.75-2.15-7.33-1.04-1.12-1.48-1.9-1.06-2.84.74-1.67 3.74-1.08 5.43-1.08 5.21-.04 4.15-2.68 5-4.43.84 2.59 3.6 4.1 6.3 3.39.71-.18 1.34-.51 1.88-.93 1.72-.41 2.39-2.91 4.78-2.55 1.17.18 1.82 1.39 2.51 2.82-.19.79-.19 1.64.04 2.47.75 2.72 3.59 4.34 6.37 3.61 1.2-.32 2.18-1.02 2.86-1.93.31.49.56.99.67 1.51.19.98-3.29 1.69-3.05 5.33.12 1.77 1.31 2.86 2.72 3.74-.63.19-1.2.49-1.69.88l-17.18-5.5 15.32 8.47c-.16.75-.14 1.55.08 2.34.74 2.73 3.59 4.34 6.39 3.6.05.18.12.35.19.53.12.3.27.57.44.83-.35.76-.48 1.69-.39 2.62.11 1.17-.31 1.82-1.01 2.24-.93-.58-.45-2.01-2.57-2.98-3.8-1.75-7.7 2.82-10.6 1.6-2.82-1.18-.89-4.5-3.8-5.83-1.04-.48-2.11-.49-3.09-.36-2.67.35-8.19 3.12-7.74-2.09m25.55 24a148.654 148.654 0 0 1-22.4-19.24c2.51-.22 5.19-1.72 7.01-.89 1.53.7 0 4.23 3.85 5.85 3.92 1.65 7.85-2.87 10.55-1.63.55.26.76.36.89.87.13.53.33.96.61 1.29-.67.15-1.39.27-2.11.46-4.52 1.13-5.12 4.6-1.18 7.1.65.41 1.38.81 2.03 1.26 3.07 2.09 1.09 3 .75 4.93m5.54 3.69c1.01-.14 2.02-.24 2.87.06.48.17.44 1.08.69 2.14-1.2-.71-2.39-1.45-3.56-2.2m5.26 1.59c-.71-3.93-2.63-3.44-6.6-2.99-2.75.31-2.76-1.53-1.96-3.21 1.62-3.41-1.04-4.64-4.01-6.52-1.29-.83-1.93-1.47-1.77-2.48.28-1.8 3.34-1.99 4.96-2.42 6.1-1.67 2.24-4.67 4.29-6.73 1.06-1.06 3.18.58 4.3 1.07 5.73 2.49 4.04-2.9 7.58-3.29.44-.04.85.08 1.25.29-.18 1.12.01 2.29.63 3.34 1.3 2.23 4.04 3.11 6.39 2.21.16.02.33.02.48.01 1.26 1.4 3.92 1.88 5.04 3.41.58.79-2.03 2.73-.66 5.73l-16.59-.74 19.72 4.56a4.971 4.971 0 0 0-.62 4.05c.74 2.72 3.58 4.34 6.36 3.61a5.2 5.2 0 0 0 2.21-1.22c.12.14.24.25.38.39.05.19.11.38.18.56.4 1.08.19 1.81-.35 2.38-3.25 1.16-1.92-1.44-5.07-1.99-4.14-.71-6.7 4.68-9.82 4.25-3.02-.43-2.04-4.11-5.19-4.66-1.12-.2-2.18.06-3.09.44-2.49 1.01-7.08 5.09-8.02-.05m32.78 15.66a150.32 150.32 0 0 1-28.71-11.78c2.46-.8 4.72-3.09 6.76-2.73 1.67.28 1.12 4.09 5.26 4.68 4.21.6 6.83-4.77 9.76-4.26.6.11.84.16 1.08.62.41.76.97 1.21 1.6 1.45-.28.14-.55.28-.82.42-4.07 2.24-3.74 5.75.73 7.16.74.23 1.54.44 2.29.7 3 1.05 2.22 2.22 2.05 3.74m8.82 2.3c.09 0 .18 0 .27.01.1 0 .18.05.26.11l-.53-.12zm2.98.87c-1.72-3.6-3.45-2.65-7.17-1.21-2.57.99-3.06-.77-2.73-2.59.67-3.71-2.22-4.23-5.58-5.28-1.47-.47-2.25-.92-2.37-1.95-.21-1.81 2.71-2.76 4.16-3.61 5.46-3.15.94-5.08 2.37-7.59.74-1.29 3.22-.25 4.43-.06 6.19.96 3.14-3.83 6.46-5.1.69-.26 1.4-.08 2.18.32.76 2.7 3.59 4.29 6.35 3.56.33-.09.65-.21.95-.35 2.89-.45 2.37-4 5.32-4.17.2 0 .39 0 .59.03l-1.93 12.12-16.67 3.64 16.18-.59-1.34 8.38c-1.13.12-2.67 1.23-3.44 1.82-2.14 1.62-5.51 7.34-7.76 2.61m30.98 2.95c-8.29 0-16.41-.66-24.32-1.95 1.66-1.72 3.14-3.75 4.72-3.88.07 0 .15-.02.23-.03l10.13 1.25-.12 1.76h18.73l-.12-1.75 10.16-1.26c.08.02.16.03.24.04 1.59.13 3.06 2.15 4.72 3.87-7.93 1.29-16.07 1.96-24.37 1.96m33.5-3.71c.08-.06.16-.09.24-.1h.22l-.46.1zm7.43-3.04c.33 1.82-.16 3.59-2.74 2.59-3.71-1.44-5.44-2.39-7.16 1.21-2.25 4.73-5.62-.99-7.76-2.61-.79-.59-2.35-1.73-3.49-1.83l-1.33-8.38 16.22.59-16.72-3.65-1.92-12.1c.22-.03.43-.04.63-.03 2.97.16 2.43 3.72 5.33 4.17.29.15.61.27.95.35 2.75.73 5.59-.86 6.35-3.56.77-.4 1.5-.58 2.18-.32 3.31 1.27.26 6.05 6.46 5.1 1.21-.19 3.69-1.23 4.43.06 1.44 2.51-3.09 4.43 2.38 7.59 1.46.84 4.36 1.8 4.15 3.61-.11 1.03-.9 1.48-2.37 1.95-3.37 1.06-6.26 1.58-5.59 5.28m1.91.62c-.18-1.52-.94-2.68 2.04-3.73.76-.27 1.56-.47 2.31-.7 4.46-1.41 4.79-4.91.72-7.16-.27-.14-.55-.29-.81-.42.62-.24 1.17-.68 1.59-1.45.25-.46.48-.52 1.1-.62 2.93-.5 5.54 4.86 9.75 4.26 4.14-.59 3.59-4.39 5.26-4.68 2.03-.36 4.29 1.91 6.72 2.72-9.03 4.86-18.62 8.83-28.67 11.78m34.48-15.07c.24-1.05.21-1.94.69-2.11.84-.3 1.83-.2 2.83-.07-1.16.74-2.33 1.46-3.52 2.18m6.85-6.78c.8 1.68.79 3.52-1.96 3.21-3.97-.45-5.89-.93-6.6 2.99-.93 5.13-5.52 1.06-8.02.05-.91-.38-1.96-.64-3.09-.44-3.14.55-2.16 4.23-5.19 4.66-3.12.43-5.69-4.96-9.82-4.25-3.15.55-1.83 3.15-5.07 1.99-.54-.57-.75-1.3-.35-2.38.08-.18.13-.37.18-.56.14-.14.25-.25.37-.39.6.56 1.36.99 2.22 1.22 2.77.73 5.61-.89 6.36-3.61.39-1.43.12-2.89-.63-4.05l19.72-4.56-16.6.74c1.38-3-1.22-4.94-.66-5.73 1.12-1.53 3.78-2 5.04-3.41.16 0 .32 0 .49-.01 2.35.9 5.08.01 6.38-2.21.61-1.05.8-2.22.63-3.34.4-.21.8-.33 1.24-.29 3.54.39 1.85 5.78 7.58 3.29 1.12-.49 3.23-2.12 4.29-1.07 2.05 2.06-1.81 5.06 4.29 6.73 1.63.43 4.69.62 4.96 2.42.16 1.01-.48 1.65-1.77 2.48-2.98 1.88-5.64 3.11-4.01 6.52m2.23.89c-.35-1.92-2.29-2.83.77-4.91.66-.45 1.37-.85 2.03-1.26 3.94-2.5 3.34-5.97-1.19-7.1-.71-.18-1.44-.3-2.1-.46.27-.33.48-.76.6-1.29.12-.51.33-.61.9-.87 2.69-1.24 6.62 3.28 10.54 1.63 3.84-1.62 2.31-5.15 3.84-5.85 1.81-.83 4.47.65 6.97.89a149.286 149.286 0 0 1-22.36 19.22m27.29-24.63c-.07-.7-.14-1.21.17-1.42.44-.3.97-.48 1.55-.6-.57.68-1.13 1.35-1.72 2.03m3.85-3.91c-3.95.58-5.93.6-5.59 4.57.45 5.2-5.06 2.43-7.73 2.09-.99-.13-2.06-.11-3.1.36-2.89 1.32-.98 4.64-3.79 5.83-2.9 1.22-6.8-3.35-10.6-1.6-2.12.97-1.64 2.39-2.57 2.98-.7-.42-1.12-1.07-1.01-2.24.08-.93-.04-1.86-.39-2.62.17-.25.32-.53.44-.83.08-.18.14-.36.2-.53 2.8.74 5.64-.87 6.39-3.6.22-.79.23-1.59.07-2.34l15.32-8.47-17.19 5.5c-.48-.39-1.06-.69-1.69-.88 1.4-.88 2.6-1.97 2.71-3.74.24-3.64-3.23-4.35-3.05-5.33.1-.52.34-1.02.67-1.51.67.91 1.66 1.61 2.86 1.93 2.77.73 5.62-.89 6.36-3.61.23-.83.23-1.68.05-2.47.68-1.43 1.34-2.64 2.5-2.82 2.4-.36 3.06 2.14 4.78 2.55.54.42 1.18.75 1.88.93 2.7.71 5.47-.8 6.3-3.39.86 1.75-.21 4.39 5.01 4.43 1.68 0 4.69-.58 5.42 1.08.42.94-.02 1.72-1.06 2.84-2.37 2.57-4.62 4.45-2.15 7.33 1.22 1.42 1.69 3.19-1.05 3.59m2.76-4.31c-.88-1.04-1.75-1.75.12-3.93.52-.6 1.11-1.16 1.63-1.73 3.15-3.42 1.65-6.62-3.01-6.57-2.18.04-4.28.55-5.19-.89.91-.56 1.51-1.43 1.47-2.75-.02-.52.16-.67.63-1.06 2.28-1.88 7.27 1.47 10.62-1.11 3.28-2.54.88-5.56 2.18-6.64 1.5-1.25 4.39-.52 6.85-.89-4.23 9.06-9.37 17.62-15.31 25.57m18.47-32.86c-.07-.27-.07-.48.06-.63.09-.11.19-.21.3-.3l-.37.93zm2.96-3.98c-3.66 1.57-5.57 2.09-4.19 5.84 1.81 4.91-4.25 3.64-6.92 3.99-.98.12-2.01.41-2.89 1.13-2.45 2.02.28 4.74-2.13 6.59-2.48 1.93-7.44-1.49-10.66 1.15-1.69 1.39-1.04 2.59-1.59 3.4-.31-1.12-.94-2.11-1.81-2.62a5.13 5.13 0 0 0-1.83-3.1c.86-.56 1.6-1.29 2.02-2.32.34-.84.43-1.56.38-2.2l13.98-11.92-15.33 8.96c-.41-.61-.71-1.13-.51-1.65 1.02-2.75 7.04-3.17 7.3-7.27.23-3.4-2.81-4.24-3.04-5.14.77-.76 1.2-1.76 1.48-2.8.94-1.19 1.93-2.37 1.7-3.75 1.31-.19 2.48-.87 3.27-1.85 1.6.84 3 2.15 5.44-1.15.73-.99 1.73-3.44 3.18-3.05 2.82.78 1.01 5.28 7.14 3.71 1.63-.42 4.38-1.77 5.53-.34.65.8.43 1.68-.27 3.02-1.61 3.09-3.29 5.48-.16 7.63 1.56 1.06 2.48 2.65-.06 3.73m.51-5.63c-.53-.57-.71-1.34.11-3.05.35-.71.76-1.41 1.12-2.09 2.14-4.1-.15-6.81-4.63-5.56-2.49.69-4.71 2.03-5.88-.46-.61-1.28-1.63-2.32-2.82-2.61 2.22-1.12 5.68-1.67 6.82-4.47 1.56-3.82-2.07-5.26-1.49-6.81 1.01-2.74 7.03-3.17 7.3-7.27.24-3.64-3.23-4.34-3.04-5.32.5-2.65 4.8-4.64 2.58-7.7-2.34-3.22-5.26.33-5.65-4.44-.07-.79-.06-1.6-.09-2.37-.24-4.6-3.59-5.82-6.85-2.53-1.8 1.82-3.04 4.08-5.33 2.49-2.4-1.67-5.83-1.57-6.11 2.88-.05.83.06 3.84-1.04 4.04-2.03.36-3.58-.5-5.37 1.9-2.48 3.31 1.87 7.44.85 10.18-.59 1.56-4.3.37-5.6 4.28-1.33 3.99 3.58 7.44 2.56 10.19-.07.19-.16.35-.25.48-1.31-.75-3.14-.31-4.94 1.51-1.81 1.81-3.05 4.07-5.33 2.48-1.42-.97-3.18-1.35-4.45-.6a95.985 95.985 0 0 0 4.58-29.39c0-53.93-44.46-97.65-99.29-97.65S53.95 96.07 53.95 150c0 10.23 1.59 20.09 4.56 29.37-1.27-.71-2.99-.33-4.38.62-2.29 1.59-3.53-.67-5.33-2.48-1.8-1.82-3.64-2.27-4.95-1.51-.09-.13-.17-.29-.24-.48-1.02-2.75 3.89-6.21 2.57-10.19-1.31-3.91-5.02-2.72-5.6-4.28-1.01-2.74 3.32-6.86.85-10.18-1.79-2.4-3.34-1.54-5.37-1.9-1.1-.2-.98-3.21-1.04-4.04-.28-4.45-3.7-4.55-6.11-2.88-2.29 1.58-3.53-.67-5.34-2.49-3.26-3.29-6.62-2.06-6.85 2.53-.03.77-.03 1.58-.09 2.37-.4 4.77-3.31 1.22-5.66 4.44-2.22 3.06 2.08 5.05 2.59 7.7.18.99-3.29 1.69-3.05 5.32.27 4.1 6.29 4.53 7.3 7.27.58 1.56-3.05 2.99-1.49 6.81 1.15 2.8 4.6 3.35 6.82 4.47-1.19.29-2.21 1.34-2.81 2.61-1.17 2.49-3.4 1.15-5.89.46-4.49-1.25-6.78 1.46-4.64 5.56.36.69.78 1.39 1.12 2.09.84 1.75.64 2.53.08 3.08-4.5-13.98-6.93-28.86-6.93-44.29C4.08 68.99 70.85 3.32 153.23 3.32s149.16 65.67 149.16 146.69c0 15.43-2.43 30.3-6.92 44.26"/><path class="cls-1" d="M99.48 120.32c-.75-5.45-2.18-9.39-3.94-12.2l-.1-.16-.07-.11-.12-.17-.08-.12-.09-.12-.1-.15-.12-.16-.09-.14c-.39-.51-.78-.99-1.19-1.42l-.12-.13-.12-.12-.17-.17-.21-.19-.12-.11-.12-.1-.16-.14-.12-.1-.12-.1-.11-.09-.11-.09-.11-.09-.11-.08-.11-.08-.12-.09-.1-.08-.1-.07-.11-.08-.11-.07-.11-.07-.12-.08-.11-.07-.13-.07c-3.26-1.9-6.55-1.72-8.44-1.01-1.88.9-2.9 2.69-2.9 4.66 0 2.92 2.11 5.1 4.51 5.1 2.69 0 4.98-1.73 4.56-4.36l-.23-1.49c6.47 2.48 9.64 7.88 11.18 13.94l.04.17zm-3.38 38.06c-2.86 5.84-7.42 11.98-12.55 16.11v5.14c.52-.58 1.04-1.17 1.56-1.78 4.65-5.85 7.98-11.53 10.31-17.54.23-.63.45-1.27.67-1.93m126.77 24.05c-1.27-1.44-2.51-2.91-3.71-4.43-8.3-10.52-14.67-23.72-14.49-49.17.11-15.57 4.58-23.33 9.57-26.68 2.7-1.83 5.55-2.35 7.93-2.12-3.05-3.06-8.52-9.04-17.19-20.2-10.03 2.15-17.3-.8-26.28-3.96-2.4-.85-4.65-1.54-6.79-1.84-6.64-.92-13.76-.07-18.67 4.82-6.76-6.76-17.17-5.89-25.46-2.98-8.98 3.16-16.25 6.12-26.28 3.96-8.67 11.15-14.14 17.14-17.19 20.2 2.38-.23 5.23.29 7.93 2.11 4.98 3.35 9.46 11.12 9.57 26.69.18 25.45-6.2 38.65-14.5 49.17-1.2 1.52-2.44 2.99-3.71 4.43 1.96 12.61 9.3 32.53 42.69 39.21 6.74 1.35 21.94 5.32 26.95 12.5 5.01-7.18 20.2-11.15 26.94-12.5 33.39-6.68 40.74-26.6 42.7-39.21m-11.19-75.41c-2.13 2.9-3.89 7.21-4.72 13.56l.04-.21c1.57-6.92 4.23-11.49 11.22-14.16l-.24 1.49c-.42 2.63 1.86 4.36 4.56 4.36 2.4 0 4.51-2.18 4.51-5.1 0-1.97-1.02-3.75-2.8-4.61l-.11-.05c-2.45-.92-7.23-.97-11.22 3.23-.43.45-.82.93-1.21 1.45l-.03.05zm-.86 52.68.04.11.04.11.04.11.04.11.05.11c2.34 6.07 5.66 11.75 10.32 17.6.53.61 1.04 1.2 1.56 1.78v-5.14c-1.55-1.26-7.97-6.79-12.53-16.11l.45 1.32m.37-45.69 5.6-3.19c-.32-.55-.52-1.18-.6-1.88-2.13 1.13-3.75 2.88-5 5.07m-121.51-3.18 5.61 3.19c-1.23-2.2-2.87-3.95-5-5.08-.08.7-.29 1.33-.61 1.89M77.35 203.9l9.03-6.8c-.78-1.55-1.47-3.16-2.08-4.85l-10.73 6.11-.29-.48 10.63-6.77c-.54-1.6-.99-3.25-1.38-4.96l-12.57 5.91-.25-.49 12.56-6.69-.18-.88-.3-2.09v-2.04l-14.92 5.65-.22-.51 15.14-6.62v-4.73l-17.49 5.08-.17-.53L84.87 171a48.04 48.04 0 0 0 4.37-4.88l-26.95 5.66-.13-.54 28.88-7.59c.7-1.03 1.36-2.09 1.98-3.15l-32.18 4.19-.09-.55 33.58-6.1c.39-.79.76-1.59 1.1-2.39l-35.48 1.86-.05-.55 36.49-3.74c.24-.66.47-1.32.68-1.99l-37.43-.94v-.56l38.12-.95c.15-.59.28-1.19.41-1.79l-38.27-3.92.05-.55 38.67 2.03c.09-.59.16-1.16.23-1.75l-38.11-6.91.08-.55 38.23 4.98c.03-.6.06-1.21.06-1.82l-36.97-9.71.13-.53 36.85 7.73c0-.67-.01-1.34-.03-2l-34.97-12.15.17-.52 34.72 10.13c-.03-.77-.07-1.55-.12-2.31l-32.25-14.1.22-.51 31.82 12.04c-.1-.97-.23-1.91-.37-2.85L69.7 108.47l.25-.49 27.87 13.1a31.6 31.6 0 0 0-1.14-4l-7.93-5.05c-1.26 1.18-3.09 1.79-4.8 1.79-3.56 0-6.28-3.16-6.28-6.84 0-.65.09-1.27.24-1.87l-4.63-2.95.29-.47 4.61 2.61c.43-1.06 1.12-2 2.03-2.72-.02-.03.58-.49 1.95-1.83l-4.8-3.62.33-.45 5.1 3.45c1.02-1.02 2.36-2.41 4.06-4.3l-4.96-4.38.37-.42 5.19 4.14c1.14-1.27 2.41-2.75 3.85-4.45l-4.43-4.59.4-.4 4.61 4.3c1.17-1.39 2.44-2.94 3.81-4.66l-3.44-4.18.43-.36 3.55 3.88c1.23-1.53 2.53-3.17 3.92-4.96l-2.14-3.06.45-.32 2.16 2.77.19-.24c2.73.63 5.19.91 7.51.92l-4.22-7.16.48-.29 4.9 7.44c2.02-.08 3.94-.35 5.85-.78l-4.83-9.94.49-.25 5.47 9.92c1.68-.42 3.35-.94 5.08-1.53l-4.38-11.19.52-.21 4.98 11.02c1.45-.51 2.95-1.05 4.54-1.61l.36-.12-3.51-11.6.54-.17 4.1 11.39c1.7-.56 3.37-1.04 5.02-1.32l-2.57-11.88.54-.12 3.22 11.84c1.82-.23 3.55-.3 5.18-.25l-1.73-12.89.55-.08 2.45 13.04c1.84.13 3.54.44 5.08.87l-.79-14.69.56-.05 1.61 15.17c1.85.65 3.43 1.49 4.71 2.45l.46-17.88h.56l.46 17.88c1.28-.95 2.87-1.8 4.71-2.45l1.61-15.18.55.05-.79 14.69c1.54-.43 3.25-.74 5.09-.87l2.44-13.04.55.08L166.43 72c1.62-.06 3.35.02 5.18.25l3.21-11.84.55.13-2.58 11.88c1.7.28 3.38.74 5.03 1.28l4.08-11.35.53.17-3.49 11.55c1.63.57 3.26 1.19 4.88 1.78l4.98-11.02.52.21-4.39 11.21c.68.23 1.33.45 2 .66 1.05.33 2.07.61 3.07.86l5.48-9.93.49.25-4.83 9.94c1.98.43 3.9.69 5.85.76l4.9-7.44.48.29-4.21 7.17c2.4 0 4.86-.3 7.52-.92l.18.23 2.15-2.76.45.33-2.13 3.05c1.38 1.79 2.69 3.44 3.91 4.97l3.55-3.88.42.36-3.44 4.18c1.38 1.71 2.65 3.25 3.83 4.66l4.6-4.3.4.39-4.43 4.59c1.44 1.7 2.72 3.18 3.85 4.44l5.19-4.13.37.42-4.96 4.38c1.72 1.89 3.06 3.29 4.08 4.3l5.09-3.44.33.44-4.79 3.61c1.38 1.31 2 1.77 2 1.77.88.76 1.55 1.72 1.97 2.79l4.61-2.62.29.48-4.62 2.94c.16.61.24 1.24.24 1.88 0 3.68-2.72 6.84-6.28 6.84-1.72 0-3.55-.61-4.81-1.8l-7.92 5.05c-.46 1.25-.83 2.59-1.14 4l27.86-13.09.26.49-28.61 15.24c-.14.93-.27 1.89-.37 2.86l31.82-12.05.22.51-32.25 14.1c-.06.76-.1 1.54-.13 2.31l34.73-10.14.17.53-34.97 12.15c-.02.67-.03 1.34-.03 2.01l36.84-7.74.13.54-36.97 9.71c0 .61.03 1.21.06 1.81l38.23-4.97.08.54-38.11 6.92c.07.58.14 1.16.23 1.74l38.67-2.02.04.55-38.26 3.93c.12.6.26 1.2.41 1.79l38.12.95v.56l-37.43.94c.21.67.44 1.33.68 1.99l36.48 3.74-.04.55-35.48-1.85c.34.8.71 1.6 1.1 2.39l33.58 6.1-.08.54-32.18-4.19c.62 1.08 1.28 2.13 1.98 3.16l28.88 7.59-.13.53-26.95-5.65a48.04 48.04 0 0 0 4.37 4.88l20.74 7.21-.17.53-17.61-5.15.08 4.78 15.18 6.64-.22.51-14.96-5.66v1.98l-.27 2.17-.18.88 12.56 6.69-.26.49-12.57-5.9a53.78 53.78 0 0 1-1.38 4.96l10.62 6.77-.29.48-10.73-6.11c-.61 1.69-1.3 3.3-2.08 4.85l9.03 6.8-.33.45-9.22-6.24c-.86 1.6-1.79 3.12-2.81 4.57l7.83 6.92-.38.42-8.1-6.47a41.803 41.803 0 0 1-3.51 4.11l7 7.25-.39.39-7.36-6.88a45.118 45.118 0 0 1-4.11 3.55l6.48 7.87-.42.35-6.93-7.57a55.18 55.18 0 0 1-4.54 2.94l6.14 8.76-.46.32-6.65-8.54c-1.54.84-3.14 1.63-4.81 2.35l5.81 9.9-.47.29-6.42-9.73c-1.59.65-3.23 1.26-4.93 1.82l5.43 11.18-.5.25-6.09-11.05c-1.61.5-3.26.96-4.95 1.38L189.3 235l-.51.21-5.61-12.4c-.88.2-1.77.39-2.66.57-.65.12-1.4.29-2.23.48l4.13 13.66-.53.16-4.86-13.53c-1.44.35-3.04.77-4.72 1.29l3.05 14.05-.55.12-3.74-13.8c-1.56.5-3.15 1.06-4.72 1.69l1.8 13.41-.55.09-2.45-13.01c-1.73.73-3.4 1.54-4.91 2.43l.61 11.36-.56.04-1.13-10.73c-2.2 1.43-3.97 3.04-4.96 4.86-.06.09-.32.74-.57 1.33l-.13 4.8h-.56l-.12-4.81c-.24-.59-.51-1.23-.56-1.32-.99-1.81-2.76-3.43-4.96-4.87l-1.14 10.74-.56-.05.61-11.36c-1.52-.89-3.18-1.7-4.91-2.43l-2.44 13.01-.55-.09 1.8-13.41a72.46 72.46 0 0 0-4.72-1.69l-3.74 13.8-.55-.12 3.04-14.05c-1.68-.51-3.29-.94-4.72-1.29l-4.86 13.53-.54-.16 4.13-13.66c-.83-.19-1.58-.36-2.22-.48-.9-.18-1.8-.37-2.67-.57l-5.61 12.4-.52-.21 4.88-12.48c-1.69-.42-3.34-.88-4.95-1.38l-6.09 11.05-.51-.25 5.44-11.18c-1.7-.56-3.35-1.17-4.93-1.82l-6.42 9.73-.47-.29 5.81-9.9c-1.66-.72-3.27-1.51-4.81-2.35l-6.65 8.54-.46-.32 6.14-8.76c-1.59-.92-3.1-1.9-4.54-2.94l-6.92 7.57-.44-.36 6.49-7.87c-1.45-1.1-2.82-2.29-4.11-3.55l-7.36 6.88-.4-.39 7.01-7.25a39.249 39.249 0 0 1-3.51-4.11l-8.1 6.46-.37-.42 7.83-6.92a42.988 42.988 0 0 1-2.81-4.57l-9.22 6.24-.33-.45z"/><path class="cls-1" d="M140.3 14.58c-.06 0-.14 0-.22.01-.29.04-2.42.62-6.97 1.24-2.22.31-3.54.2-3.95.26-.69.1-.96.5-.89.97.09.65.61.7 1.3.7h.47c.61 0 1.31.03 1.96.4 1.2.69 1.37 1.83 1.69 4.05l2.22 15.54c.27 1.94-.07 3.28-.89 3.88-1.04.75-1.96.96-1.83 1.79.06.42.34.68.85.68.07 0 .15 0 .23-.02 1.09-.16 2.81-.75 5.07-1.07 2.9-.4 4.93-.31 5.94-.46.77-.1 1.09-.43 1-1.02-.16-1.07-1.56-.59-2.92-.85-1.47-.28-2.31-1.5-2.63-3.72l-2.26-15.82c-.26-1.86-.3-3.24.36-4.09.77-1 2.35-.85 2.2-1.88-.06-.41-.3-.61-.73-.61m33.72.59c-.43 0-.7.23-.79.63-.32 1.24 1.75.88 2.73 2.45.73 1.13.5 2.35.01 4.25l-3.85 15.22c-.45 1.78-1.19 2.84-2.51 3.26-1.06.36-1.98.18-2.18.99-.12.51.12.85.76 1.02.91.22 2.85.33 5.5.98 2.53.62 4.02 1.35 4.69 1.52.17.05.32.06.46.06.4 0 .67-.2.79-.66.25-1.01-1.03-1.08-1.89-1.79-1.11-.93-1.32-2.3-.8-4.32l3.89-15.34c.7-2.79 1.1-4.13 2.71-4.13.32 0 .68.05 1.11.16 3.59.88 5.23 4.17 4.27 7.97-.73 2.87-2.26 4.33-4.61 4.33-.54 0-1.12-.08-1.76-.24-.95-.23-1.5-.57-1.69-.62-.04 0-.1-.01-.14-.01-.27 0-.54.18-.59.41-.23.89 1.15 1.9 3.73 2.53.79.19 1.56.29 2.31.29 3.75 0 6.91-2.31 7.89-6.12 1.12-4.42-1.42-8.31-7.5-9.79-1.66-.41-4.15-.69-7.34-1.48-2.56-.62-4.15-1.34-4.82-1.51-.13-.03-.25-.04-.36-.04m-59.01 3.77c-.24 0-.55.11-.98.27-1.14.43-3.27 1.57-6.58 2.82l-9 3.4c-3 1.14-5.24 1.64-6.5 2.11-.84.32-.74.79-.39 1.91.97 3.15 1.19 4.95 1.29 5.21.18.43.39.64.67.64.08 0 .17-.01.26-.05 1.14-.43.35-1.37.5-3.74.13-2.02 1.77-2.94 4.89-4.12.91-.35 1.51-.54 1.94-.54.6 0 .88.39 1.24 1.31l6.61 16.93c.74 1.91.6 3.33-.65 4.49-.95.91-2.14 1.1-1.78 2.04.13.33.4.51.77.51.18 0 .38-.04.6-.12 1.33-.51 3.31-1.68 5.97-2.69 2.63-.99 4.62-1.35 5.56-1.71.65-.25.85-.63.63-1.18-.16-.39-.44-.51-.79-.51-.28 0-.6.07-.95.13-.34.08-.71.14-1.08.14h-.1c-1.81-.05-2.76-1.05-3.52-2.99l-6.52-16.71c-.67-1.72-.24-1.97 2.19-2.88l.64-.25c1.49-.57 2.6-.87 3.49-.87s1.57.3 2.21.95c.89.92 1.04 1.49 1.56 1.49.12 0 .26-.03.43-.1.53-.2.48-.32.21-1.02l-.13-.34-1.8-3.69c-.29-.61-.52-.84-.9-.84m42.36 5.45c-.25 0-.47.03-.63.18l-2.68 2.42c-.17.16-.3.4-.31.67 0 .29.06.53.22.69l2.43 2.65c.16.16.44.29.68.3h.06c.25 0 .48-.08.64-.21l2.65-2.44c.17-.15.3-.43.31-.67.01-.28-.07-.52-.22-.69l-2.39-2.61a1.01 1.01 0 0 0-.68-.31h-.07m62.87 5.47c-.17 0-.32.11-.54.27l-20.16 14.97c-1.59 1.19-2.73 1.98-4.03 2.05-.07 0-.13.01-.19.01-.23 0-.45-.03-.66-.06-.19-.03-.39-.06-.55-.06-.3 0-.55.09-.73.41-.25.45-.11.86.39 1.13.39.21 1.6.45 3.27 1.37 2.31 1.26 3.65 2.45 4.39 2.86.2.1.38.16.53.16.27 0 .5-.16.67-.47.31-.56-.18-.92-.94-1.56-1.46-1.21-1.92-2.29-1.33-3.34.2-.35.52-.67.95-1.03l2.46-2.14c.63-.55 1.11-.78 1.6-.78.57 0 1.16.32 2.03.79l4.63 2.52.21.12c1.6.87 2.01 1.14 1.78 2.95l-.32 2.88c-.07.7-.25 1.28-.51 1.74-.52.91-1.26 1.1-1.97 1.1-.24 0-.49-.03-.73-.05-.23-.02-.46-.05-.65-.05-.34 0-.62.07-.76.33-.23.42-.2.85.12 1.02.28.16 2.05.66 5.03 2.29 2.11 1.14 3.53 2.33 4.56 2.9.19.1.34.17.47.17.21 0 .35-.14.54-.48.41-.74-.01-.89-.76-1.7-.98-1.08-1.01-2.02-.87-3.41l2.68-25.8c.04-.49-.07-.87-.32-1.01a.673.673 0 0 0-.31-.09M76 38.08c-.13 0-.27.05-.43.17-.39.29-.3.87-1.08 1.46-1.2.89-3.28.57-5.78 2.42-3.89 2.89-4.15 7.69-1.65 10.95 1.78 2.33 3.59 3.1 5.78 3.1 1.69 0 3.6-.46 5.9-1.03 2.27-.56 4.01-1.01 5.43-1.01s2.51.46 3.45 1.7c2.01 2.62 1.24 5.69-1.22 7.52-1.1.8-2.49 1.23-4.07 1.23-1.34 0-2.8-.3-4.31-.93-2.21-.93-2.98-1.9-3.55-1.9-.11 0-.21.03-.32.11-.55.41-.48.76-.12 1.24.02.03.2.2.56.47l4.57 3.83c.56.46.78.7 1.07.7.22 0 .47-.12.91-.37 1.77-1.01 4.08-1.26 5.96-2.66 4.45-3.3 5.18-8.2 1.8-12.61-1.57-2.05-3.55-3.24-5.74-3.51-.27-.03-.55-.05-.82-.05-1.8 0-3.75.66-6.2 1.34-1.75.49-3.17.78-4.34.78-1.46 0-2.53-.45-3.36-1.54-1.32-1.72-.94-4.21 1.21-5.8 1.31-.97 2.95-1.47 4.6-1.47.98 0 1.96.17 2.88.53 2.35.93 2.87 1.97 3.48 1.97.15 0 .3-.06.48-.19.32-.24.33-.55.04-.94-.98-1.28-2.59-2.44-3.69-3.88-.37-.48-.57-.88-.79-1.17-.24-.3-.44-.46-.67-.46m77.22 7.4c-58.31 0-105.59 46.49-105.59 103.83 0 8.14.95 16.05 2.76 23.64h1.82c-1.83-7.58-2.8-15.5-2.8-23.64 0-56.38 46.47-102.09 103.81-102.09s103.82 45.71 103.82 102.09c0 8.14-.97 16.06-2.8 23.64h1.83c1.8-7.59 2.74-15.51 2.74-23.64 0-57.34-47.26-103.83-105.58-103.83m92.51 2.25c-.18 0-.39.1-.64.33-.99.88.95 1.27.83 3.52-.07 1.19-1.06 2.55-2.91 4.19l-6.41 5.67c-3.59 3.19-6.69 4.84-7.53 5.11-.39.12-.74.18-1.05.18-.56 0-1.04-.15-1.42-.31-.38-.15-.68-.3-.91-.3a.35.35 0 0 0-.24.08c-.54.48-.62.88-.26 1.26.44.47 1.77 1.39 3.35 3.12 1.49 1.63 2.14 2.93 2.55 3.39.3.33.51.52.75.52.17 0 .35-.1.59-.31 1-.88-1.19-2.13-1.09-3.82.1-1.81 2.1-3.63 5.27-6.44l7.05-6.24c.64-.57 1.11-.86 1.38-.86.09 0 .16.03.21.09.08.09.17.6.08 1.22l-3.51 25.24c-.19 1.4-.44 2.32.07 2.89.06.07.16.11.27.11.3 0 .77-.27 1.39-.83l15.5-13.39c1.54-1.32 2.55-2.12 3.81-2.12.19 0 .38.02.58.06.97.16 1.49.75 2 .75.17 0 .33-.07.51-.23.43-.38.39-.66 0-1.08-.73-.8-2.14-1.87-3.61-3.47-1.14-1.25-1.77-2.42-2.4-3.1-.23-.25-.45-.37-.67-.37a.75.75 0 0 0-.51.22c-.84.75.76 1.48 1.13 3.74.26 1.6-.84 2.85-2.72 4.5l-7.72 6.83c-.73.65-1.27.97-1.59.97-.1 0-.19-.03-.24-.1-.19-.2-.26-.89-.09-2.07l3.12-21.29c.24-1.6.38-2.16-.39-3-.63-.69-1.65-1.45-2.69-2.58-.48-.53-.79-1.23-1.28-1.76-.2-.22-.38-.33-.57-.33M49.59 60.31c-.37 0-.64.31-1.12.93-1.27 1.65-3.2 4.64-6.21 8.57-3.02 3.93-4.79 5.72-4.99 5.97-.41.54-.38 1.02.04 1.34a.8.8 0 0 0 .47.17c.8 0 1.44-1.59 3.06-1.92.2-.03.39-.04.57-.04 1.13 0 2.07.65 3.44 1.66l12.74 9.45c1.5 1.11 2.2 2.18 2.08 3.54-.08 1.09-.61 1.85.07 2.36.17.12.33.18.49.18.25 0 .51-.15.75-.46.46-.61 1.46-2.52 3.57-5.27 1.89-2.46 3.7-4.23 4.87-5.77 1.52-1.98 2-3.73 1.38-5.59-.55-1.67-1.9-3.36-2.59-3.87-.19-.15-.4-.23-.58-.23-.17 0-.31.07-.41.19-.49.63.62 1.45.77 3.72.13 2.16-.84 4.94-2.48 7.08-.92 1.2-1.58 1.71-2.3 1.71s-1.5-.51-2.65-1.37l-5.07-3.76c-1.34-.99-1.7-1.5-.8-2.68l.96-1.25c1.1-1.45 1.95-2.14 3.1-2.14.33 0 .68.05 1.07.16.94.27 1.51.82 1.98.82.18 0 .36-.09.53-.31.27-.36.22-.69-.2-1-.33-.24-2.05-1.12-4.72-3.09-1.23-.92-1.82-1.55-2.08-1.74-.25-.18-.46-.27-.63-.27-.15 0-.28.07-.4.21-.64.83.36 1.52.75 2.81.39 1.23-.02 2.29-1.05 3.63l-.78 1.02c-.43.56-.84.84-1.28.84-.35 0-.71-.16-1.13-.47l-5.07-3.75c-1.43-1.06-1.34-2.1.1-3.99 2.14-2.79 3.64-4.03 5.28-4.03.22 0 .44.02.66.06.95.19 1.51.88 2 .88.18 0 .35-.08.52-.31.34-.45.23-.64-.26-.99-.2-.15-1.16-.82-2.79-2.02l-.69-.51c-.45-.33-.75-.49-1-.49m225.03 24.26c-.11 0-.23.02-.34.08-1.24.49.36 2.05-.29 3.87-.52 1.32-1.63 1.81-3.48 2.54l-12.76 5.08-1.21.48c-1.27.51-2.23.85-3.13.85-.44 0-.85-.08-1.28-.26-1.07-.45-1.59-1.55-2.35-1.55-.1 0-.21.02-.32.07-.49.19-.63.6-.39 1.19.35.86 1.41 2.46 2.43 4.95.89 2.15 1.17 3.81 1.5 4.62.18.42.39.63.72.63.13 0 .29-.04.47-.11 1.05-.42.12-1.64.44-2.89.36-1.56 1.8-2.23 4.03-3.11l.75-.29.15-.06 1.74-.69c.52-.21.95-.36 1.33-.36.21 0 .41.05.6.15l1.54.77c.44.22.63.36.66.43.04.11-.05.32-.25.66l-7.75 12.02c-.54.82-.69 1.53-.49 2.01.23.56.68 1.15 1.03 1.97.38.93.55 1.98.95 2.95.18.44.4.66.74.66.14 0 .31-.04.49-.11.8-.32-.02-.81.36-2.43.21-.91.8-2.13 1.81-3.74l6.69-10.74c.4-.63.7-.96.93-1.05.09-.03.18-.05.3-.05.3 0 .71.11 1.22.34l5.48 2.45c3.44 1.52 5.42 2.85 6.03 3.34.97.8 1.18 1.65 1.79 1.65.1 0 .22-.03.34-.08.53-.21.6-.59.35-1.18-.3-.74-1.1-1.81-1.8-3.51-.65-1.6-.89-3.01-1.34-4.13-.17-.4-.38-.57-.62-.57-.09 0-.19.02-.29.07-.87.34-.63.72-.43 1.42.19.79 0 1.29-.56 1.52-.13.05-.29.07-.51.07-1.23 0-3.96-.82-7.9-2.6l-5.82-2.61c-.37-.15-.61-.4-.66-.55-.14-.33.14-.49.9-.79l6.29-2.5.34-.14c1-.39 1.79-.69 2.53-.69.41 0 .83.1 1.26.3 1.09.52 1.36 1.55 2.04 1.55.1 0 .2-.02.33-.07.45-.17.57-.53.38-.98-.17-.44-1.21-2.11-2.46-5.15-1.05-2.55-1.42-4.31-1.68-4.94-.2-.48-.5-.72-.85-.72M29.58 90.35c-.47 0-.67.37-1.01 1.2-.79 1.93-1.87 5.3-3.75 9.87-1.88 4.56-3.12 6.75-3.24 7.05-.26.63-.09 1.08.4 1.28.12.04.23.07.33.07.92 0 1.03-1.88 2.61-2.65.44-.21.86-.3 1.29-.3.86 0 1.78.34 3.01.83l14.79 5.87c1.74.69 2.71 1.55 2.94 2.9.21 1.08-.1 1.95.7 2.26.11.05.23.07.34.07.32 0 .59-.22.77-.66.29-.71.76-2.81 2.07-6 1.18-2.87 2.45-5.02 3.19-6.81.95-2.3.95-4.11-.14-5.75-.98-1.46-2.73-2.76-3.52-3.08-.15-.06-.29-.09-.43-.09-.26 0-.46.11-.54.31-.3.74.98 1.25 1.72 3.4.7 2.05.49 4.98-.52 7.47-.69 1.67-1.28 2.29-2.21 2.29-.63 0-1.41-.27-2.48-.7l-5.89-2.34c-1.55-.61-2.04-1.02-1.48-2.39l.6-1.45c.87-2.1 1.65-2.97 3.4-2.97h.1c.87.02 1.5.32 1.94.32.28 0 .48-.11.62-.47.17-.41.03-.72-.46-.92-.38-.15-2.28-.55-5.37-1.78-1.43-.57-2.17-1.04-2.46-1.15-.21-.08-.38-.12-.53-.12-.23 0-.39.1-.48.33-.4.96.75 1.37 1.46 2.52.69 1.09.58 2.21-.05 3.77l-.49 1.19c-.33.8-.74 1.17-1.34 1.17-.26 0-.55-.07-.91-.21l-5.88-2.33c-1.67-.66-1.86-1.69-.96-3.88 1.51-3.67 2.76-5.2 4.7-5.34h.16c.39 0 .75.09 1.06.18.3.09.56.18.79.18s.43-.11.58-.45c.21-.52.06-.67-.51-.89-.23-.09-1.34-.49-3.23-1.24l-.79-.31c-.4-.16-.69-.24-.92-.24m244.78 32.95c-.06 0-.12.01-.18.02-.28.05-.5.18-.63.36l-2.08 2.92c-.13.19-.2.49-.15.73.06.27.19.49.38.62l3.01 2c.14.1.37.16.57.16.06 0 .11 0 .16-.02.28-.05.51-.18.63-.36l2.05-2.88c.13-.19.2-.44.14-.72-.05-.28-.14-.5-.33-.63l-3.01-2.03c-.15-.1-.35-.17-.55-.17m-242.42 1.21c-.18 0-.34.04-.48.13l-2.99 1.91c-.19.13-.36.34-.41.61-.06.28-.06.52.06.71l2.02 2.99c.13.19.34.35.62.41.09.02.17.02.25.02.18 0 .35-.04.48-.13l3.04-1.95c.2-.12.36-.38.41-.62.05-.27.02-.52-.11-.71l-2.03-2.96a1.07 1.07 0 0 0-.62-.41c-.08-.02-.17-.02-.25-.02m-.56 5.89c-.07 0-.15-.02-.27-.03-.16-.03-.26-.13-.37-.23l-1.92-2.65.43-.25 2.14 1.96 2.48-1.2.26.54-2.6 1.82s-.09.04-.15.04m241.18-2.89-.45-.4 1.72-2.66c.06-.09.18-.11.39-.15h.08c.13 0 .23.04.34.09l2.79 1.74-.29.39-2.73-1.03-1.84 2.03m-248.6-20.87c.74-.93 1.56-1.36 2.6-1.36.72 0 1.55.21 2.53.6l14.34 5.7c3.17 1.26 4.64 2.27 4.31 4.26-.83-1.93-2.44-2.61-4.52-3.44l-.33-.13-14.37-5.72c-.93-.36-1.74-.55-2.48-.55s-1.46.21-2.09.65m255.89-1.43c.31 0 .58-.05.82-.14.79-.32.91-.66.96-1.72l.21-.04c.32 1.21.31 2.13-.56 2.47-.15.06-.3.09-.47.09-.53 0-1.19-.26-2.16-.6l.08-.21c.43.1.8.15 1.13.15m-21.67 10.71c-.14 0-.3-.09-.34-.19-.27-.67.16-1.44 1.22-3.12l6.39-10c.42-.65.71-1.02.83-1.06.06-.02.11-.03.17-.03.2 0 .43.11.5.28.05.11-.02.36-.21.65l-7.82 12.38c-.31.52-.42.99-.65 1.08-.03.01-.05.01-.08.01m-218.97-15-.23-.06c.04-.76-.15-1.35-.53-2.02l.04-.2 2.27.77-.05.11c-.63.35-1.06.78-1.5 1.39m12.98 4.72-.17-.02c.6-2.74.51-4.98-.77-7.21l.2-.06c1.94 1.59 2.35 3.58 1.37 5.99-.14.33-.36.76-.63 1.3M28.65 95.21l-.17-.02c.23-.77.42-1.22.47-1.36.51-1.25 1.08-1.79 1.99-1.79.39 0 .85.1 1.39.29l-.15.15c-1.56.16-2.45 1.06-3.54 2.74m224.71 2.98c1.22 0 2.41-.45 3.79-1l.34-.13 14.38-5.72c1.96-.77 2.93-1.64 3.03-3.19h.18c.2 2-.75 3.12-3.15 4.07l-14.34 5.7c-1.56.62-2.76 1.05-3.8 1.05-.88 0-1.64-.3-2.42-1.03l.11-.14c.65.27 1.28.39 1.89.39M39.99 74.63c.7-.51 1.36-.76 2.06-.76.93 0 1.92.45 3.11 1.33l12.35 9.15c2.73 2.02 3.88 3.38 3.04 5.21-.29-2.08-1.67-3.15-3.45-4.47l-.29-.21-12.38-9.17c-1.16-.86-2.19-1.29-3.2-1.29-.41 0-.82.07-1.23.21m27.53 6.23-.15-.07c1.3-2.49 1.8-4.68 1.15-7.16h.21c1.45 2.03 1.34 4.04-.26 6.12-.22.29-.55.65-.95 1.1m-11.28-7.87-.23-.11c.25-.72.22-1.34.03-2.09l.09-.18 1.92 1.42c-.7.18-1.24.49-1.81.96m203.46-3.1-.14-.15c1.04-1.62 1.45-2.79.99-3.89l.17-.05c1.08 1.36 1.12 2.29-.09 3.37-.18.16-.49.37-.93.71m-32.11-2.28c1.46 0 2.89-.73 4.73-1.91-.62.82-1.05 1.36-1.33 1.6-.73.65-1.43.98-2.16.98-.54 0-1.09-.18-1.69-.52l.06-.17c.13.01.26.02.39.02m-147.66-.54c-.25 0-.48-.14-.74-.36l-4.51-3.76c-.16-.14-.29-.24-.33-.3l.06-.25s.08-.05.12-.05c.1 0 .18.12.41.26l5.43 3.7.21.19-.05.34c-.21.16-.4.23-.58.23m-32.4-2.28-.15-.06c.43-.69.72-1.07.82-1.2.67-.87 1.26-1.29 1.92-1.29.51 0 1.06.24 1.74.69l-.18.11c-.22-.03-.43-.05-.63-.05-1.23 0-2.22.63-3.51 1.79m195.34 19.06s-.08-.02-.11-.05c-.11-.11-.1-.28-.05-.6l4.1-28.83c.14-.98.07-1.96-.06-3.12l.12-.11c.99 1.92.84 3.62.56 5.65l-3.53 25.63c-.09.45-.19.8-.64 1.21-.17.14-.3.21-.39.21M73.03 55.17c-2.28 0-4.02-.75-5.49-2.67-.88-1.15-1.34-2.47-1.56-4.16l.17-.03c.24 1.23.67 2.26 1.41 3.22 1.56 2.04 3.17 2.73 5.2 2.73s4.37-.66 7.5-1.37c1.32-.31 2.48-.48 3.52-.48 1.98 0 3.48.63 4.62 2.12.39.51.69 1.1.96 1.79l-.25.08c-.3-.52-.54-.9-.68-1.09-1.13-1.47-2.53-1.99-4.27-1.99s-3.91.54-6.45 1.17c-1.8.43-3.34.69-4.69.69m123.8-6.75c-.47 0-.96-.12-1.49-.36l-.06-.16c1.83-.1 3.05-1.04 4.62-2.25l.1.15-.16.28c-.89 1.58-1.86 2.34-3.02 2.34M72.12 41.64c1.19-.64 2.15-.94 3.02-.94 1.17 0 2.16.58 3.24 1.71l-.16.13c-1.66-.71-3.02-1.03-4.45-1.03-.53 0-1.08.05-1.64.14m141.99 3.98c-.24 0-.58-.11-1.01-.35l-4.1-2.23c-1.13-.62-1.55-.95-1.3-1.4.09-.18.34-.45.73-.74l6.15-4.71c.24-.19.46-.28.64-.28.08 0 .14.01.2.05.14.07.24.4.16.95l-.81 7.3c-.08.74-.23 1.15-.26 1.23-.07.12-.2.19-.38.19M212.2 56.5l-.03-.11c.79-.17 1.32-.61 1.74-1.35.32-.55.57-1.34.66-2.33l1.86-16.42c.04-.48 0-.91.16-1.19.12-.23.31-.32.48-.32.08 0 .16.02.23.06.21.11.24.31.18.75l-1.89 17.04c-.1.77-.42 1.74-.77 2.37-.57 1.01-1.39 1.48-2.62 1.5M93.36 32.11l-.1-.26c-.71-1.83-.24-3.08 1.66-3.79.23-.09.54-.17.94-.27l.04.11c-1.68 1.28-2.44 2.42-2.38 4.16l-.15.05m16.85 16.83-.13-.12c.56-.55.54-1.96-.27-4.01l-6.68-17.12-.28-.71c-.17-.45-.59-.85-1.23-1.03l.08-.16h.17c1.36 0 1.9 1.07 2.75 3.23l5.86 15.02c1.02 2.62 1.08 4.01-.27 4.9m46.83-18.39-2.23-2.24c-.08-.08-.07-.2-.07-.4 0-.16.09-.28.18-.39l2.37-2.29.3.38-1.63 2.39 1.59 2.21-.51.34m-45.74-8.3-.08-.21c.78-.34 1.3-.58 1.52-.67.49-.18.92-.28 1.31-.28.92 0 1.57.57 2.11 1.78l-.12.04c-.97-.69-1.84-1.03-2.8-1.03-.59 0-1.22.13-1.94.37m74.49 10.27.07-.27c1.89-.53 3.32-2.16 3.91-4.53.68-2.67-.03-5.49-2.07-7.52l.09-.18c2.75 1.87 3.87 4.91 3.18 7.62-.64 2.53-2.49 4.34-5.18 4.88m-49.92 9.69-.1-.15c1.28-1.67 1.08-3.38.77-5.56l-.06-.36-2.15-15.1c-.3-2.06-.91-3.19-2.42-3.66l.06-.17c2.01.29 2.88 1.46 3.24 4l2.15 15.06c.43 3 .51 4.69-1.49 5.94m34.57-.56h-.09c1.82-1.08 2.28-2.74 2.83-4.88l.09-.35 3.75-14.79c.49-1.94.31-3.35-.72-4.43 1.76 1.01 2.11 2.41 1.48 4.91l-3.74 14.76c-.82 3.21-1.62 4.79-3.6 4.79M153.23 7.11C76.48 7.11 13.7 65.89 8.9 140.17l1.74.62C15.13 67.18 77.24 8.85 153.23 8.85s138.08 58.31 142.59 131.91l1.74-.62C292.74 65.88 229.96 7.11 153.23 7.11"/><g><path class="cls-1" d="M378.08 89.59h51.72v8.73h-42.31v21.64h39.11v8.25h-39.11v24.16h43.04v8.49h-52.45V89.59zM471.39 110.33c3.44 1.73 6.06 3.97 7.86 6.72 1.74 2.62 2.89 5.68 3.47 9.17.51 2.39.77 6.21.77 11.45h-37.8c.16 5.29 1.4 9.53 3.71 12.72 2.31 3.19 5.89 4.79 10.74 4.79 4.52 0 8.14-1.51 10.83-4.53 1.51-1.76 2.58-3.79 3.21-6.09h8.59c-.23 1.91-.98 4.03-2.26 6.38-1.28 2.34-2.7 4.26-4.28 5.75-2.63 2.59-5.89 4.33-9.77 5.24-2.09.52-4.45.78-7.08.78-6.43 0-11.88-2.35-16.35-7.06-4.47-4.71-6.7-11.3-6.7-19.77s2.25-15.12 6.75-20.33c4.5-5.21 10.38-7.81 17.65-7.81 3.66 0 7.22.87 10.66 2.6zm3.13 20.4c-.35-3.79-1.17-6.81-2.45-9.07-2.37-4.2-6.34-6.31-11.88-6.31-3.98 0-7.31 1.45-10.01 4.34-2.69 2.89-4.12 6.57-4.28 11.04h28.63zM498.75 144.56c.26 2.91 1.01 5.14 2.23 6.7 2.24 2.81 6.14 4.22 11.69 4.22 3.3 0 6.2-.7 8.72-2.11 2.51-1.41 3.76-3.58 3.76-6.53 0-2.23-1-3.93-3.01-5.1-1.28-.71-3.81-1.54-7.59-2.47l-7.05-1.75c-4.5-1.1-7.82-2.33-9.96-3.69-3.81-2.36-5.72-5.63-5.72-9.8 0-4.92 1.79-8.9 5.38-11.94 3.59-3.04 8.41-4.56 14.48-4.56 7.93 0 13.65 2.3 17.16 6.89 2.2 2.91 3.26 6.05 3.2 9.41h-8.25c-.17-1.96-.88-3.75-2.14-5.36-2.05-2.28-5.61-3.43-10.68-3.43-3.38 0-5.94.63-7.67 1.89-1.74 1.26-2.61 2.92-2.61 4.98 0 2.26 1.14 4.06 3.43 5.41 1.32.81 3.26 1.52 5.83 2.13l5.88 1.41c6.39 1.52 10.68 2.99 12.85 4.42 3.4 2.23 5.09 5.74 5.09 10.53s-1.78 8.62-5.33 11.98c-3.55 3.36-8.97 5.05-16.24 5.05-7.83 0-13.37-1.76-16.63-5.26-3.26-3.51-5-7.85-5.23-13.03h8.4zM544 94.39h8.83v14.51h8.3v7.13h-8.3v33.92c0 1.81.61 3.02 1.84 3.64.68.36 1.81.53 3.4.53.42 0 .87 0 1.36-.03.48-.02 1.05-.08 1.7-.16v6.94c-1 .29-2.05.5-3.13.63s-2.26.19-3.52.19c-4.08 0-6.84-1.04-8.3-3.13-1.45-2.09-2.18-4.8-2.18-8.13v-34.4h-7.04v-7.13H544V94.39zM568.87 89.59h8.88v9.9h-8.88v-9.9zm0 19.55h8.88v51.72h-8.88v-51.72zM618.65 89.59h31.89c6.31 0 11.4 1.79 15.27 5.36 3.88 3.57 5.82 8.6 5.82 15.07 0 5.56-1.73 10.41-5.19 14.53-3.46 4.12-8.75 6.19-15.88 6.19H628.3v30.13h-9.66V89.59zm37.45 9.8c-2.12-1-5.03-1.5-8.72-1.5H628.3v24.7h19.08c4.3 0 7.8-.92 10.48-2.77 2.68-1.84 4.02-5.09 4.02-9.75 0-5.24-1.93-8.8-5.78-10.67zM705.73 129.42c2.01-.26 3.35-1.1 4.03-2.52.39-.78.58-1.9.58-3.36 0-2.99-1.06-5.15-3.17-6.5-2.11-1.35-5.14-2.02-9.08-2.02-4.55 0-7.78 1.24-9.69 3.7-1.07 1.37-1.76 3.4-2.08 6.1h-8.15c.16-6.42 2.24-10.89 6.23-13.41 3.99-2.51 8.62-3.77 13.88-3.77 6.11 0 11.07 1.16 14.88 3.49 3.78 2.33 5.67 5.95 5.67 10.87v29.94c0 .91.19 1.63.56 2.18.37.55 1.16.82 2.35.82.39 0 .82-.02 1.31-.07.48-.05 1-.12 1.55-.22v6.45c-1.36.39-2.39.63-3.11.73-.71.1-1.68.15-2.91.15-3.01 0-5.19-1.07-6.55-3.2-.71-1.13-1.21-2.73-1.5-4.8-1.78 2.33-4.33 4.35-7.67 6.06-3.33 1.71-7 2.57-11.01 2.57-4.82 0-8.76-1.46-11.81-4.39-3.06-2.92-4.59-6.58-4.59-10.98 0-4.81 1.5-8.55 4.51-11.19 3.01-2.65 6.95-4.28 11.84-4.89l13.93-1.75zm-18.39 23.59c1.84 1.45 4.03 2.18 6.55 2.18 3.07 0 6.05-.71 8.93-2.13 4.85-2.36 7.28-6.22 7.28-11.58v-7.02c-1.07.68-2.44 1.25-4.12 1.7-1.68.45-3.33.78-4.94.97l-5.28.68c-3.16.42-5.54 1.08-7.14 1.98-2.7 1.52-4.05 3.94-4.05 7.26 0 2.52.92 4.5 2.77 5.95zM732.15 108.9h8.3v7.38c2.46-3.04 5.06-5.22 7.81-6.55s5.81-1.99 9.17-1.99c7.38 0 12.36 2.57 14.94 7.72 1.42 2.81 2.13 6.84 2.13 12.08v33.33h-8.88v-32.75c0-3.17-.47-5.72-1.41-7.67-1.55-3.23-4.37-4.85-8.44-4.85-2.07 0-3.77.21-5.1.63-2.39.71-4.5 2.13-6.31 4.27-1.46 1.71-2.4 3.48-2.84 5.31-.44 1.83-.65 4.44-.65 7.84v27.22h-8.73V108.9zM786.22 89.59h8.39v41.38l22.4-22.07h11.16l-19.97 19.32 21.09 32.64h-11.16l-16.35-26.44-7.17 6.94v19.51h-8.39V89.59z"/></g><g><path class="cls-1" d="M377.88 191.39h12.83v2.17h-10.5v5.37h9.71v2.05h-9.71v6h10.68v2.11h-13.02V191.4zM402.12 191.39v10.93c0 1.28.24 2.35.73 3.2.72 1.28 1.93 1.93 3.64 1.93 2.05 0 3.44-.69 4.17-2.08.4-.76.59-1.77.59-3.05v-10.93h2.42v9.94c0 2.17-.29 3.85-.88 5.02-1.08 2.14-3.12 3.2-6.11 3.2s-5.03-1.07-6.1-3.2c-.59-1.17-.88-2.85-.88-5.02v-9.94h2.42zM423.05 191.39h8.04c1.32 0 2.42.2 3.28.59 1.63.75 2.45 2.15 2.45 4.18 0 1.06-.22 1.93-.66 2.6s-1.05 1.22-1.84 1.63c.69.28 1.21.65 1.56 1.11.35.46.54 1.2.58 2.23l.08 2.37c.03.67.08 1.18.17 1.5.14.56.4.92.77 1.08v.4h-2.94c-.08-.15-.14-.35-.19-.59s-.09-.71-.12-1.4l-.14-2.95c-.05-1.16-.47-1.93-1.25-2.32-.44-.22-1.14-.32-2.09-.32h-5.3v7.59h-2.4V191.4zm7.78 8.1c1.09 0 1.96-.23 2.59-.67.64-.45.95-1.26.95-2.43 0-1.26-.44-2.12-1.33-2.58-.48-.24-1.11-.36-1.91-.36h-5.69v6.04h5.39zM460.57 193.92c1.17 1.57 1.76 3.57 1.76 6.01 0 2.64-.67 4.84-2.01 6.59-1.57 2.06-3.82 3.08-6.73 3.08-2.72 0-4.86-.9-6.42-2.7-1.39-1.73-2.08-3.93-2.08-6.57 0-2.39.59-4.44 1.78-6.14 1.53-2.18 3.78-3.28 6.77-3.28s5.43 1 6.94 3.01zm-2.11 11.28c.94-1.51 1.42-3.26 1.42-5.22 0-2.08-.54-3.76-1.63-5.02s-2.57-1.9-4.46-1.9-3.32.63-4.48 1.89c-1.16 1.26-1.73 3.11-1.73 5.56 0 1.96.5 3.61 1.49 4.96s2.6 2.02 4.82 2.02 3.64-.76 4.58-2.27zM472.17 203.37c.05 1 .28 1.82.68 2.44.76 1.17 2.12 1.76 4.05 1.76.87 0 1.65-.13 2.37-.39 1.38-.5 2.07-1.39 2.07-2.67 0-.96-.29-1.65-.88-2.06-.59-.4-1.52-.75-2.78-1.05l-2.32-.54c-1.52-.35-2.59-.74-3.22-1.17-1.09-.74-1.63-1.84-1.63-3.31 0-1.59.54-2.89 1.61-3.91s2.59-1.53 4.55-1.53c1.8 0 3.34.45 4.6 1.34 1.26.89 1.89 2.32 1.89 4.29h-2.25c-.12-.95-.36-1.67-.74-2.18-.7-.92-1.89-1.38-3.57-1.38-1.35 0-2.33.3-2.92.89-.59.59-.89 1.28-.89 2.07 0 .87.35 1.5 1.05 1.9.46.26 1.5.58 3.12.96l2.4.57c1.16.27 2.05.65 2.68 1.12 1.09.83 1.63 2.03 1.63 3.6 0 1.96-.69 3.36-2.08 4.2-1.39.84-3 1.26-4.84 1.26-2.15 0-3.82-.56-5.04-1.69-1.21-1.11-1.81-2.63-1.78-4.54h2.25zM495.07 191.39v10.93c0 1.28.24 2.35.73 3.2.72 1.28 1.93 1.93 3.64 1.93 2.05 0 3.44-.69 4.17-2.08.4-.76.59-1.77.59-3.05v-10.93h2.42v9.94c0 2.17-.29 3.85-.88 5.02-1.08 2.14-3.12 3.2-6.11 3.2s-5.03-1.07-6.1-3.2c-.59-1.17-.88-2.85-.88-5.02v-9.94h2.42zm1.71-4.19h2.25v2.5h-2.25v-2.5zm3.98 0h2.25v2.5h-2.25v-2.5zM517.28 203.37c.05 1 .28 1.82.68 2.44.76 1.17 2.12 1.76 4.05 1.76.87 0 1.65-.13 2.37-.39 1.38-.5 2.07-1.39 2.07-2.67 0-.96-.29-1.65-.88-2.06-.59-.4-1.52-.75-2.78-1.05l-2.32-.54c-1.52-.35-2.59-.74-3.22-1.17-1.09-.74-1.63-1.84-1.63-3.31 0-1.59.54-2.89 1.61-3.91s2.59-1.53 4.55-1.53c1.8 0 3.34.45 4.6 1.34 1.26.89 1.89 2.32 1.89 4.29h-2.25c-.12-.95-.36-1.67-.74-2.18-.7-.92-1.89-1.38-3.57-1.38-1.35 0-2.33.3-2.92.89-.59.59-.89 1.28-.89 2.07 0 .87.35 1.5 1.05 1.9.46.26 1.5.58 3.12.96l2.4.57c1.16.27 2.05.65 2.68 1.12 1.09.83 1.63 2.03 1.63 3.6 0 1.96-.69 3.36-2.08 4.2s-3 1.26-4.84 1.26c-2.15 0-3.82-.56-5.04-1.69-1.21-1.11-1.81-2.63-1.78-4.54h2.25zM550.45 191.39v2.11h-5.96v15.58h-2.42V193.5h-5.96v-2.11h14.34zM558.31 191.39h12.83v2.17h-10.5v5.37h9.71v2.05h-9.71v6h10.68v2.11H558.3V191.4zM580.18 191.39h12.83v2.17h-10.5v5.37h9.71v2.05h-9.71v6h10.68v2.11h-13.02V191.4zM601.77 191.39h3.43l5.09 14.96 5.05-14.96h3.41v17.69h-2.29v-10.44c0-.36 0-.96.02-1.79.02-.84.03-1.73.03-2.69l-5.05 14.92h-2.38l-5.1-14.92v.54c0 .43.01 1.09.04 1.98s.04 1.54.04 1.96v10.44h-2.29v-17.69z"/></g></svg>