<svg id="Layer_1" xmlns="http://www.w3.org/2000/svg" viewBox="0 0 306 340"><defs><style>.cls-1{fill:#0079bb}</style></defs><path class="cls-1" d="M137.95 92.63c.45.77.45 1.27 1.4 1.66.14-.02.3-.1.47-.23l.18-.15.22-1.09.41.07c.17.02.3.02.46-.07.24-.03.6-.14.69-.4l.31-.4c.32-.42.56-.83.56-1.26-.43.11-.72.49-1.14.69-1.17 0-2.01.01-3.09.19-.33.2-.87.61-.46.99M143.9 102c-.17.43-.61.87-.66 1.32.21.35.41.69.71.97.95-1.24 1.79-2.8 1.36-4.3-.2-.5-.37-.83-.7-1.14l-.93.38c.25.9.45 1.85.23 2.78M166.97 112.31v.66c1.26-1.39 2.92-2.27 4.26-3.57.41-.35.86-.59 1.16-1.04-.84.15-1.71.25-2.51.58-1.61.58-2.47 1.73-2.91 3.36"/><path class="cls-1" d="M199.69 114.52c-.24-.61-.46-1.25-.87-1.79-.56-.48-1.12-.95-1.68-1.42l.58-.69-.63-1.2-.68-.94-.88-1.29c-.42-.69-1.05-1.23-1.92-1.79-.65-.36-1.73-.54-2.61-.54h-1.11c-.61 0-1.02-.59-1.28-1.07-.46-.48-.73-1.13-1.02-1.71l.79-.08c.29-.03.56-.09.84-.19 1.6-.35 2.65-.92 3.68-2.18 1.47-1.11 1.59-3.19 1.28-4.76-.25-.85-.65-1.35-1.05-1.69-1.28-1.25-3-1.91-4.64-2.58-1.19-.27-1.85-.74-2.48-1.78l-.02-.64c0-.31.12-.59.25-.82l.13-.2c-1.48-.06-2.72.25-3.91 1.22-.16.18-.28.36-.4.58l-.16.29c-.05.09-.11.18-.17.26l-.13.73c-2.83.31-5.24.86-8 1.5-2.49.69-4.93 1.5-7.43 2.2-1 .18-2.17.59-3.16.76-2.65.37-5.09.56-7.54-.37-.6-.26-.96-.7-1.23-1.27.01-.42.07-.81.16-1.2 1.25-.31 1.54.09 1.96 1.06l.68.25 1.21-.28c.53-.24.89-.56 1.27-1.01l.33-.43c1.05.1 1.91.06 2.88-.35.69-.25 1.34-.6 2-1.01l2-1.29c-3.17-.02-6.09-1.68-9.27-1.5-1.22.01-2.34.35-3.53.77-.91.56-1.92 1.08-2.55 1.96-.8.87-1.23 2.46-1.03 3.65.2 1.35 1.03 2.42 2.08 3.15l1 .54c.3.15.63.29.97.38.57.23 1.15.36 1.77.38 5.82.89 12-2.06 17.69-2.99.48-.19.99-.28 1.51-.36l.62.36.53.25c.83-.39 1.45-.58 2.35-.78 2.32.18 5.02.15 7.1 1.31.45.28.78.4 1.27.49l.32-.78c.85-.89 1.44-.77 2.53-.47.32.86.37 1.25-.09 2.08-.78.77-1.76.65-2.76.79-.83-.2-1.63-.53-2.49-.57-2.15-.45-4.36-.91-6.58-.83-3.27.3-6.38.72-9.56 1.79l-.81.19c-5.48 1.84-11 3.49-16.81 1.06l-3.21-1.23c.22-1.73.38-3.48-.35-5.14-.91-2.29.73-4.49-.06-6.67-.77-.48-1.63-.39-2.47-.25-1.46-.77-3.08-.89-4.65-1.3-.7-.39-1.41-.76-2.21-.93-.63-.18-1.31-.18-1.93 0-1.45.35-2.61.92-4.08 1.18-1.3.83-2.37.67-3.82.67-.23.02-.48.03-.69.17-.49.24-.78.61-.99 1.1-.2 1.14 0 2.39.19 3.51-.01.49-.17.86-.39 1.28l-.29.54c-.46.93-.55 2-.62 3.09-.1 1.55-.22 2.38-.85 3.83-.98-.41-1.55-.69-2.32-1.44l-.6-.62c-.21-.2-.41-.4-.63-.58-1.27-1.25-3.16-2.42-3.18-4.41.22-1.58 1.73-2.84 1.55-4.46-.02-.72-.57-1.37-.98-1.93.3-1.09-.16-1.63-1.02-2.23-.21.18-.12.44-.12.68v.75c-1.16-.08-1.8-.12-2.9-.56-.4-.47-.71-.78-1.33-.97l-.92-.04.87 1.19c-.47.69-.81 1.36-1.14 2.13h-1.7c-.25-.14-.29-.16-.59-.14-.37-.09-.67-.05-1.03.04.5.53.81.92 1.17 1.56l-.31.29c-.35.34-.5.6-.51 1.09-.19.72-.04 1.25.4 1.85.37.71 2.97 1.51 3.75 1.79-1.01.17-2.33.23-3.02 1.1l-.43 1.12c-.32-.08-.64-.16-.94-.29l-.14-.07c.13.63.24 1.02.95 1.27.22.2.43.41.6.65l.35.54c.64.66 1.27.82 2.23.87l1.24-.26c.99-.32 1.82.41 2.24 1.01.35.57.04 1.19-.24 1.7l-.65.35c-.3.14-.45.29-.45.47 0 .23.16.47.26.65.54.9.92 1.46 1.74 2.18.86.89 2 1.46 3.08 2.02 1.42 2.82 2.64 3.65 5.48 4.88l-1.8 1.06-1.57.8c-.55.43-1.17.73-1.79.95-.26.2-.52.39-.84.53l-.88.35c-1.12.37-2.01.35-3.12 0-.59-.09-1.19-.15-1.75-.36-.64-.18-1.31.01-2 .24l-1.21 1.07-.15.5c-.15.39-.39.77-.77.94-1.07.6-.76 2.42-1.48 3.4-.39.49-.57.64-.62 1.25l.54.2c.43-.32.73-.41 1.26-.5l.81.45c.39.24.65.51.93.86 0 .43.01.75.03 1.07l1.08-.55c.82-.43.89-.66 1.92-.64l1.16.05c.62.01.99-.1 1.48-.43l.46-.3c.47.79.74 1.28.69 2.23.59-.3 1.21-.58 1.73-.99l.57-.69 1.07-.44c.49-.48 1-1.04.76-1.8-.02-.63.1-1.02.41-1.54l.29-.5.59.26c.65.41.85.79.86 1.5l-.23.58c.45.1.72.09 1.1-.04 1.1-.02 1.96-.18 2.98-.56.43-.14.6-.18.78-.18 1.58 0 3.06-.24 4.18-1.34l.56-.79c.28-.47.73-.76 1.2-1.03.65.14 1.11.29 1.69.6l.7.39c.23.13.48.24 1.03.42l.68.16c1.59.09 3.34.14 4.7-.63l1.38-.62c.34-.31.68-.44 1.1-.53l.63-.13c.23-.04.43-.1.64-.19 1.2-.35 2.03-.82 3.08-1.48.43-.23.93-.43 1.4-.59l1.43-.49c.87-.3 1.43-.56 2.11-1.03l-1.48-.82c.39-.96.59-1.41 1.58-1.88 1.28-.61 2.68-1.11 3.99-1.66 1.24-.58 2.34-1.18 3.61-1.67l1.85-1.26c2.86-1.53 4.43-2.02 7.68-2.33-.17.47-.32.94-.57 1.37-.18.31-.43.6-.77.79-1.48.99-4.22 1.15-5.89 1.19l-1.7 1.26c-.46.27-.85.7-1.23 1.08l-1.27 2.15-.19.62c-.12.34-.27.65-.51.93-.41.98-.83 1.42-1.51 1.93.71.21 1.39.42 2.09.68-.25.48-.5.97-.79 1.43-1.27.98-2.72.9-4.2.63l-.83-.25c-.95-.39-1.95-.66-2.98-.34-1.1.2-1.64.84-2.11 1.77-.47.51-.52 1.3-.65 1.94l-.39.14c-.46.18-.79.43-.92.83l-.29.86.62-.1c.53-.23.84-.19 1.36.02l.34.33c-.17.69-.13 1.05.05 1.72l.67-.49c.41-.29.83-.53 1.35-.66.25-.1.5-.15.76-.2l.27 1.43.61.37.7-.51c.3-.23.57-.4.93-.51.43-.05.83-.03 1.24.05l.96.19c.61.11.99.09 1.53-.23.19-.08.36-.17.55-.27l1.17-.3c1.36-.01 2.56-.66 3.27-1.81.29-.96 2.29-2.64 3.1-3.37l.09 2.96 1.07-.72c1.62-1.37 2-3.24 4.01-4.51.66-.92 1.2-1.62 1.41-2.76 1.05-2.63.96-3.12 3.24-5.08.73-.62 1.47-1.23 2.18-1.86.15 1.4.19 2.85.61 4.2 0 .38.02.71.2 1.05.3.93.99 1.66 1.82 2.17l1.05.59.84.3.56.22c.94.4 1.16 1.02 1.36 1.84.38 0 .61-.07 1.06-.24.31-.13.59-.32.85-.53 1.32-.92 2.16-.96 3.55-.15l.18.84-.02.56c-.03.29-.14.55-.26.81-.18.12-.35.22-.56.3-.79.15-1.6.11-2.41.11-.86 0-1.88.17-2.63.57-.67.58-.97 1.06-1.17 1.93l.13 1.01-.33.21c-.37.24-.64.5-.7.95-.1.2-.13.41-.14.63v.22c.42-.23.85-.43 1.31-.63l2.24.25c-.31.71-.53 1.12-.43 1.92.4-.26.82-.52 1.29-.73l.85-.36 1.22-.23c.26.04.5.08.75.08.72 0 1.68-.36 2.37-.58-.3.95-.6 1.37.07 2.28.45-.79.9-1.14 1.75-1.51l3.17-.64c.36-.46.43-.94.45-1.6v-.69c-.24-1.12-.59-2.03-.47-3.22-.09-.41.02-.8.03-1.22l-.26-1.52h1.53l.92.19c.35-.31-.02-.84-.18-1.16m-21.65-21.26c-5.43.96-10.7 2.56-16.09 3.7-1.32.18-2.43.18-3.76.18-1.75 0-3.73-.56-5.04-1.47-.65-.36-1.33-1.1-1.54-1.83-.21-.73-.21-1.46.22-2.37.44-.91 1.32-1.83 2.4-2.37 2.64-1.11 5.71-.74 8.4.01.18.13.82.29.84.3-.36.19-.71.37-1.09.53-.96.59-2.54.74-3.51.74-.05.44-.28.92-.67 1.11l-.65.19c-.14-.36-.23-.77-.42-1.1-.75-.6-1.62-.53-2.46-.19-.97.09-1.58 1-1.58 1.89v.75c.66 1.43 1.6 1.82 3.12 2.24 4.69 1.31 9.46-.42 13.93-1.66 1.64-.58 3.37-1.12 5.08-1.48.89-.36 1.74-.55 2.63-.74.6-.17 1.23-.18 1.84-.2l-.76.88c-.28.33-.56.63-.88.91m-55.8 15.16c-.34-.29-.58-.98-.79-1.39l.52-.13.25-.06c.08-.02.14-.03.21-.03.45-.18.95-.23 1.41-.41-.09-.09-.16-.17-.21-.23l-.09-.13c-.06-.08-.13-.14-.2-.21-.5-.91-1.87-.22-2.68-.2-1.43-.35-2.56-.84-3.51-2.02-.21-.18-.38-.36-.55-.58l-.49-.64c.61-.33.77-.47 1.05-1.14.26-.46.43-.98.44-1.51l-.22-.56c-.18-.3-.28-.63-.45-.93l-1.11-.93c-.56-.24-.98-.37-1.57-.37-.29 0-.68.21-.9.37h-1.08c-.44 0-.66-.06-.93-.45-.01-.09-.02-.18 0-.27l.06-.26c.02-.09.03-.19.03-.28 0-.05-.01-.1-.03-.15l-.1-.21c-.05-.12-.08-.24-.09-.38.22-.44.57-.52 1.02-.52h.28c.36-.3.68-.58.91-1.02v-.24c-.1-.44-.22-.81-.45-1.2-.46-.57-1.08-.75-1.79-.76-.34-.12-.87-.19-1.07-.53-.16-.27-.26-.78-.01-1.05l.09-.16c.17-.28.42-.57.79-.57.35-.27.57-.33.7-.77.32-.14.56-.2.94-.2.32 0 .66.04.99.04.04-.41-.18-.76-.18-1.14 0-.35.18-.65.42-.89.68-.17 1.28-.18 1.96 0 .47.23.63.8.63 1.26l.73-.52c.87.1 1.04.86 1.04 1.58-.25.79-.92 1.31-1.11 2.07-.29.97-.42 1.64-.22 2.61.22.92.67 1.67 1.32 2.4.72 1 1.71 1.82 2.66 2.59 1.24 1.22 2.84 2.04 4.18 3.14-.17 1.86.38 3.76 1.33 5.35.52.86.47 1.88.89 2.77.16.26.26.57.39.86h-1.45c-1.55-.19-2.86-.92-3.94-2.01m10.48 8.69c-.06.05-.11.12-.17.16-.42.71-.85 1.45-1.74 1.66-.56.22-1.04.3-1.65.28.15-.31.35-.62.38-.98l.69-1.15c-.38 0-.68.08-.98.16-.08.01-.13.02-.2.02-.48.23-.66.7-.91 1.13-.42.71-1.07 1.08-1.76 1.47-.33.26-.64.28-1.03.2-.21-.68-.42-1.46-1.11-1.87-.79-.33-1.56-.25-2.39-.02l-.14.15-.2.15s-.08.04-.11.07c-.09.06-.2.13-.31.23-.95.66-.41 1.7-.55 2.62l-.05.32-.67-.19-.17-.13c-.21-.15-.43-.23-.74-.23-.59.24-.68.44-.95.97-.37-.25-.51-.32-.77-.7v-.23l-.24-.59c-.77.28-1.06.77-1.38 1.48h-.75a.507.507 0 0 1-.37-.28c-.13-.27-.17-.36-.39-.46l-1.36-.03c-.02-.2-.05-.39-.05-.6 0-.4-.02-.55-.13-.84-.72.27-.85.85-1.14 1.48-.43-.01-.64-.06-.88-.43l-.1-.2-.1-.18c-.18-.28-.32-.35-.64-.49.07-.54.17-.92.45-1.4.45-.39.89-.79 1.37-1.14.21-.14.39-.27.39-.56 0-.09-.05-.18-.07-.27l.27-.25c.83-.32 1.85-.23 2.62.18.99.34 1.79.37 2.89.37 1.28-.35 2.54-.86 3.61-1.66.24-.01.41-.03.61-.19 1.13-.57 2.13-1.35 3.31-1.84.84-.69 1.86-1.06 2.85-1.48.07 0 .13-.01.2-.02l.26-.07.4-.1c.2.1.36.21.52.37l.18.19c.06.07.12.13.19.18 1.04.4 1.48 1.97 2.2 2.77.25.12.47.34.66.52l.3.31c.16.16.33.28.51.43-.23.23-.44.47-.65.72m5.05-.73-.4-.17c-.05-.64-.18-1.18 0-1.82v-.6h-1.41c0 .95-.03 1.55-.41 2.41-.77-.27-1.32-.57-1.95-1.1l-.66-.56c-.69-.4-.86-1.3-.87-1.98.27-.7.17-1.18 0-1.89-.1-.09-.17-.18-.25-.28a.972.972 0 0 0-.3-.22l-.16-.08-.66 1.48c-1.14-1.08-1.88-2.08-2.6-3.46-.2-.95.42-1.75.67-2.61-.02-.51-.42-1.1-.7-1.54l-.82 1.54c-.59-1.24-.91-2.26-.91-3.66 0-.6-.23-1.23-.01-1.82.23-.75.23-1.46.88-2.03.41-.53.71-1.14 1.12-1.67v-.58l-.49-.61c-.26.44-.57.82-.87 1.23.09-1.66.16-3.19 1.13-4.64.18-.63-.1-1.27-.05-1.91l.02-.33c.3.07.56.12.83.28l.16.09c.23.15.38.07.66-.05l.07-.17c.03-.1.05-.2.07-.32.45-.54-.26-1.09-.76-1.2-.34-.07-.63-.14-.95-.25.03-.18.05-.32.05-.49l-.02-.45c.9.05 1.5.17 2.31.58.26-.42.5-.6.89-.76l1.32-.56c.63-.18 1.12-.18 1.76-.18 2.4-1.19 3.73-1.22 5.73.38.2-.16.38-.2.64-.2.99.17 1.88.48 2.65 1.09.34.5 1.07.52 1.58.38.45-.01.82-.1 1.27-.05v1.24c-.94-.1-1.37-.02-2.2.43 0 .54.04.75.25 1.15.07 0 .14-.01.21-.03.3-.08.6-.16.9-.16.26 0 .39.05.62.13v.93c-.35 1.39.6 2.69.61 4.09l-.55.1-.2-.49c-.29.36-.3.9-.52 1.36.03.3.24.51.45.7.24.75.7 1.35 1.1 2.02.46.76.64 1.46.44 2.41 0 1.93-.29 3.33-1.04 5.1l-.35-.65c-.17-.31-.35-.59-.58-.87-.2.47-.43.92-.69 1.37.18.19.21.35.23.5v.24c.3.93.87 1.49.45 2.55-.44 1.47-1.1 2.38-2.18 3.48-.25.09-.38.29-.6.48-.04-1.08.03-1.95-.71-2.87-.68.44-.81.88-.81 1.36 0 .74.2 1.42.1 2.17-.25.35-.63.55-.87.9-.1.04-.2.1-.29.16l-.49.36c-.61.42-1.06.55-1.83.58m40.36-10.63c-.47.53-.98.82-1.42 1.19-1.77 1.06-3.12 2.56-3.55 4.63-.25.46-.26.99-.44 1.47-.2.26-.38.54-.56.81l-.47.69-.46-1.56-.21.19c-.17.14-.23.22-.29.43-.83.61-.5 1.58-.88 2.4-.24 1.19-.83 1.86-1.82 2.51-.13-.24-.14-.32-.31-.49l-.68-2.26c-1.2 1.17-1.59 3.12-3.34 3.73-.47.64-.51 1.3-1.36 1.7l-.17.13c-.29.22-.49.31-.84.4-.46-.65-.81-.93-1.6-1.13-.1.2-.11.25-.02.44l.17.35.07.12c-.3.64-.85 1.09-1.53 1.31h-.93l-.36-.14-.14-.17-.1-.14c-.2-.26-.36-.39-.71-.48-.31 0-.6.06-1.25-.16-.47-.16-.87.14-1.35.16l-.86-.54v-1.31c-.51 0-1.03.34-1.57.38-.26-.23-.37-.32-.43-.68l.66-1.11c.71-.56 1.73-.71 2.61-.54.7.29 2.75.92 3.54.92 1.33 0 2.65-.36 3.56-1.31.95-1.58 1.51-2.8 2.92-4.08-.57-.19-1.03-.05-1.62-.04-.46.18-.74.13-1.22.11.81-1.32 1.72-3.34 2.8-4.29 1.36-1.66 4.06-1.5 5.95-2.02.53-.23 1.02-.53 1.54-.75.56-.32 1.3-.87 1.56-1.49.46-.78.42-1.37.24-2.21 1.48-.12 2.81.02 4.12.75.56.24.91.91 1.09 1.45-.03.28-.14.45-.33.62m17.04 8.75c2.11 1.76.03 4.77 1.62 6.7.25.43.16.8-.01 1.25-.23.37-.63.53-1.06.53h-.44c-.13-.16-.25-.41-.41-.54-.46-.38-1.47.16-1.8.38-.25-.11-.41-.2-.63-.38-.23-.19-.2-.63-.2-.89-.23.06-.49.17-.73.32-.5.06-.75.45-1.11.76l-.16.11a.61.61 0 0 1-.25.08c-.13 0-.24-.05-.34-.12-.37-.32-.71-.43-1.1-.45h-.32c-.13-.34-.19-.56-.19-.91-.81-.16-1.7.14-2.51.18-.03-.42.06-.68.08-1.07.28-.65.73-1.07 1.51-1.07h2.43c1.11 0 2.05-.29 2.91-.97 0-.39.22-.73.22-1.11 0-1.13-.44-2.21-.44-3.34-.14-.1-.23-.12-.37-.09l-.12.03c-.13.03-.17.04-.23.04-.65 0-1.32-.18-1.97-.19-.66-.17-1.45-.03-2 .37-.43.07-.75.49-1.05.76-.84-.89-1.56-1.15-2.67-1.61-.92-.38-1.87-.81-2.42-1.71-.24-.62-.47-1.2-.65-1.84-.01-2.08-.25-4.32-1.43-6.07-.12-.17-.23-.32-.35-.42-.58-.48-1.13-.93-1.77-1.28-3.11-1.31-6.62-.22-9.54 1.1-3.12 1.98-6.51 3.46-9.85 5.03-1.87.87-3.88 1.55-5.53 2.84-.24.48.12 1.22.33 1.6.04.23.31.53.44.72-.58.19-1.14.36-1.73.52-.86 0-1.51-.17-2.17-.73-.61-.5-1.37.02-1.86.41l1.77 1.3c-.36.22-.74.43-1.07.69-1.4.77-2.79.7-4.18-.01-.39.32-.79.56-1.2.77l.91.57-1.92 1.07c-1.28.42-1.91.26-3.13-.08.9-.36 1.99-.72 2.74-1.33.14-.21.33-.34.56-.43l.2-.07.13-.04c.38-.54.63-.72 1.48-1.31.17-.11.32-.23.49-.35.48-.41 1.07-.71 1.33-1.31 1.41-1.61 1-3.89 2.21-5.54 1.09-2.2 1.31-4.61 1.33-7h.61c.71.2 1.33.39 1.98.74 5.63 1.87 11.45.31 16.79-1.66 5.96-1.66 11.7-2.4 17.43-.74.78.22 1.63.18 2.45.18 1.21-.21 2.04-.43 2.88-1.3.46-.57.46-1.2.46-1.89-.22-.55-.44-1.1-.9-1.5-.37-.17-.7-.38-1.12-.38h-1.11c-.28 0-.71.23-.9.38-.42.17-.47.36-.66.72l-.63-.17s-.3-.13-.63-.25c-.69-.26-.63-.23-1.43-.26.52-.52.55-.57 1.13-.91l.16-.1.11-.08c.02-.24-.52-.24-.66-.25a.926.926 0 0 0-.51-.18h-.17c-.62 0-.98.57-1.55.74-.54.18-1.1.23-1.65.23s-1.05-.04-1.57-.06c.39-.49.78-.99 1.26-1.4.58-.65 1.46-.93 2.22-1.33 0-.56.23-1.11.43-1.62l.3-.27c.36-.34.45-.36.93-.5.19 1.21.78 1.97 1.81 2.62 1.14.57 2.42.75 3.56 1.31h.13l.18.08c.11.05.22.08.35.1.46.2.86.49 1.31.73.74.41 1.11 1.24 1.3 2 0 .75 0 1.47-.21 2-.43.9-1.54 1.83-2.41 2.39-1.32.73-3.3.92-5.29.92.24.29.46.52.63.8 1.12 1.15 1.05 2.84 2 4.07.94.57 2.04.56 3.11.56h1.32c1.06.24 1.76 1.03 2.4 1.84.45.57.76.92 1.13 1.57-1.02-.08-2.1-.06-3.09-.36-.18.17-.16.29-.04.8l.13.11c.09.08.18.17.26.27l.1.22c.46.39.67.53 1.28.7l1.09.55c1.23.69 1.77 1.45 2.59 2.52l-3.11.19z"/><path class="cls-1" d="M135.53 89.31c.65.18 1.54-.17 2.24-.18.47-.19.88-.19 1.32-.19.66 0 1.11.19 1.55.19-.18-.49-.44-1-.87-1.37-2.11-.56-3.52.69-6.04-.05.25 1.07.72 1.41 1.8 1.6M140.87 109.05c1.2-.99 1.98-1.86 2.22-3.35l-.7-1.17c-.44 1.07-.77 2.05-1.77 2.79-.65-.12-.82.05-1.14.58v.56c-.45.71-1.02 1.23-1.75 1.63-.23.17-.41.13-.6.13v-1.23h-.97c0 .22-.05.4-.1.58l-.16.54c-1.02-.47-1.18-.88-1.88-1.66-.09-.19-.1-.33-.1-.53 0-.26-.02-.39-.12-.59-.06-.05-.11-.11-.17-.16l-.19-.21c-.17-.17-.36-.29-.58-.38l-.21.54-.45-.54c-.05-.06-.11-.11-.17-.17-.43-.56-.7-1.54-.89-2.24-.5.72-.73 1.4-.49 2.3.09.1.17.19.22.28l.09.13c.04.05.09.1.13.14.11.26.26.49.44.72l.24.29c.08.09.14.2.2.29.28.16.44.37.6.63l.14.25c.11.19.18.28.35.4.05.2.08.27.24.41l.12.11.14.26c.55.45 1.17.8 1.72 1.25.43.18.87.37 1.35.37 1.08-.18 1.77-.73 2.67-1.29.58-.5.96-1.18 1.54-1.67M132.73 92.82c.36 0 .66.01 1 .12l.03.16c.07.36.46.73.69 1.01h.29c.67-.03 1.04-.52 1.07-1.15l.45-1.12c-.78-.39-1.27-.2-2.03-.4-1.01.18-1.75-.21-2.49-.79.14.69.14 1.92.98 2.17"/><path class="cls-1" d="M131.77 97.4c.24.92.6 1.58 1.33 2.23.18 1.11.41 2.22.66 3.31.21.86-.43 1.85.23 2.59.45.56 1.35.94 2.03.94.56 0 1.25.03 1.77-.19.63-.18 1.29-.51 1.57-1.13v-1.13c-.42-.82.23-1.45.23-2.2v-.16c.02-.12.07-.23.15-.32.17-.36.18-.6.18-.98 0-.15 0-.29.02-.43l.05-.28c.72-.29 1.02-.76 1.37-1.41 0-.26.02-.4.17-.62 2.72-.92 2.91-2.1 2.91-4.67-.16-.27-.36-.49-.6-.69l-.3-.25c-.14.24-.17.45-.17.77 0 .27-.01.46-.11.78 0 .72-.2 1.57-.65 2.15-.5.38-1.37.54-1.98.54-.34.71-.56 1.84-1.31 2.21-.52 0-.99.1-1.29-.35a.49.49 0 0 1-.15-.35c0-.12.06-.25.15-.33.36-.57.9-.75.9-1.53-1.3-.52-2.14-.57-3.59-.57-.4.36-.51.66-.24 1.16.02.33.13.49.35.73l.32.32c-.07.07-.17.15-.3.06l.43.36c-.1.13-.16.18-.22.23l-.14.11c-.27.39-.88.52-1.28.35-1.06-.54-1.07-1.46-1.07-2.19-.25-.1-.51-.16-.8-.2-1.6-.27-1.98-1.25-2.5-2.55.01-.76.16-1.35-.04-2.1-.44.34-.91.68-1.15 1.19.2.77.03 1.69.44 2.4.41.85 1.02 1.65 2 1.88.2.14.43.22.64.34m6.3 7.45c-.46.41-1.29.25-1.85.25-.67 0-.83-.09-1.21-.69l.4-.23.18-.11c.46 0 .92-.05 1.38-.05s.78.05 1.2.2l-.09.62zm-3.35-4.84c.74-.19 1.39-.5 2.06-.86.07.09.13.19.22.27l.14.1c.07.04.11.07.17.11.36.16.72.3 1.11.39.14.66-.03 1-.03 1.61 0 .39-.18.75-.4 1.07h-2.89c-.14-.24-.22-.51-.39-.73v-1.96zM190.63 111.24c-.16-.13-.28-.24-.41-.43-.83-.47-1.62-.44-2.63-.36-1.25.09-1.85.13-2.96-.24 0 .11.02.17.21.35l.19.11.08.22c.7.74 1.94.75 2.87.9l2.91-.18c0-.09-.03-.14-.07-.19l-.2-.19zM129.86 99.05c0-.12-.05-.25-.15-.37l-.18-.24-.12-.25v-.11c-.24.07-.47.17-.66.35l-.1.17-.23.11c-.63.93-.62 2.2-.19 3.29.33 1.11.5 1.49 1.18 2.1 0-.56.4-.78.44-1.19-.2-.35-.62-1.47-.7-1.8-.13-.46-.07-.94.3-1.63.07-.13.28-.33.41-.43M137.95 137.07c.45.77.45 1.27 1.4 1.66.14-.02.3-.1.47-.23l.18-.15.22-1.09.41.07c.17.02.3.02.46-.07.24-.03.6-.14.69-.41l.31-.4c.32-.42.56-.83.56-1.26-.43.12-.72.49-1.14.7-1.17 0-2.01.01-3.09.18-.33.2-.87.61-.46 1M143.9 146.44c-.17.43-.61.88-.66 1.32.21.35.41.69.71.97.95-1.24 1.79-2.8 1.36-4.3-.2-.5-.37-.83-.7-1.15l-.93.39c.25.9.45 1.85.23 2.78M135.53 133.75c.65.18 1.54-.16 2.24-.18.47-.18.88-.18 1.32-.18.66 0 1.11.18 1.55.18-.18-.48-.44-.99-.87-1.36-2.11-.56-3.52.69-6.04-.05.25 1.07.72 1.41 1.8 1.6M140.87 153.5c1.2-.99 1.98-1.86 2.22-3.36l-.7-1.16c-.44 1.07-.77 2.05-1.77 2.78-.65-.11-.82.06-1.14.59v.56c-.45.71-1.02 1.23-1.75 1.63-.23.17-.41.13-.6.13v-1.24h-.97c0 .23-.05.41-.1.58l-.16.54c-1.02-.48-1.18-.88-1.88-1.66-.09-.19-.1-.34-.1-.53 0-.26-.02-.39-.12-.58l-.17-.17-.19-.21a1.91 1.91 0 0 0-.58-.39l-.21.55-.45-.55c-.05-.06-.11-.11-.17-.17-.43-.56-.7-1.53-.89-2.24-.5.72-.73 1.4-.49 2.3.09.1.17.19.22.27l.09.14s.09.1.13.14c.11.26.26.49.44.72l.24.3c.08.09.14.19.2.28.28.17.44.37.6.64l.14.26c.11.18.18.27.35.4.05.2.08.27.24.41l.12.11.14.25c.55.45 1.17.81 1.72 1.26.43.18.87.38 1.35.38 1.08-.19 1.77-.74 2.67-1.29.58-.5.96-1.18 1.54-1.67M190.63 155.69c-.16-.12-.28-.24-.41-.43-.83-.47-1.62-.43-2.63-.36-1.25.1-1.85.13-2.96-.23 0 .11.02.17.21.35l.19.11.08.22c.7.74 1.94.75 2.87.9l2.91-.18c0-.09-.03-.15-.07-.19l-.2-.19zM166.97 156.75v.66c1.26-1.4 2.92-2.28 4.26-3.57.41-.35.86-.59 1.16-1.03-.84.14-1.71.25-2.51.58-1.61.58-2.47 1.73-2.91 3.35"/><path class="cls-1" d="M199.69 158.97c-.24-.62-.46-1.25-.87-1.79-.56-.48-1.12-.95-1.68-1.41l.58-.69-.63-1.2-.68-.95-.88-1.3c-.42-.69-1.05-1.24-1.92-1.79-.65-.35-1.73-.53-2.61-.53h-1.11c-.61 0-1.02-.59-1.28-1.07-.46-.48-.73-1.13-1.02-1.72l.79-.08c.29-.04.56-.09.84-.19 1.6-.35 2.65-.92 3.68-2.18 1.47-1.11 1.59-3.19 1.28-4.77-.25-.84-.65-1.35-1.05-1.68-1.28-1.26-3-1.91-4.64-2.58-1.19-.27-1.85-.75-2.48-1.78l-.02-.64c0-.32.12-.58.25-.82l.13-.2c-1.48-.06-2.72.25-3.91 1.22-.16.18-.28.36-.4.58l-.16.29c-.05.09-.11.17-.17.26l-.13.73c-2.83.31-5.24.86-8 1.49-2.49.7-4.93 1.5-7.43 2.21-1 .17-2.17.59-3.16.76-2.65.37-5.09.56-7.54-.37-.6-.25-.96-.7-1.23-1.27.01-.42.07-.81.16-1.21 1.25-.31 1.54.1 1.96 1.06l.68.26 1.21-.28c.53-.24.89-.56 1.27-1.02l.33-.42c1.05.1 1.91.06 2.88-.35.69-.24 1.34-.6 2-1.01l2-1.28c-3.17-.02-6.09-1.68-9.27-1.5-1.22.01-2.34.35-3.53.77-.91.57-1.92 1.08-2.55 1.97-.8.88-1.23 2.47-1.03 3.65.2 1.35 1.03 2.42 2.08 3.15l1 .54c.3.15.63.29.97.38.57.22 1.15.36 1.77.37 5.82.9 12-2.06 17.69-2.98.48-.19.99-.28 1.51-.36l.62.36.53.25c.83-.39 1.45-.59 2.35-.78 2.32.18 5.02.16 7.1 1.31.45.28.78.4 1.27.49l.32-.78c.85-.89 1.44-.77 2.53-.46.32.85.37 1.24-.09 2.07-.78.78-1.76.65-2.76.8-.83-.21-1.63-.54-2.49-.57-2.15-.45-4.36-.9-6.58-.83-3.27.3-6.38.72-9.56 1.79l-.81.18c-5.48 1.84-11 3.49-16.81 1.07l-3.21-1.24c.22-1.73.38-3.47-.35-5.13-.91-2.3.73-4.49-.06-6.67-.77-.47-1.63-.38-2.47-.25-1.46-.77-3.08-.89-4.65-1.3-.7-.39-1.41-.75-2.21-.92-.63-.18-1.31-.18-1.93 0-1.45.34-2.61.91-4.08 1.18-1.3.82-2.37.68-3.82.67-.23.02-.48.03-.69.17-.49.24-.78.62-.99 1.1-.2 1.14 0 2.38.19 3.51-.01.49-.17.87-.39 1.28l-.29.54c-.46.93-.55 2-.62 3.09-.1 1.55-.22 2.38-.85 3.83-.98-.41-1.55-.68-2.32-1.43l-.6-.62c-.21-.2-.41-.4-.63-.59-1.27-1.24-3.16-2.41-3.18-4.4.22-1.59 1.73-2.84 1.55-4.46-.02-.72-.57-1.37-.98-1.93.3-1.1-.16-1.64-1.02-2.23-.21.17-.12.44-.12.68v.74c-1.16-.08-1.8-.12-2.9-.55-.4-.47-.71-.78-1.33-.97l-.92-.04.87 1.18c-.47.69-.81 1.36-1.14 2.13h-1.7c-.25-.13-.29-.15-.59-.13-.37-.08-.67-.05-1.03.04.5.52.81.92 1.17 1.55l-.31.3c-.35.34-.5.6-.51 1.09-.19.71-.04 1.25.4 1.84.37.71 2.97 1.52 3.75 1.79-1.01.18-2.33.24-3.02 1.11l-.43 1.12c-.32-.09-.64-.17-.94-.3l-.14-.07c.13.64.24 1.03.95 1.27.22.2.43.41.6.65l.35.54c.64.66 1.27.82 2.23.87l1.24-.25c.99-.32 1.82.41 2.24 1.01.35.57.04 1.19-.24 1.7l-.65.35c-.3.15-.45.3-.45.48 0 .22.16.45.26.64.54.9.92 1.46 1.74 2.18.86.89 2 1.46 3.08 2.02 1.42 2.82 2.64 3.65 5.48 4.88l-1.8 1.06-1.57.79c-.55.43-1.17.73-1.79.96-.26.2-.52.38-.84.53l-.88.35c-1.12.36-2.01.35-3.12 0-.59-.09-1.19-.15-1.75-.36-.64-.18-1.31.01-2 .24l-1.21 1.07-.15.5c-.15.39-.39.76-.77.94-1.07.6-.76 2.42-1.48 3.39-.39.48-.57.64-.62 1.25l.54.2c.43-.32.73-.41 1.26-.5l.81.46c.39.23.65.51.93.86 0 .43.01.74.03 1.07l1.08-.55c.82-.43.89-.66 1.92-.65l1.16.06c.62 0 .99-.1 1.48-.42l.46-.31c.47.8.74 1.28.69 2.23.59-.3 1.21-.58 1.73-.99l.57-.69 1.07-.44c.49-.47 1-1.05.76-1.81-.02-.62.1-1.01.41-1.54l.29-.5.59.27c.65.4.85.79.86 1.49l-.23.59c.45.1.72.08 1.1-.05 1.1-.02 1.96-.18 2.98-.57.43-.14.6-.17.78-.17 1.58 0 3.06-.24 4.18-1.34l.56-.78c.28-.48.73-.77 1.2-1.03.65.13 1.11.29 1.69.6l.7.38c.23.12.48.24 1.03.42l.68.16c1.59.08 3.34.12 4.7-.62l1.38-.63c.34-.31.68-.44 1.1-.53l.63-.13c.23-.05.43-.11.64-.19 1.2-.35 2.03-.82 3.08-1.47.43-.23.93-.43 1.4-.59l1.43-.48c.87-.3 1.43-.56 2.11-1.04l-1.48-.82c.39-.96.59-1.41 1.58-1.89 1.28-.61 2.68-1.11 3.99-1.66 1.24-.58 2.34-1.18 3.61-1.67l1.85-1.26c2.86-1.53 4.43-2.02 7.68-2.33-.17.47-.32.94-.57 1.38-.18.31-.43.6-.77.79-1.48.99-4.22 1.14-5.89 1.19l-1.7 1.26c-.46.28-.85.69-1.23 1.08l-1.27 2.15-.19.62c-.12.34-.27.65-.51.93-.41.97-.83 1.42-1.51 1.93.71.21 1.39.42 2.09.68-.25.48-.5.96-.79 1.42-1.27.98-2.72.9-4.2.62l-.83-.24c-.95-.39-1.95-.66-2.98-.34-1.1.2-1.64.84-2.11 1.77-.47.51-.52 1.29-.65 1.94l-.39.14c-.46.18-.79.41-.92.82l-.29.86.62-.1c.53-.23.84-.19 1.36.02l.34.34c-.17.69-.13 1.05.05 1.72l.67-.5c.41-.28.83-.52 1.35-.65.25-.1.5-.15.76-.21l.27 1.43.61.37.7-.51c.3-.22.57-.39.93-.51.43-.05.83-.03 1.24.04l.96.2c.61.11.99.09 1.53-.23.19-.07.36-.16.55-.27l1.17-.29c1.36-.02 2.56-.67 3.27-1.82.29-.95 2.29-2.63 3.1-3.36l.09 2.95 1.07-.72c1.62-1.36 2-3.23 4.01-4.51.66-.93 1.2-1.61 1.41-2.77 1.05-2.62.96-3.12 3.24-5.07.73-.62 1.47-1.24 2.18-1.86.15 1.39.19 2.85.61 4.19 0 .38.02.71.2 1.04.3.94.99 1.67 1.82 2.18l1.05.59.84.29.56.23c.94.41 1.16 1.02 1.36 1.84.38 0 .61-.08 1.06-.24.31-.12.59-.32.85-.54 1.32-.91 2.16-.95 3.55-.15l.18.85-.02.55c-.03.29-.14.56-.26.82-.18.12-.35.22-.56.3-.79.15-1.6.12-2.41.12-.86 0-1.88.17-2.63.57-.67.57-.97 1.05-1.17 1.93l.13 1.02-.33.2c-.37.24-.64.51-.7.95-.1.19-.13.41-.14.63v.22c.42-.23.85-.43 1.31-.63l2.24.24c-.31.72-.53 1.12-.43 1.93.4-.27.82-.53 1.29-.73l.85-.36 1.22-.23c.26.04.5.08.75.08.72 0 1.68-.36 2.37-.58-.3.96-.6 1.38.07 2.29.45-.79.9-1.13 1.75-1.51l3.17-.64c.36-.46.43-.94.45-1.6v-.69c-.24-1.13-.59-2.04-.47-3.23-.09-.41.02-.81.03-1.22l-.26-1.52h1.53l.92.2c.35-.31-.02-.84-.18-1.16m-21.65-21.26c-5.43.95-10.7 2.55-16.09 3.69-1.32.19-2.43.19-3.76.19-1.75 0-3.73-.56-5.04-1.46-.65-.36-1.33-1.1-1.54-1.83-.21-.74-.21-1.46.22-2.38.44-.9 1.32-1.82 2.4-2.37 2.64-1.11 5.71-.73 8.4.01.18.13.82.3.84.3-.36.19-.71.38-1.09.53-.96.59-2.54.74-3.51.74-.05.44-.28.93-.67 1.11l-.65.18c-.14-.36-.23-.76-.42-1.1-.75-.6-1.62-.53-2.46-.2-.97.09-1.58 1-1.58 1.89v.75c.66 1.44 1.6 1.82 3.12 2.24 4.69 1.31 9.46-.41 13.93-1.66 1.64-.59 3.37-1.11 5.08-1.48.89-.37 1.74-.55 2.63-.74.6-.17 1.23-.18 1.84-.2l-.76.88c-.28.32-.56.63-.88.91m-55.8 15.15c-.34-.28-.58-.98-.79-1.39l.52-.12.25-.06c.08-.02.14-.03.21-.03.45-.18.95-.23 1.41-.41-.09-.09-.16-.16-.21-.24l-.09-.13c-.06-.07-.13-.14-.2-.2-.5-.91-1.87-.22-2.68-.19-1.43-.35-2.56-.85-3.51-2.02-.21-.18-.38-.36-.55-.58l-.49-.64c.61-.33.77-.48 1.05-1.14.26-.45.43-.97.44-1.5l-.22-.56c-.18-.3-.28-.63-.45-.93l-1.11-.93c-.56-.24-.98-.38-1.57-.38-.29 0-.68.22-.9.37h-1.08c-.44 0-.66-.06-.93-.44-.01-.1-.02-.19 0-.28l.06-.26c.02-.09.03-.18.03-.28 0-.05-.01-.1-.03-.14l-.1-.21a1.18 1.18 0 0 1-.09-.37c.22-.45.57-.53 1.02-.53h.28c.36-.31.68-.59.91-1.02v-.24c-.1-.44-.22-.81-.45-1.19-.46-.57-1.08-.75-1.79-.76-.34-.13-.87-.19-1.07-.53-.16-.27-.26-.79-.01-1.05l.09-.16c.17-.28.42-.58.79-.58.35-.27.57-.32.7-.77.32-.14.56-.2.94-.2.32 0 .66.05.99.05.04-.42-.18-.76-.18-1.15 0-.34.18-.65.42-.89.68-.17 1.28-.18 1.96 0 .47.23.63.79.63 1.26l.73-.52c.87.1 1.04.86 1.04 1.58-.25.78-.92 1.31-1.11 2.06-.29.97-.42 1.63-.22 2.62.22.92.67 1.67 1.32 2.4.72 1 1.71 1.81 2.66 2.59 1.24 1.22 2.84 2.04 4.18 3.13-.17 1.86.38 3.77 1.33 5.36.52.86.47 1.88.89 2.77.16.27.26.58.39.87h-1.45c-1.55-.19-2.86-.93-3.94-2.02m10.48 8.69c-.06.06-.11.12-.17.17-.42.71-.85 1.45-1.74 1.65-.56.23-1.04.31-1.65.29.15-.32.35-.64.38-.98l.69-1.15c-.38 0-.68.08-.98.15-.08.02-.13.03-.2.03-.48.23-.66.71-.91 1.13-.42.7-1.07 1.08-1.76 1.47-.33.27-.64.28-1.03.21-.21-.69-.42-1.47-1.11-1.87-.79-.33-1.56-.25-2.39-.02l-.14.15-.2.15-.11.07c-.09.06-.2.13-.31.23-.95.66-.41 1.7-.55 2.62l-.05.32-.67-.2-.17-.13c-.21-.15-.43-.23-.74-.23-.59.25-.68.44-.95.97-.37-.25-.51-.32-.77-.69v-.25l-.24-.58c-.77.29-1.06.76-1.38 1.47h-.75a.507.507 0 0 1-.37-.28c-.13-.27-.17-.36-.39-.46l-1.36-.03c-.02-.21-.05-.39-.05-.6 0-.4-.02-.55-.13-.84-.72.27-.85.85-1.14 1.48-.43-.01-.64-.07-.88-.44l-.1-.19-.1-.18c-.18-.29-.32-.36-.64-.5.07-.53.17-.92.45-1.4.45-.38.89-.79 1.37-1.13.21-.15.39-.28.39-.56 0-.09-.05-.18-.07-.27l.27-.25c.83-.32 1.85-.24 2.62.19.99.33 1.79.37 2.89.37 1.28-.36 2.54-.86 3.61-1.66.24 0 .41-.04.61-.19 1.13-.57 2.13-1.35 3.31-1.84.84-.69 1.86-1.06 2.85-1.47.07 0 .13-.01.2-.03l.26-.06.4-.1c.2.1.36.2.52.37l.18.2c.06.06.12.12.19.18 1.04.4 1.48 1.97 2.2 2.77.25.12.47.33.66.52l.3.31c.16.17.33.29.51.43-.23.23-.44.47-.65.72m5.05-.73-.4-.16c-.05-.64-.18-1.18 0-1.82v-.6h-1.41c0 .96-.03 1.55-.41 2.41-.77-.27-1.32-.56-1.95-1.1l-.66-.56c-.69-.4-.86-1.3-.87-1.99.27-.7.17-1.17 0-1.88-.1-.09-.17-.18-.25-.28a.972.972 0 0 0-.3-.22l-.16-.08-.66 1.47c-1.14-1.07-1.88-2.07-2.6-3.46-.2-.95.42-1.75.67-2.61-.02-.51-.42-1.1-.7-1.54l-.82 1.54c-.59-1.24-.91-2.26-.91-3.66 0-.6-.23-1.23-.01-1.81.23-.76.23-1.47.88-2.03.41-.53.71-1.14 1.12-1.67v-.59l-.49-.6c-.26.44-.57.81-.87 1.22.09-1.66.16-3.2 1.13-4.64.18-.63-.1-1.27-.05-1.91l.02-.33c.3.07.56.13.83.29l.16.09c.23.14.38.07.66-.05l.07-.17c.03-.11.05-.21.07-.32.45-.55-.26-1.09-.76-1.21-.34-.08-.63-.14-.95-.25.03-.17.05-.31.05-.49l-.02-.45c.9.05 1.5.17 2.31.58.26-.41.5-.59.89-.75l1.32-.56c.63-.17 1.12-.18 1.76-.18 2.4-1.19 3.73-1.22 5.73.37.2-.15.38-.19.64-.19.99.16 1.88.47 2.65 1.09.34.5 1.07.52 1.58.39.45-.01.82-.1 1.27-.05v1.24c-.94-.1-1.37-.02-2.2.43 0 .53.04.75.25 1.15.07 0 .14-.01.21-.03.3-.07.6-.15.9-.15.26 0 .39.05.62.13v.93c-.35 1.38.6 2.69.61 4.08l-.55.11-.2-.51c-.29.37-.3.9-.52 1.36.03.3.24.52.45.71.24.74.7 1.35 1.1 2.02.46.77.64 1.46.44 2.41 0 1.92-.29 3.32-1.04 5.1l-.35-.65c-.17-.31-.35-.59-.58-.87-.2.47-.43.93-.69 1.37.18.2.21.35.23.5v.25c.3.93.87 1.49.45 2.55-.44 1.48-1.1 2.39-2.18 3.47-.25.09-.38.3-.6.49-.04-1.08.03-1.96-.71-2.87-.68.44-.81.88-.81 1.36 0 .74.2 1.42.1 2.17-.25.36-.63.56-.87.91-.1.05-.2.1-.29.17l-.49.35c-.61.43-1.06.55-1.83.58m40.36-10.62c-.47.53-.98.82-1.42 1.18-1.77 1.07-3.12 2.57-3.55 4.63-.25.45-.26.99-.44 1.47-.2.26-.38.54-.56.81l-.47.69-.46-1.55-.21.18c-.17.14-.23.22-.29.43-.83.61-.5 1.57-.88 2.4-.24 1.19-.83 1.85-1.82 2.5-.13-.24-.14-.31-.31-.49l-.68-2.26c-1.2 1.17-1.59 3.12-3.34 3.73-.47.64-.51 1.3-1.36 1.69l-.17.14c-.29.22-.49.3-.84.4-.46-.66-.81-.93-1.6-1.12-.1.19-.11.25-.02.44l.17.35.07.12c-.3.64-.85 1.1-1.53 1.31h-.93l-.36-.14-.14-.17-.1-.15c-.2-.25-.36-.39-.71-.48-.31.01-.6.06-1.25-.16-.47-.16-.87.14-1.35.17l-.86-.54v-1.31c-.51 0-1.03.33-1.57.37-.26-.23-.37-.32-.43-.68l.66-1.11c.71-.56 1.73-.71 2.61-.53.7.29 2.75.92 3.54.92 1.33 0 2.65-.36 3.56-1.31.95-1.58 1.51-2.81 2.92-4.09-.57-.18-1.03-.04-1.62-.03-.46.18-.74.14-1.22.1.81-1.32 1.72-3.34 2.8-4.28 1.36-1.67 4.06-1.5 5.95-2.02.53-.23 1.02-.52 1.54-.75.56-.31 1.3-.86 1.56-1.49.46-.78.42-1.37.24-2.21 1.48-.12 2.81.02 4.12.76.56.24.91.91 1.09 1.45-.03.28-.14.45-.33.62m17.04 8.75c2.11 1.77.03 4.77 1.62 6.71.25.43.16.81-.01 1.26-.23.36-.63.53-1.06.53h-.44c-.13-.17-.25-.4-.41-.55-.46-.39-1.47.17-1.8.38-.25-.11-.41-.2-.63-.38-.23-.19-.2-.63-.2-.9-.23.07-.49.17-.73.33-.5.06-.75.45-1.11.76l-.16.12a.61.61 0 0 1-.25.08c-.13 0-.24-.06-.34-.13-.37-.31-.71-.43-1.1-.45h-.32c-.13-.33-.19-.56-.19-.91-.81-.17-1.7.14-2.51.17-.03-.41.06-.68.08-1.07.28-.65.73-1.07 1.51-1.07h2.43c1.11 0 2.05-.28 2.91-.97 0-.38.22-.73.22-1.11 0-1.12-.44-2.2-.44-3.33a.412.412 0 0 0-.37-.1l-.12.03c-.13.03-.17.04-.23.04-.65 0-1.32-.18-1.97-.19-.66-.17-1.45-.03-2 .36-.43.07-.75.49-1.05.76-.84-.89-1.56-1.15-2.67-1.6-.92-.39-1.87-.82-2.42-1.71-.24-.61-.47-1.2-.65-1.84-.01-2.08-.25-4.31-1.43-6.06-.12-.17-.23-.32-.35-.42-.58-.48-1.13-.93-1.77-1.29-3.11-1.3-6.62-.21-9.54 1.11-3.12 1.98-6.51 3.46-9.85 5.02-1.87.87-3.88 1.55-5.53 2.84-.24.47.12 1.22.33 1.59.04.23.31.53.44.72-.58.2-1.14.37-1.73.53-.86-.01-1.51-.17-2.17-.73-.61-.51-1.37.02-1.86.4l1.77 1.3c-.36.22-.74.42-1.07.69-1.4.77-2.79.7-4.18-.02-.39.32-.79.55-1.2.77l.91.57-1.92 1.07c-1.28.42-1.91.26-3.13-.09.9-.35 1.99-.72 2.74-1.33.14-.21.33-.34.56-.43l.2-.07.13-.05c.38-.53.63-.72 1.48-1.31.17-.11.32-.23.49-.36.48-.4 1.07-.71 1.33-1.3 1.41-1.61 1-3.89 2.21-5.54 1.09-2.19 1.31-4.6 1.33-6.99h.61c.71.2 1.33.39 1.98.74 5.63 1.87 11.45.31 16.79-1.66 5.96-1.66 11.7-2.4 17.43-.75.78.22 1.63.19 2.45.19 1.21-.2 2.04-.43 2.88-1.3.46-.57.46-1.2.46-1.89-.22-.55-.44-1.1-.9-1.5-.37-.16-.7-.38-1.12-.38h-1.11c-.28 0-.71.23-.9.38-.42.18-.47.37-.66.73l-.63-.17s-.3-.13-.63-.25c-.69-.26-.63-.23-1.43-.26.52-.52.55-.57 1.13-.92l.16-.1.11-.07c.02-.25-.52-.25-.66-.26a.926.926 0 0 0-.51-.18h-.17c-.62 0-.98.57-1.55.74-.54.18-1.1.23-1.65.23s-1.05-.03-1.57-.06c.39-.48.78-.99 1.26-1.4.58-.65 1.46-.94 2.22-1.33 0-.56.23-1.11.43-1.62l.3-.27c.36-.34.45-.36.93-.5.19 1.21.78 1.97 1.81 2.62 1.14.57 2.42.74 3.56 1.31h.13l.18.08c.11.05.22.08.35.1.46.2.86.48 1.31.73.74.41 1.11 1.23 1.3 2 0 .75 0 1.47-.21 2-.43.91-1.54 1.84-2.41 2.4-1.32.73-3.3.92-5.29.92.24.28.46.52.63.8 1.12 1.16 1.05 2.85 2 4.07.94.57 2.04.56 3.11.56h1.32c1.06.24 1.76 1.03 2.4 1.83.45.58.76.93 1.13 1.58-1.02-.09-2.1-.06-3.09-.36-.18.18-.16.28-.04.8l.13.11c.09.09.18.17.26.27l.1.22c.46.39.67.54 1.28.7l1.09.55c1.23.68 1.77 1.45 2.59 2.51l-3.11.19z"/><path class="cls-1" d="M132.73 137.27c.36 0 .66.01 1 .12l.03.16c.07.36.46.74.69 1h.29c.67-.03 1.04-.52 1.07-1.14l.45-1.12c-.78-.39-1.27-.21-2.03-.4-1.01.18-1.75-.22-2.49-.8.14.69.14 1.92.98 2.17"/><path class="cls-1" d="M131.77 141.85c.24.92.6 1.58 1.33 2.23.18 1.1.41 2.21.66 3.3.21.87-.43 1.85.23 2.59.45.57 1.35.94 2.03.94.56 0 1.25.03 1.77-.18.63-.17 1.29-.51 1.57-1.14v-1.12c-.42-.82.23-1.45.23-2.2v-.16c.02-.12.07-.23.15-.32.17-.36.18-.6.18-.98 0-.15 0-.3.02-.43l.05-.28c.72-.28 1.02-.75 1.37-1.41 0-.26.02-.4.17-.63 2.72-.92 2.91-2.1 2.91-4.67-.16-.26-.36-.47-.6-.69l-.3-.25c-.14.24-.17.47-.17.77 0 .27-.01.46-.11.78 0 .71-.2 1.57-.65 2.15-.5.39-1.37.55-1.98.55-.34.7-.56 1.84-1.31 2.21-.52 0-.99.1-1.29-.35-.09-.09-.15-.21-.15-.34s.06-.25.15-.34c.36-.57.9-.75.9-1.52-1.3-.52-2.14-.57-3.59-.57-.4.36-.51.66-.24 1.16.02.32.13.5.35.72l.32.32c-.07.08-.17.16-.3.07l.43.36c-.1.13-.16.18-.22.23l-.14.11c-.27.39-.88.52-1.28.35-1.06-.55-1.07-1.47-1.07-2.2-.25-.1-.51-.15-.8-.2-1.6-.27-1.98-1.25-2.5-2.56.01-.76.16-1.35-.04-2.1-.44.34-.91.68-1.15 1.19.2.77.03 1.69.44 2.4.41.85 1.02 1.64 2 1.88.2.14.43.22.64.34m6.3 7.45c-.46.41-1.29.25-1.85.25-.67 0-.83-.08-1.21-.69l.4-.23.18-.11c.46 0 .92-.04 1.38-.04s.78.04 1.2.2l-.09.62zm-3.35-4.84c.74-.19 1.39-.5 2.06-.86.07.09.13.19.22.27l.14.1c.07.04.11.07.17.11.36.16.72.3 1.11.39.14.66-.03 1-.03 1.61 0 .38-.18.75-.4 1.06h-2.89c-.14-.24-.22-.51-.39-.73v-1.96zM129.86 143.5c0-.12-.05-.25-.15-.37l-.18-.24-.12-.25v-.11c-.24.08-.47.17-.66.35l-.1.17-.23.12c-.63.93-.62 2.2-.19 3.29.33 1.12.5 1.49 1.18 2.1 0-.56.4-.78.44-1.2-.2-.35-.62-1.47-.7-1.8-.13-.47-.07-.94.3-1.62.07-.13.28-.33.41-.43M171.78 193.85c.24-.43.4-.91.57-1.37-3.25.31-4.83.79-7.68 2.33l-1.85 1.26c-1.26.49-2.37 1.09-3.61 1.67-1.31.55-2.71 1.04-4 1.66-.99.48-1.19.93-1.58 1.89l1.48.82c-.68.47-1.24.74-2.11 1.03l-1.43.49c-.47.16-.96.36-1.4.59-1.06.66-1.88 1.12-3.09 1.48-.21.09-.41.14-.64.19l-.63.12c-.43.1-.76.23-1.1.54l-1.38.63c-1.36.75-3.11.7-4.7.62l-.68-.15c-.55-.19-.81-.3-1.03-.43l-.7-.39c-.58-.31-1.05-.46-1.69-.6-.47.27-.92.56-1.2 1.03l-.56.78c-1.12 1.1-2.59 1.34-4.18 1.34-.17 0-.35.03-.78.17-1.02.38-1.88.55-2.98.57-.39.13-.65.14-1.1.04l.23-.59c0-.7-.21-1.09-.86-1.49l-.59-.27-.29.5c-.31.53-.43.92-.41 1.54.24.76-.26 1.33-.76 1.8l-1.07.44-.57.68c-.52.42-1.14.7-1.73 1 .05-.94-.22-1.43-.69-2.23l-.46.3c-.49.32-.86.43-1.48.43l-1.16-.06c-1.03 0-1.1.22-1.92.65l-1.07.55c-.02-.32-.03-.64-.03-1.06-.28-.36-.53-.63-.92-.87l-.81-.45c-.53.08-.83.18-1.26.5l-.54-.2c.06-.61.23-.76.62-1.25.73-.97.41-2.79 1.48-3.4.37-.18.62-.55.77-.94l.15-.5 1.21-1.07c.7-.23 1.37-.42 2-.24.56.2 1.17.27 1.75.36 1.11.35 2 .38 3.12 0l.88-.34c.32-.14.59-.33.84-.53.62-.23 1.25-.52 1.8-.95l1.57-.8 1.79-1.05c-2.84-1.23-4.06-2.06-5.48-4.89-1.08-.55-2.22-1.13-3.08-2.02-.81-.71-1.2-1.28-1.74-2.18-.1-.18-.26-.42-.26-.65 0-.18.14-.33.45-.48l.65-.35c.28-.52.59-1.14.24-1.7-.42-.6-1.25-1.33-2.24-1.01l-1.23.25c-.96-.05-1.6-.2-2.23-.87l-.35-.54c-.17-.24-.38-.44-.6-.65-.7-.25-.82-.64-.95-1.27l.14.06c.3.14.62.21.94.3l.43-1.12c.7-.87 2.01-.93 3.02-1.11-.78-.27-3.38-1.08-3.75-1.79-.44-.59-.59-1.12-.4-1.84.02-.5.16-.75.51-1.1l.31-.29c-.36-.63-.67-1.03-1.17-1.55.36-.09.66-.13 1.03-.04.3-.02.34-.01.59.12h1.7c.32-.76.67-1.43 1.14-2.12l-.87-1.19.92.04c.62.18.92.5 1.33.97 1.1.43 1.75.47 2.9.55v-.74c0-.24-.09-.51.12-.68.86.59 1.31 1.14 1.01 2.23.41.56.96 1.21.98 1.93.18 1.62-1.33 2.87-1.55 4.46.02 1.99 1.9 3.16 3.18 4.4.22.19.43.38.64.58l.6.62c.78.76 1.34 1.02 2.32 1.44.64-1.45.76-2.28.85-3.83.07-1.09.15-2.16.62-3.09l.29-.54c.22-.42.37-.79.39-1.28-.19-1.12-.39-2.37-.19-3.51.21-.49.5-.86.99-1.1.2-.14.46-.15.69-.17 1.45 0 2.52.14 3.82-.67 1.47-.27 2.62-.83 4.08-1.18.62-.18 1.3-.18 1.93 0 .8.17 1.5.53 2.2.92 1.57.41 3.19.53 4.65 1.31.84-.14 1.69-.23 2.47.25.79 2.17-.84 4.38.06 6.66.74 1.66.57 3.42.35 5.14l3.21 1.24c5.81 2.43 11.33.77 16.81-1.07l.81-.18c3.17-1.07 6.28-1.49 9.56-1.79 2.22-.07 4.43.39 6.58.84.86.03 1.66.36 2.49.57 1-.15 1.98-.02 2.76-.8.47-.82.42-1.22.09-2.07-1.08-.31-1.67-.42-2.53.46l-.32.78a3.2 3.2 0 0 1-1.27-.49c-2.08-1.16-4.79-1.12-7.1-1.31-.9.2-1.52.4-2.35.79l-.53-.25-.62-.36c-.52.09-1.03.17-1.51.36-5.69.93-11.87 3.88-17.69 2.98a5.14 5.14 0 0 1-1.77-.37c-.33-.1-.66-.24-.97-.38l-1-.54c-1.05-.73-1.88-1.79-2.07-3.15-.2-1.18.23-2.77 1.03-3.65.63-.89 1.64-1.41 2.55-1.96 1.19-.42 2.31-.76 3.53-.77 3.18-.18 6.1 1.47 9.27 1.49l-2 1.29c-.66.41-1.3.76-2 1.02-.97.41-1.83.44-2.87.35l-.34.43c-.38.45-.74.77-1.27 1.01l-1.21.28-.68-.25c-.42-.97-.71-1.37-1.96-1.07-.09.41-.15.8-.16 1.21.27.57.62 1.01 1.23 1.27 2.46.93 4.9.74 7.54.37 1-.17 2.17-.58 3.16-.76 2.5-.7 4.94-1.51 7.43-2.21 2.76-.63 5.18-1.19 8-1.49l.13-.73c.07-.09.13-.17.17-.26l.16-.29c.12-.22.24-.41.4-.58 1.19-.97 2.43-1.27 3.91-1.22l-.13.19c-.14.23-.26.51-.26.82l.02.65c.64 1.02 1.29 1.5 2.48 1.78 1.64.67 3.36 1.32 4.64 2.58.39.33.8.84 1.05 1.68.31 1.58.19 3.66-1.28 4.76-1.04 1.27-2.09 1.84-3.68 2.19-.28.1-.55.16-.84.2l-.79.08c.29.58.56 1.24 1.02 1.71.25.47.67 1.07 1.28 1.07h1.11c.88 0 1.96.18 2.61.55.87.55 1.5 1.09 1.92 1.78l.88 1.29.68.94.63 1.2-.58.69c.57.46 1.12.94 1.69 1.42.4.53.62 1.18.87 1.79.16.32.53.85.18 1.16l-.92-.19h-1.53l.26 1.52c0 .41-.13.79-.03 1.22-.12 1.19.23 2.1.47 3.22v.7c-.02.64-.09 1.12-.45 1.58l-3.17.64c-.85.38-1.31.72-1.76 1.52-.67-.91-.37-1.33-.07-2.28-.69.22-1.65.58-2.37.58-.25 0-.49-.04-.75-.08l-1.22.23-.85.36c-.47.21-.89.46-1.29.73-.09-.81.13-1.22.43-1.93l-2.24-.24c-.46.19-.89.39-1.32.62v-.22c.02-.22.05-.43.15-.63.07-.44.33-.71.7-.95l.33-.2-.13-1.02c.2-.87.5-1.35 1.17-1.93.75-.4 1.77-.57 2.63-.57.81 0 1.62.03 2.41-.12.21-.07.37-.18.56-.29.12-.27.22-.53.25-.81l.02-.56-.18-.85c-1.4-.79-2.24-.76-3.55.15-.27.22-.54.41-.85.54-.45.17-.68.25-1.06.25-.19-.83-.41-1.44-1.35-1.84l-.56-.23-.84-.29-1.05-.59c-.83-.51-1.51-1.23-1.82-2.17-.18-.35-.2-.66-.2-1.05-.42-1.34-.46-2.8-.61-4.2-.72.64-1.45 1.24-2.18 1.87-2.27 1.96-2.19 2.44-3.24 5.07-.21 1.15-.75 1.85-1.41 2.76-2.01 1.27-2.39 3.15-4.01 4.51l-1.08.72-.09-2.95c-.81.74-2.81 2.4-3.1 3.36-.71 1.15-1.91 1.8-3.27 1.81l-1.17.31c-.18.1-.36.19-.55.27-.54.32-.92.33-1.53.23l-.96-.2c-.42-.07-.81-.09-1.24-.04-.35.11-.63.29-.92.51l-.7.52-.61-.37-.27-1.43c-.26.05-.51.11-.76.2-.52.13-.93.37-1.35.65l-.67.5c-.18-.66-.21-1.02-.05-1.72l-.34-.33c-.52-.22-.83-.25-1.36-.03l-.62.11.29-.86c.13-.41.47-.65.92-.83l.39-.14c.13-.65.18-1.43.65-1.94.47-.94 1.01-1.57 2.11-1.77 1.03-.33 2.03-.06 2.98.33l.83.25c1.48.27 2.92.34 4.2-.63.29-.47.55-.94.79-1.43-.69-.25-1.37-.47-2.08-.67.68-.51 1.1-.96 1.51-1.93.24-.29.39-.6.51-.93l.19-.63 1.27-2.15c.39-.38.77-.8 1.23-1.08l1.7-1.25c1.67-.05 4.41-.2 5.89-1.2.35-.19.59-.49.77-.79m-31.6-18.58c-1.99-1.59-3.32-1.57-5.72-.38-.64 0-1.13 0-1.76.18l-1.32.55c-.39.17-.62.35-.89.76-.8-.41-1.41-.53-2.31-.58l.02.45c0 .18-.02.32-.05.49.31.11.61.18.95.26.51.11 1.21.65.76 1.2-.02.11-.04.21-.07.32l-.08.16c-.28.12-.43.2-.66.05l-.16-.1c-.26-.15-.53-.21-.83-.28l-.02.33c-.06.63.23 1.28.05 1.91-.97 1.45-1.04 2.99-1.13 4.64.31-.41.61-.79.87-1.23l.49.61v.58c-.41.53-.71 1.15-1.12 1.67-.65.57-.65 1.28-.88 2.03-.22.58.01 1.22.01 1.82 0 1.4.32 2.42.91 3.66l.81-1.53c.28.42.68 1.03.7 1.53-.26.86-.87 1.66-.67 2.6.72 1.4 1.46 2.4 2.6 3.48l.66-1.48.16.08c.12.05.22.12.3.22.08.1.15.19.25.28.17.7.28 1.18 0 1.88.01.68.18 1.58.87 1.98l.66.56c.63.53 1.17.82 1.95 1.1.38-.86.41-1.45.41-2.41h1.41v.6c-.18.64-.04 1.18 0 1.82l.41.17c.77-.03 1.22-.16 1.83-.58l.49-.35c.09-.06.19-.12.29-.16.24-.35.62-.55.87-.91.1-.75-.1-1.43-.1-2.17 0-.48.13-.93.81-1.37.74.92.67 1.8.71 2.87.22-.19.34-.39.6-.48 1.08-1.1 1.74-2 2.18-3.48.42-1.07-.16-1.63-.45-2.56v-.25c-.01-.15-.05-.3-.23-.49.26-.45.49-.9.69-1.37.22.27.41.55.58.86l.35.65c.75-1.77 1.04-3.17 1.04-5.09.2-.95.02-1.65-.44-2.41-.4-.67-.86-1.28-1.1-2.02-.21-.2-.42-.41-.45-.7.22-.47.23-1 .52-1.36l.2.5.55-.11c0-1.38-.95-2.69-.61-4.08v-.93c-.24-.08-.37-.13-.62-.13-.31 0-.6.08-.9.15-.07.02-.14.03-.21.03-.22-.39-.26-.62-.26-1.15.83-.45 1.26-.53 2.2-.43v-1.24c-.45-.05-.83.03-1.27.04-.51.13-1.24.11-1.58-.38-.76-.62-1.65-.93-2.65-1.09-.26 0-.44.03-.64.2m22.44 2.73c-2.69-.76-5.76-1.12-8.4-.01-1.08.55-1.96 1.46-2.4 2.37-.43.91-.43 1.64-.22 2.37.21.73.89 1.47 1.54 1.83 1.32.91 3.3 1.46 5.04 1.46 1.33 0 2.44 0 3.76-.18 5.39-1.13 10.66-2.73 16.09-3.69.32-.28.59-.59.88-.91l.76-.88c-.61.03-1.24.03-1.84.2-.9.19-1.75.37-2.63.74-1.71.36-3.44.89-5.08 1.48-4.47 1.25-9.24 2.96-13.93 1.66-1.51-.42-2.45-.81-3.12-2.23v-.75c0-.89.61-1.81 1.58-1.89.84-.34 1.71-.4 2.46.2.18.33.28.74.41 1.1l.65-.19c.39-.19.63-.66.67-1.11.97 0 2.55-.15 3.51-.74.38-.16.73-.34 1.09-.54-.02 0-.65-.17-.84-.3m-50.75 27.82c0 .28-.19.41-.39.56-.49.35-.92.75-1.37 1.14-.28.47-.38.86-.45 1.4.31.14.46.21.63.49l.1.18.1.21c.24.37.45.42.88.43.3-.63.43-1.21 1.14-1.48.11.29.13.44.13.84 0 .21.02.4.05.6l1.36.03c.21.1.26.19.39.46.08.15.2.25.37.27h.75c.32-.7.61-1.19 1.38-1.47l.24.58v.24c.26.37.4.44.77.69.27-.52.36-.72.95-.97.31 0 .53.09.74.24l.17.14.67.18.05-.31c.14-.93-.4-1.97.55-2.63.11-.1.21-.17.31-.23.03-.02.07-.05.11-.07l.2-.15.14-.15c.83-.23 1.6-.3 2.39.03.69.4.9 1.17 1.11 1.87.4.07.7.06 1.03-.21.69-.39 1.34-.76 1.76-1.46.25-.42.43-.9.91-1.12.08 0 .12-.01.2-.03.3-.08.6-.15.98-.15l-.69 1.15c-.03.35-.23.67-.38.98.61.01 1.09-.05 1.65-.28.89-.2 1.33-.95 1.74-1.66.06-.06.12-.11.17-.17.22-.25.43-.49.65-.72-.19-.13-.35-.27-.51-.43l-.3-.31c-.19-.19-.41-.4-.66-.53-.73-.79-1.17-2.37-2.2-2.76-.07-.06-.13-.11-.19-.18l-.18-.19c-.16-.17-.32-.27-.52-.37l-.4.1-.26.07c-.07.01-.12.02-.2.02-.99.42-2.02.78-2.85 1.48-1.17.49-2.18 1.27-3.31 1.84-.2.16-.37.18-.61.19-1.07.8-2.33 1.31-3.61 1.66-1.1 0-1.89-.05-2.89-.38-.77-.42-1.79-.51-2.62-.19l-.27.26c.02.08.07.17.07.26m57.98-.94c.38-.83.05-1.78.88-2.4.06-.2.13-.27.29-.42l.21-.19.46 1.56.47-.69c.18-.28.35-.55.56-.81.18-.48.19-1.02.44-1.48.43-2.07 1.78-3.57 3.55-4.63.44-.37.95-.65 1.42-1.19.2-.18.31-.34.34-.63-.17-.53-.52-1.2-1.08-1.45-1.31-.73-2.64-.88-4.12-.75.17.84.22 1.43-.24 2.21-.27.63-1 1.17-1.56 1.49-.53.23-1.02.52-1.54.74-1.9.52-4.6.36-5.95 2.02-1.08.94-1.99 2.97-2.8 4.28.48.03.76.08 1.22-.11.59 0 1.05-.14 1.62.05-1.4 1.28-1.96 2.5-2.92 4.08-.91.94-2.22 1.31-3.56 1.31-.8 0-2.84-.63-3.54-.92-.88-.17-1.9-.02-2.61.55l-.66 1.1c.06.36.17.45.43.68.53-.04 1.05-.37 1.56-.37v1.31l.86.54c.48-.03.88-.32 1.35-.16.65.22.93.16 1.25.16.35.1.51.23.71.48l.1.15.14.17.36.13h.93c.68-.22 1.23-.67 1.54-1.3l-.07-.13-.17-.35c-.09-.18-.08-.24.02-.43.79.19 1.15.47 1.6 1.12.34-.1.55-.19.84-.41l.17-.13c.84-.39.89-1.06 1.36-1.7 1.75-.61 2.14-2.55 3.34-3.72l.68 2.26c.17.17.18.25.31.49.99-.65 1.58-1.32 1.82-2.52m-28.06-.02c-.23.09-.43.23-.56.44-.75.61-1.84.97-2.74 1.33 1.22.34 1.85.5 3.13.08l1.92-1.07-.91-.57c.42-.22.81-.45 1.2-.77 1.39.71 2.78.79 4.18.01.32-.27.7-.48 1.07-.69l-1.77-1.3c.49-.38 1.25-.91 1.86-.41.66.56 1.31.71 2.17.72.59-.16 1.16-.33 1.73-.53-.14-.19-.4-.48-.44-.72-.21-.37-.57-1.11-.34-1.59 1.65-1.3 3.66-1.96 5.53-2.85 3.33-1.56 6.73-3.04 9.85-5.02 2.92-1.31 6.43-2.4 9.54-1.1.64.36 1.19.81 1.77 1.29.12.11.23.25.35.42 1.18 1.75 1.42 3.99 1.43 6.07.18.63.42 1.22.65 1.84.55.9 1.5 1.32 2.42 1.71 1.11.46 1.83.72 2.67 1.61.31-.27.63-.69 1.05-.76.55-.4 1.34-.53 2-.37.66 0 1.32.18 1.97.18.05 0 .1 0 .23-.03l.12-.04c.14-.03.23-.01.37.09 0 1.13.44 2.21.44 3.34 0 .39-.22.73-.22 1.11-.86.67-1.8.97-2.91.97h-2.43c-.78 0-1.23.42-1.51 1.07-.02.39-.11.66-.07 1.07.81-.04 1.7-.33 2.51-.18 0 .34.06.58.19.9l.32.02c.39.02.73.13 1.1.44.1.07.21.13.34.13.09 0 .18-.03.26-.08l.16-.12c.36-.3.6-.7 1.11-.76.24-.16.5-.26.73-.33 0 .26-.03.7.2.9.22.18.38.26.63.37.34-.22 1.35-.77 1.8-.37.16.13.28.37.41.54h.44c.43 0 .83-.16 1.06-.53.17-.45.26-.82.01-1.25-1.58-1.93.5-4.94-1.62-6.71l3.11-.19c-.82-1.06-1.36-1.83-2.59-2.52l-1.09-.55c-.6-.17-.82-.32-1.28-.7l-.1-.22c-.08-.1-.17-.19-.26-.27l-.14-.12c-.12-.51-.14-.62.04-.8.99.3 2.07.27 3.09.36-.37-.65-.68-1-1.13-1.57-.64-.81-1.34-1.6-2.4-1.84h-1.32c-1.07 0-2.17.01-3.11-.56-.95-1.22-.88-2.91-2-4.07-.17-.28-.39-.52-.63-.81 1.99 0 3.97-.19 5.29-.92.87-.56 1.97-1.48 2.41-2.39.2-.53.21-1.25.21-2-.18-.76-.56-1.59-1.3-2-.45-.25-.85-.53-1.31-.74a1.08 1.08 0 0 1-.35-.1l-.18-.07-.13-.02c-1.14-.55-2.42-.74-3.56-1.31-1.03-.65-1.62-1.41-1.81-2.62-.47.14-.57.17-.92.5l-.3.27c-.2.52-.43 1.07-.43 1.63-.76.39-1.64.68-2.22 1.33-.48.41-.87.91-1.26 1.39.52.02 1.04.06 1.57.06s1.11-.04 1.65-.23c.57-.17.92-.74 1.55-.74h.17c.2 0 .35.07.51.19.14 0 .68.01.66.26l-.11.07-.16.1c-.58.34-.61.39-1.13.91.8.02.74 0 1.43.26.33.11.63.24.63.24l.63.18c.19-.36.24-.55.66-.72.19-.16.62-.38.9-.38h1.11c.42 0 .75.22 1.12.38.46.4.68.95.9 1.5 0 .69 0 1.31-.46 1.89-.84.87-1.66 1.09-2.87 1.29-.82 0-1.66.03-2.45-.19-5.73-1.65-11.47-.91-17.43.75-5.34 1.97-11.16 3.53-16.79 1.66-.65-.36-1.27-.55-1.98-.74h-.61c-.03 2.4-.25 4.81-1.33 7-1.21 1.64-.8 3.93-2.21 5.54-.26.59-.85.9-1.33 1.31-.16.12-.32.24-.49.35-.85.58-1.11.77-1.48 1.3l-.13.05-.2.07zm-28.38-22.42v.24c-.22.43-.53.72-.9 1.02h-.28c-.45 0-.8.08-1.02.52.01.14.04.26.09.37l.1.22s.04.09.04.15c0 .09-.01.18-.03.28l-.06.25c-.02.1-.01.19 0 .28.27.38.49.44.93.44h1.09c.22-.16.61-.36.9-.36.59 0 1 .13 1.57.37l1.11.92c.17.3.27.64.45.94l.22.56c-.01.54-.18 1.05-.44 1.51-.28.66-.44.81-1.05 1.13l.49.64c.17.22.35.4.55.58.95 1.17 2.08 1.67 3.51 2.02.81-.02 2.18-.72 2.68.19l.2.2.09.14c.05.07.12.14.21.24-.46.18-.96.23-1.41.41-.07 0-.13.01-.21.03l-.26.06-.52.11c.21.42.45 1.11.78 1.4 1.08 1.09 2.39 1.83 3.95 2.02h1.45c-.12-.29-.23-.6-.39-.87-.41-.88-.37-1.91-.89-2.77-.95-1.59-1.5-3.5-1.33-5.35-1.35-1.1-2.94-1.91-4.19-3.14-.94-.78-1.94-1.59-2.66-2.59-.65-.72-1.1-1.47-1.32-2.39-.2-.99-.07-1.65.22-2.62.19-.75.86-1.28 1.11-2.06 0-.72-.17-1.48-1.04-1.58l-.73.52c0-.46-.16-1.03-.63-1.25-.68-.18-1.28-.17-1.96 0-.24.24-.42.54-.42.89 0 .38.22.74.18 1.14-.33 0-.66-.04-.99-.04-.37 0-.61.05-.93.2-.13.44-.36.5-.7.76-.37 0-.61.3-.79.58l-.09.16c-.24.27-.15.78.01 1.05.21.34.73.41 1.07.54.7 0 1.33.19 1.79.76.23.39.35.76.44 1.19m26.6.36-.18.15c-.17.14-.32.22-.47.23-.95-.39-.95-.9-1.4-1.66-.4-.39.13-.8.46-1 1.09-.17 1.93-.18 3.09-.18.42-.2.72-.58 1.14-.7 0 .44-.24.85-.56 1.27l-.31.4c-.09.27-.45.37-.69.41-.16.08-.29.09-.46.07l-.4-.07-.22 1.09zm-11.25 4.52c.19-.18.41-.28.66-.35v.11l.12.25.18.23c.1.13.15.26.15.37-.12.1-.34.3-.41.44-.37.68-.43 1.16-.3 1.63.08.33.51 1.45.7 1.8-.04.42-.44.62-.44 1.19-.68-.61-.85-.98-1.18-2.1-.43-1.09-.44-2.37.19-3.29l.23-.13.1-.16zm4.97-10.72c2.51.74 3.92-.51 6.03.05.42.37.68.89.87 1.37-.44 0-.88-.19-1.55-.19-.44 0-.84 0-1.32.19-.7.01-1.59.35-2.24.18-1.08-.19-1.55-.54-1.8-1.6m.03 5.4-.03-.16c-.35-.11-.64-.13-1-.13-.83-.25-.84-1.47-.98-2.17.74.58 1.48.98 2.49.79.76.2 1.25.01 2.03.4l-.45 1.12c-.03.62-.39 1.12-1.07 1.13h-.29c-.23-.27-.63-.64-.69-.99m9.48 10.2c.05-.44.49-.89.66-1.32.22-.93.02-1.89-.23-2.78l.94-.39c.33.32.51.65.7 1.15.43 1.5-.42 3.06-1.36 4.3-.3-.27-.5-.61-.71-.96m-7.17 6.25c.05-.17.1-.35.1-.58h.97v1.23c.18 0 .37.05.6-.12.73-.41 1.29-.93 1.75-1.64v-.56c.32-.53.5-.7 1.14-.59 1-.73 1.32-1.71 1.77-2.78l.7 1.16c-.25 1.5-1.03 2.37-2.22 3.36-.58.49-.96 1.17-1.54 1.67-.9.56-1.59 1.11-2.67 1.29-.47 0-.91-.19-1.35-.37-.55-.45-1.17-.81-1.72-1.25l-.14-.26-.12-.11c-.16-.14-.19-.21-.24-.41-.17-.12-.24-.22-.35-.4l-.14-.26a1.72 1.72 0 0 0-.59-.64c-.06-.1-.13-.2-.2-.29l-.24-.3c-.18-.23-.33-.45-.44-.71-.05-.05-.09-.09-.13-.14l-.09-.14c-.05-.09-.13-.18-.22-.27-.24-.91 0-1.59.49-2.31.2.7.46 1.67.89 2.23l.17.17.45.55.21-.55c.22.1.4.22.58.39l.19.21c.05.06.11.11.17.16.1.19.12.33.12.58 0 .2 0 .34.1.53.7.78.86 1.19 1.87 1.66l.16-.55zm-.32-12.04-.32-.32c-.22-.23-.33-.4-.35-.73-.27-.49-.15-.79.24-1.16 1.45 0 2.29.05 3.59.57 0 .78-.55.96-.9 1.53-.09.09-.15.22-.15.34 0 .13.06.25.15.35.31.45.77.35 1.29.35.75-.36.97-1.49 1.31-2.2.61 0 1.48-.16 1.98-.55.44-.58.64-1.44.65-2.14.1-.32.11-.51.11-.78 0-.31.03-.52.17-.77l.3.26c.24.2.44.42.6.69 0 2.56-.19 3.75-2.91 4.67-.15.23-.17.36-.17.62-.35.66-.65 1.12-1.37 1.41l-.05.28c-.02.12-.02.28-.02.43 0 .38 0 .62-.18.98-.08.09-.13.2-.15.32v.16c0 .75-.65 1.37-.23 2.2v1.13c-.28.63-.94.96-1.57 1.13-.53.22-1.22.18-1.77.18-.68 0-1.58-.38-2.03-.94-.65-.74-.02-1.73-.22-2.6-.25-1.09-.47-2.2-.66-3.31-.73-.64-1.08-1.3-1.33-2.23-.21-.12-.44-.19-.64-.33-.98-.24-1.6-1.03-2-1.88-.41-.7-.24-1.62-.44-2.4.24-.51.71-.86 1.15-1.19.19.75.05 1.34.04 2.1.53 1.31.9 2.28 2.5 2.55.29.05.55.1.8.2 0 .73.01 1.65 1.07 2.19.4.16 1.01.03 1.28-.35l.14-.11c.06-.05.12-.11.22-.23l-.43-.36c.13.09.23 0 .3-.07m2.32 7.34.09-.63c-.42-.15-.74-.2-1.2-.2s-.92.04-1.38.04l-.18.11-.4.23c.39.61.54.69 1.21.69.56 0 1.4.16 1.85-.25m-2.29-2.15h2.21c.22-.31.4-.68.4-1.06 0-.61.17-.95.03-1.61-.39-.09-.74-.23-1.11-.4-.06-.03-.1-.07-.17-.11l-.14-.1c-.09-.08-.16-.19-.22-.27-.67.36-1.32.66-2.06.85v1.97c.17.22.25.49.39.73h.68zm34.11 6.24c.8-.33 1.66-.44 2.51-.58-.3.45-.75.68-1.16 1.03-1.33 1.3-3 2.17-4.26 3.57v-.66c.44-1.62 1.29-2.78 2.91-3.36m14.97 1.62c-.18-.18-.21-.24-.21-.35 1.11.36 1.71.33 2.96.23 1.01-.07 1.81-.11 2.63.36.12.19.25.31.41.43l.2.19s.07.1.07.19l-2.91.18c-.93-.15-2.17-.16-2.87-.9l-.08-.22-.19-.11z"/><path class="cls-1" d="M305.93 150.41C305.93 67.34 237.47 0 153 0S.07 67.34.07 150.41c0 16.53 2.7 32.43 7.71 47.31-.05.2-.08.43-.11.67-.14 1.41.45 2.24 1.34 2.83 21.18 58.07 77.66 99.59 143.99 99.59s122.78-41.51 143.97-99.55c.92-.59 1.55-1.43 1.4-2.87-.03-.28-.07-.52-.13-.75 4.99-14.85 7.69-30.73 7.69-47.23M13.89 204.5l-.43-1.07c.14.11.27.23.38.37.14.16.13.39.05.7m1.25 1.79c1.39-3.76-.53-4.28-4.2-5.85-2.54-1.08-1.62-2.68-.06-3.74 3.14-2.16 1.46-4.55-.16-7.65-.71-1.35-.93-2.22-.28-3.03 1.16-1.43 3.91-.08 5.55.34 6.14 1.57 4.32-2.94 7.15-3.72 1.46-.4 2.46 2.07 3.19 3.06 2.45 3.3 3.84 2 5.45 1.15.8.99 1.96 1.66 3.28 1.86-.23 1.38.76 2.56 1.71 3.76.28 1.05.71 2.04 1.48 2.81-.23.91-3.27 1.74-3.05 5.15.27 4.11 6.3 4.54 7.32 7.29.2.53-.1 1.05-.51 1.66l-15.38-8.99 14.02 11.95c-.06.64.04 1.36.38 2.2.42 1.03 1.16 1.76 2.02 2.33-.97.78-1.62 1.89-1.83 3.11-.88.52-1.51 1.51-1.82 2.63-.55-.81.1-2.01-1.59-3.41-3.22-2.66-8.21.77-10.69-1.16-2.41-1.86.32-4.58-2.13-6.61-.87-.73-1.92-1.02-2.9-1.14-2.69-.35-8.75.93-6.95-4m3.58-37.17c-.39-1.06-1.14-1.82-1.93-2.41-2.15-1.62-8.05-3.5-3.98-6.87 3.11-2.57 1.71-3.97-.66-7.13-1.65-2.2-.03-3.12 1.85-3.28 3.82-.32 3.58-3.21 3.75-6.69.07-1.52.32-2.39 1.29-2.76 1.73-.67 3.43 1.85 4.64 3.02 4.52 4.37 5.23-.43 8.08.3 1.46.36 1.09 3 1.22 4.2.66 6.15 4.57 2 6.69 4.83 1.58 2.11-2.44 6.13-1.12 9.71 1.1 2.96 4.63 1.36 5.59 4.22.98 2.96-3.99 6.39-2.56 10.28.19.49.38.86.58 1.14-.41.72-.68 1.68-.74 2.87-.03.77-.02 1.58-.09 2.37-.06.79-.2 1.36-.39 1.76.07-.34.1-.68.1-1.04 0-2.82-2.33-5.11-5.21-5.11-.26 0-.53.02-.79.06l-8.69-18.34 5.95 19.64a5.04 5.04 0 0 0-1.67 3.75c0 .62.11 1.2.31 1.75-.44.25-.91.5-1.46.7-1.06.36-2.49-2.31-2.96-3.01-.19-.28-.39-.54-.58-.76l-.06-.16c-1.44-3.88-7.49-3.37-8.67-6.26-1.14-2.79 2.61-3.82 1.51-6.77m243.2-2.87c.95-2.86 4.49-1.27 5.59-4.22 1.32-3.58-2.7-7.6-1.12-9.71 2.12-2.83 6.03 1.32 6.69-4.83.13-1.2-.25-3.84 1.22-4.2 2.84-.73 3.56 4.08 8.08-.3 1.2-1.17 2.9-3.69 4.63-3.02.97.37 1.22 1.24 1.3 2.76.17 3.47-.08 6.37 3.75 6.69 1.89.16 3.5 1.08 1.85 3.28-2.38 3.16-3.77 4.56-.66 7.13 4.07 3.37-1.83 5.25-3.99 6.87-.78.59-1.53 1.35-1.93 2.41-1.1 2.96 2.66 3.98 1.51 6.77-1.18 2.88-7.23 2.37-8.67 6.26l-.06.16c-.2.22-.39.48-.58.76-.47.7-1.91 3.37-2.96 3.01-.55-.2-1.01-.45-1.46-.7.2-.55.31-1.13.31-1.75 0-1.48-.64-2.82-1.67-3.75l5.94-19.64-8.68 18.34a5.19 5.19 0 0 0-.8-.06c-2.87 0-5.21 2.29-5.21 5.11 0 .36.04.7.1 1.04-.19-.4-.32-.97-.39-1.76-.06-.79-.05-1.6-.09-2.37-.06-1.19-.33-2.15-.74-2.87.2-.28.41-.65.58-1.14 1.44-3.89-3.53-7.32-2.54-10.28m11.53 17.38c0 1.76-1.44 3.18-3.23 3.18s-3.23-1.42-3.23-3.18 1.44-3.17 3.23-3.17 3.23 1.42 3.23 3.17m-6.68 3.84c.68.59 1.51 1 2.44 1.19.21.51.09 1.19-.59 2.09-2.38 3.17-3.78 4.56-.67 7.14 4.08 3.37-1.82 5.24-3.98 6.86-.79.6-1.54 1.36-1.94 2.42-1.09 2.96 2.66 3.98 1.52 6.78-.38.92-1.25 1.5-2.32 1.98l-.18-.06c-2.78-.73-5.64.89-6.38 3.63-.16.57-.22 1.15-.17 1.71-.68-.46-1.54-.72-2.95-.51-1.59.24-2.55 1.27-3.29 2.51-.36-.48-.8-.89-1.32-1.22l7.6-24.36-9.76 20.26-1.37 3.3a5.2 5.2 0 0 0-2.48 1c-1.66-1.25-3.42-.17-4.3-1.59-.55-1.93-.7-3.49.58-3.9.68-.22 1.4-.56 1.97-2.1 1.44-3.89-3.54-7.32-2.55-10.28.96-2.86 4.49-1.27 5.59-4.23 1.32-3.57-2.7-7.59-1.13-9.7 2.11-2.83 6.03 1.31 6.7-4.83.13-1.21-.26-3.84 1.21-4.21 2.84-.72 3.57 4.09 8.08-.3 1.21-1.16 2.91-3.69 4.64-3.01.98.38 1.22 1.24 1.3 2.75.17 3.49-.08 6.38 3.75 6.7m-3.95 34.18c-.47 1.69-2.23 2.7-3.96 2.25-1.73-.46-2.74-2.2-2.29-3.89.47-1.69 2.23-2.7 3.97-2.25a3.18 3.18 0 0 1 2.28 3.89m-15.61 5.44c-.46 1.69-2.24 2.7-3.96 2.24-1.72-.45-2.75-2.19-2.29-3.89.46-1.7 2.24-2.7 3.96-2.25 1.72.45 2.74 2.2 2.29 3.89m-8.13.6c-1.75 2.35-2.4 3.69.27 5.9 3.74 3.11-.95 4.94-3.4 6.48a5.166 5.166 0 0 0-2.99 3.38c-.59 2.19.35 4.42 2.17 5.6-.03.19-.09.39-.18.6-.98-.53-2.34-.62-4.18.28-.76.37-3.36 1.98-4.09 1.13-1.04-1.19-1.29-2.51-2.73-3.2l3.76-18.09-7.73 17.52a5.115 5.115 0 0 0-1.77-1.65c-2.49-1.41-5.67-.58-7.11 1.87-.12.2-.23.41-.32.64-.07-.5-.21-.97-.39-1.45.06-.22.14-.47.24-.73.28-.74.64-1.48.94-2.19 1.23-2.97.39-5.09-1.7-5.56 1.38-.51 3.06-.56 3.75-2.44 1.32-3.56-2.7-7.59-1.12-9.7 2.11-2.83 6.03 1.32 6.7-4.83.13-1.2-.25-3.84 1.21-4.21 2.84-.71 3.56 4.09 8.08-.29 1.21-1.16 2.91-3.69 4.64-3.02.98.38 1.23 1.24 1.3 2.75.17 3.48-.07 6.38 3.75 6.7.56.05 1.09.16 1.52.35-.28.42-.49.9-.63 1.41-.25.93-.22 1.88.03 2.75m-.25 14.03c1.72.45 2.75 2.19 2.29 3.89-.46 1.69-2.23 2.7-3.96 2.24-1.72-.45-2.75-2.19-2.28-3.89.46-1.69 2.24-2.7 3.96-2.24m-20.41 9.95a3.263 3.263 0 0 1-4.42 1.15 3.141 3.141 0 0 1-1.18-4.34c.89-1.51 2.87-2.03 4.41-1.16 1.54.88 2.08 2.83 1.19 4.35m-11.3 9.22c2.25 4.75-3.91 3.99-6.56 4.56-.97.21-1.98.59-2.79 1.39-.73.71-1.22 1.49-1.48 2.42-.1.42-.16.83-.17 1.24-.76-.45-1.86-.61-3.33-.31-.84.17-3.77 1.06-4.25.06-.85-1.76-.48-3.38-2.88-4.45l12.47-12.98-15.74 11.84a5.122 5.122 0 0 0-3.68-3.59 5.22 5.22 0 0 0-3.52.29c.43-2.77-.8-6.02.8-7.69 2.09-2.19 4.61.72 6.88-1.51 2.73-2.69.81-8.01 3.15-9.27 3.13-1.69 4.9 3.7 8.13-1.59.64-1.04 1.43-3.58 2.91-3.31 2.89.53 1.47 5.18 7.45 3.09 1.59-.56 4.22-2.14 5.5-.81.71.75.58 1.63-.01 3.04-1.34 3.21-2.79 5.73.49 7.61.18 1.04.69 2.03 1.5 2.8-.22.33-.6.64-1.18.96-3.53 1.88-5.38 2.57-3.67 6.2m-2.67 10.52c-.47 1.7-2.24 2.71-3.96 2.26-1.73-.46-2.75-2.21-2.29-3.9.46-1.69 2.23-2.69 3.95-2.24 1.73.46 2.75 2.2 2.3 3.89m-31.71-8.46c-1.25 1.22-1.83-.3-3.97 1.61l-1.65-10.39c1.81-1.93 3.04-7.49 6.61-6.87 2.43.43 3.73 2.12 4.33 4.27-.58-.41-2.37-.2-3.28 1.05-2.5 3.41.05 8.25-2.06 10.33m-.51 2.15c-.03.16-.05.32-.07.47a4.28 4.28 0 0 0-.83-.41c.28.02.57.02.9-.06m-38.91-2.15c-2.11-2.08.43-6.92-2.06-10.33-.92-1.25-2.63-1.75-3.21-1.34.39-1.37 1.7-3.55 4.12-3.98 3.58-.62 4.9 4.88 6.73 6.79l-1.71 10.39c-2.05-1.83-2.63-.31-3.87-1.53m1.4 2.21c-.31.12-.59.25-.83.41-.01-.15-.03-.31-.07-.47.33.08.62.08.9.06m-14.32.65c-2.39 1.07-2.03 2.69-2.87 4.45-.47.99-3.42.1-4.25-.06-1.48-.31-2.57-.14-3.34.31 0-.41-.06-.82-.18-1.24-.24-.92-.74-1.71-1.47-2.42-.81-.8-1.82-1.18-2.79-1.39-2.65-.57-8.8.18-6.55-4.56 1.71-3.63-.15-4.31-3.67-6.2-.58-.31-.97-.63-1.18-.96.8-.76 1.3-1.75 1.49-2.8 3.28-1.88 1.82-4.39.49-7.61-.58-1.41-.73-2.29-.01-3.04 1.28-1.32 3.91.25 5.5.81 5.98 2.08 4.57-2.57 7.46-3.09 1.49-.27 2.27 2.27 2.91 3.31 3.24 5.29 5-.1 8.14 1.59 2.33 1.25.41 6.57 3.14 9.27 2.27 2.23 4.8-.69 6.89 1.51 1.59 1.67.37 4.92.8 7.69a5.254 5.254 0 0 0-3.53-.29c-1.85.48-3.2 1.89-3.68 3.59L108 252.85l12.45 12.98zm-14.83 7.86c-1.73.45-3.49-.56-3.95-2.26-.46-1.69.55-3.43 2.28-3.89 1.73-.45 3.5.55 3.95 2.24.46 1.69-.55 3.44-2.28 3.9m-17.74-28.03c-.73.41-1.33.99-1.76 1.65l-7.73-17.52 3.76 18.09c-1.46.69-1.69 2.01-2.73 3.2-.73.85-3.33-.76-4.09-1.13-1.84-.9-3.21-.81-4.18-.28-.09-.21-.14-.41-.18-.6 1.82-1.18 2.76-3.41 2.16-5.6a5.152 5.152 0 0 0-2.98-3.38c-2.45-1.54-7.15-3.37-3.4-6.48 2.68-2.21 2.02-3.55.26-5.9.26-.87.29-1.82.03-2.75-.14-.51-.36-.99-.63-1.41.43-.19.96-.31 1.52-.35 3.82-.32 3.58-3.21 3.75-6.7.07-1.52.32-2.38 1.29-2.75 1.73-.68 3.43 1.85 4.64 3.02 4.52 4.38 5.24-.42 8.08.29 1.46.37 1.08 3.01 1.21 4.21.66 6.14 4.58 2 6.69 4.83 1.58 2.11-2.44 6.14-1.12 9.7.69 1.88 2.37 1.93 3.74 2.44-2.1.47-2.93 2.59-1.71 5.56.3.71.65 1.45.94 2.19.11.27.18.51.24.73-.18.47-.32.95-.4 1.45-.08-.22-.19-.43-.31-.64-1.44-2.45-4.62-3.28-7.12-1.87m4.22 7.18c-1.54.89-3.51.36-4.41-1.15-.89-1.52-.36-3.47 1.18-4.35 1.55-.88 3.53-.35 4.42 1.16.89 1.53.36 3.48-1.19 4.34m-23.15-4.97c-1.73.45-3.5-.55-3.96-2.24a3.16 3.16 0 0 1 2.28-3.89c1.72-.46 3.5.55 3.96 2.24.47 1.7-.56 3.44-2.28 3.89m1.2-32.38c-.69-.48-1.34-.37-1.73-1.43-.82-2.21 2.22-4.9 2.74-7.94a101.6 101.6 0 0 0 7.94 9.86c-.7-.61-1.37-1.47-2.15-2.26-3.08-3.11-6.25-2.2-6.79 1.77m24.94 14.54c3.73 2.63 7.65 5.02 11.75 7.14-.48.41-.91.92-1.25 1.5-1.4 2.4-3.49.87-5.92-.04-.2-.07-.38-.14-.56-.2-1.58-2.58-4.59-1.78-5.11-3.17-.54-1.46.43-3.31 1.1-5.23m18.02 10.1c1.08.47 2.19.92 3.3 1.36-.41.18-.85.36-1.35.49-.68.18-1.41-.87-1.95-1.85m9.54 3.55c2.72.86 5.5 1.61 8.32 2.23-2.42.78-3.98 3.47-5.05 5.44-.63.09-1.17.09-1.54-.28-1.54-1.51-.79-4.91-1.73-7.39m5.26 19.28c1.73-.45 3.5.56 3.96 2.25.46 1.7-.56 3.44-2.29 3.89-1.72.46-3.49-.55-3.96-2.24-.46-1.7.56-3.45 2.29-3.9m7.99-16.08c5.56.96 11.3 1.45 17.15 1.45s11.62-.49 17.22-1.46c-1.78 1.38-2.53 3.67-3.49 5.25h-7.39l-.08-1.23h-12.52l-.08 1.23h-7.33c-.97-1.58-1.71-3.86-3.47-5.24m5.13 6.99h5.54l-2.66 37.12-8.53-1.19 5.64-35.93zm7.54-1.24h3.5l1.07 12.21 1.05-12.21h3.34l3.14 40.26h-6.47l-1.06-12.26-1.07 12.26h-6.64l3.14-40.26zm10.95 1.24h5.55l5.64 35.93-8.53 1.2-2.67-37.13zm15.65-7.96c2.82-.64 5.6-1.38 8.35-2.25-.96 2.48-.2 5.89-1.74 7.41-.37.37-.9.37-1.55.28-1.06-1.98-2.64-4.69-5.06-5.44m-.89 19.3c.47-1.69 2.24-2.7 3.96-2.25 1.73.45 2.75 2.2 2.29 3.9-.46 1.69-2.24 2.7-3.95 2.24-1.73-.45-2.75-2.19-2.29-3.89m15.44-23.73c1.12-.44 2.24-.9 3.35-1.38-.55 1-1.28 2.06-1.98 1.88-.51-.13-.95-.32-1.38-.5m9.59-4.33c4.09-2.11 8.02-4.51 11.75-7.14.66 1.92 1.65 3.78 1.1 5.26-.51 1.39-3.53.59-5.1 3.17-.19.06-.38.12-.57.2-2.43.91-4.52 2.44-5.92.04-.35-.58-.79-1.11-1.27-1.52m27.55-21c2.93-3.18 5.64-6.55 8.13-10.09.49 3.07 3.57 5.77 2.74 8-.39 1.06-1.03.95-1.72 1.43-.55-3.98-3.72-4.88-6.8-1.77-.86.86-1.59 1.83-2.36 2.43m11.62-15.4a87.98 87.98 0 0 0 2.17-3.73c.28.92.4 1.79.13 2.54-.27.73-1.23.87-2.3 1.19m6.77-13.3c.36-.87.71-1.74 1.05-2.61-.07 1.15-.27 2.47-1.05 2.61m-3.92.58c-.46.26-.92.67-1.41 1.32-.74 1-.87 2.08-.72 3.17-4.3 8.5-9.86 16.27-16.44 23.08-2.24-.95-4.78-.32-5.02 3.5-.02.27-.02.79-.04 1.36-1.08.97-2.19 1.91-3.32 2.83-1.03.07-2.01.35-3.06 1.77-.26.34-.44.69-.57 1.05-16.07 11.87-36.04 18.9-57.69 18.9s-41.57-7.01-57.63-18.85c-.12-.37-.31-.74-.58-1.1-1.07-1.44-2.06-1.71-3.12-1.77-1.1-.91-2.19-1.83-3.26-2.78-.02-.6-.02-1.13-.05-1.41-.24-3.83-2.81-4.45-5.06-3.49a94.916 94.916 0 0 1-16.42-23.02c.17-1.11.06-2.22-.7-3.25-.51-.68-.99-1.09-1.48-1.35a93.013 93.013 0 0 1-7.89-37.57c0-52.24 43.06-94.58 96.18-94.58s96.17 42.35 96.17 94.58c0 13.36-2.82 26.07-7.91 37.6m-173.69 12.7c-1.05-.31-1.98-.46-2.23-1.17-.28-.74-.16-1.58.11-2.48.68 1.23 1.39 2.45 2.12 3.65m-6.78-13.28c-.68-.12-.89-1.35-.97-2.45.32.82.64 1.64.97 2.45m4.17 2.95c1.57 2.11-2.45 6.13-1.12 9.7 1.1 2.96 4.64 1.37 5.6 4.23.98 2.96-4 6.39-2.56 10.28.57 1.54 1.29 1.89 1.97 2.1 1.29.41 1.13 1.98.58 3.9-.87 1.42-2.64.34-4.3 1.59-.72-.53-1.56-.89-2.47-1l-1.37-3.3-9.76-20.26 7.59 24.36c-.51.34-.96.74-1.31 1.22-.73-1.24-1.7-2.27-3.29-2.51-1.41-.21-2.27.05-2.95.51.05-.56-.01-1.14-.16-1.71-.74-2.74-3.6-4.35-6.38-3.63l-.18.06c-1.07-.48-1.95-1.06-2.32-1.98-1.14-2.8 2.61-3.81 1.51-6.78-.39-1.06-1.14-1.82-1.93-2.42-2.15-1.62-8.05-3.49-3.99-6.86 3.11-2.58 1.72-3.97-.66-7.14-.68-.9-.8-1.58-.59-2.09.92-.18 1.76-.6 2.44-1.19 3.83-.31 3.58-3.21 3.75-6.7.08-1.51.32-2.37 1.3-2.75 1.73-.68 3.43 1.85 4.63 3.01 4.53 4.39 5.24-.42 8.09.3 1.46.37 1.08 3 1.21 4.21.67 6.14 4.58 2 6.7 4.83m-2.16 38.95c-1.72.46-3.49-.55-3.95-2.24-.47-1.7.55-3.44 2.28-3.89 1.73-.45 3.49.55 3.95 2.25.46 1.7-.55 3.44-2.29 3.89m-15.61-5.43c-1.73.45-3.5-.56-3.96-2.25-.46-1.69.57-3.44 2.29-3.89 1.72-.45 3.49.56 3.96 2.25.46 1.69-.56 3.44-2.29 3.89m-11.36-37.08c-1.78 0-3.23-1.42-3.23-3.18s1.45-3.17 3.23-3.17 3.23 1.42 3.23 3.17-1.44 3.18-3.23 3.18m-18.8 24.92c2.48.39 5.41-.36 6.94.9 1.3 1.08-1.12 4.1 2.18 6.65 3.35 2.59 8.35-.77 10.64 1.11.48.39.65.55.64 1.07-.05 1.33.56 2.2 1.47 2.76-.91 1.45-3.02.93-5.2.89-4.68-.06-6.18 3.16-3.02 6.58.52.57 1.12 1.14 1.64 1.74 1.89 2.2.98 2.9.09 3.97a146.845 146.845 0 0 1-15.37-25.67m22.03 33.94c-.6-.7-1.19-1.39-1.78-2.1.6.12 1.15.31 1.61.62.32.22.24.75.17 1.48m1.74.61c.35-3.98-1.63-4-5.6-4.58-2.74-.4-2.26-2.18-1.05-3.6 2.48-2.89.23-4.77-2.16-7.35-1.04-1.12-1.48-1.91-1.06-2.85.74-1.67 3.75-1.08 5.44-1.08 5.22-.04 4.16-2.69 5.02-4.44.84 2.6 3.61 4.12 6.32 3.4.71-.18 1.35-.51 1.89-.93 1.73-.41 2.4-2.92 4.8-2.55 1.17.18 1.83 1.4 2.51 2.83-.19.79-.19 1.64.04 2.48.75 2.73 3.6 4.35 6.39 3.62 1.2-.32 2.18-1.02 2.86-1.94.31.49.56 1 .67 1.52.19.99-3.3 1.69-3.06 5.34.12 1.78 1.32 2.87 2.73 3.75-.63.19-1.2.5-1.7.88l-17.23-5.51 15.36 8.5c-.16.76-.14 1.56.08 2.35.74 2.74 3.6 4.36 6.41 3.61.05.18.12.35.19.54.12.3.27.57.44.83-.35.76-.48 1.7-.39 2.63.11 1.18-.31 1.83-1.01 2.25-.94-.58-.45-2.02-2.58-2.98-3.81-1.75-7.72 2.82-10.63 1.6-2.82-1.19-.9-4.52-3.81-5.84-1.04-.48-2.11-.5-3.09-.36-2.68.35-8.21 3.13-7.76-2.09m25.62 24.06a149.44 149.44 0 0 1-22.46-19.29c2.52-.22 5.21-1.73 7.03-.89 1.54.7 0 4.24 3.86 5.87 3.93 1.65 7.87-2.88 10.58-1.64.56.26.76.36.89.87.13.53.33.96.61 1.29-.67.15-1.4.27-2.11.46-4.53 1.13-5.14 4.61-1.18 7.12.65.41 1.38.81 2.04 1.26 3.08 2.09 1.1 3.01.76 4.95m5.55 3.7c1.02-.14 2.02-.24 2.88.06.48.17.44 1.08.69 2.14-1.21-.72-2.4-1.46-3.57-2.2m5.28 1.6c-.71-3.94-2.63-3.45-6.62-3-2.76.31-2.77-1.53-1.96-3.21 1.63-3.42-1.04-4.66-4.02-6.54-1.3-.84-1.93-1.47-1.78-2.49.28-1.81 3.35-1.99 4.98-2.43 6.11-1.67 2.24-4.68 4.3-6.74 1.06-1.06 3.19.58 4.31 1.07 5.75 2.5 4.05-2.9 7.6-3.3.44-.04.85.08 1.25.29-.18 1.12.01 2.3.63 3.34 1.31 2.23 4.05 3.12 6.4 2.22.16.02.33.02.48.01 1.26 1.41 3.93 1.88 5.05 3.42.58.79-2.04 2.74-.66 5.75l-16.64-.74 19.77 4.58a5 5 0 0 0-.62 4.06c.74 2.73 3.59 4.36 6.37 3.62.86-.23 1.62-.66 2.22-1.22.12.14.24.25.38.39.05.19.11.38.18.56.4 1.08.19 1.81-.35 2.39-3.26 1.16-1.93-1.44-5.08-2-4.15-.72-6.72 4.69-9.85 4.26-3.03-.43-2.05-4.12-5.21-4.68-1.13-.2-2.18.06-3.09.44-2.5 1.02-7.1 5.1-8.04-.05m32.86 15.71a150.533 150.533 0 0 1-28.79-11.82c2.46-.8 4.74-3.09 6.78-2.74 1.67.28 1.12 4.1 5.27 4.69 4.22.6 6.85-4.78 9.79-4.28.61.11.84.16 1.08.63.42.77.97 1.22 1.6 1.45-.28.14-.55.28-.82.43-4.08 2.25-3.75 5.77.73 7.18.74.23 1.55.44 2.3.7 3.01 1.06 2.23 2.23 2.05 3.75m8.85 2.31c.09 0 .18 0 .27.01.1 0 .18.05.26.11l-.53-.12zm2.99.87c-1.73-3.61-3.46-2.66-7.19-1.21-2.58 1-3.07-.77-2.74-2.6.68-3.72-2.23-4.24-5.6-5.3-1.48-.47-2.26-.92-2.38-1.95-.21-1.82 2.71-2.77 4.17-3.62 5.47-3.16.94-5.09 2.38-7.61.74-1.29 3.23-.25 4.45-.06 6.21.96 3.15-3.84 6.48-5.11.69-.26 1.41-.08 2.18.32.76 2.71 3.6 4.3 6.36 3.57.33-.09.65-.21.95-.35 2.9-.45 2.37-4.01 5.34-4.18.2 0 .39 0 .59.03l-1.93 12.15-16.71 3.65 16.23-.59-1.35 8.41c-1.13.12-2.68 1.24-3.45 1.83-2.15 1.62-5.52 7.36-7.78 2.62m31.07 2.96c-8.31 0-16.46-.66-24.39-1.96 1.66-1.72 3.15-3.76 4.73-3.89.07 0 .15-.02.23-.03l10.16 1.25-.12 1.77h18.78l-.12-1.76 10.19-1.27c.08.02.16.03.24.04 1.59.13 3.07 2.16 4.73 3.88-7.95 1.3-16.11 1.96-24.43 1.96m33.59-3.72c.08-.06.16-.09.24-.1h.22l-.47.1zm7.45-3.05c.34 1.83-.16 3.6-2.74 2.6-3.72-1.44-5.46-2.4-7.18 1.21-2.26 4.74-5.64-.99-7.78-2.62-.79-.6-2.36-1.74-3.5-1.83l-1.34-8.4 16.27.59-16.77-3.66-1.93-12.13c.22-.03.43-.04.63-.03 2.98.16 2.44 3.73 5.35 4.18.3.15.61.27.95.35 2.76.73 5.6-.87 6.36-3.57.77-.4 1.5-.58 2.19-.32 3.32 1.27.26 6.07 6.48 5.11 1.22-.2 3.7-1.23 4.44.06 1.44 2.52-3.09 4.45 2.38 7.61 1.46.85 4.37 1.8 4.16 3.62-.11 1.03-.9 1.48-2.37 1.95-3.38 1.06-6.28 1.58-5.61 5.3m1.91.62c-.18-1.53-.94-2.69 2.05-3.74.76-.27 1.56-.47 2.31-.7 4.47-1.41 4.8-4.93.72-7.18-.27-.14-.55-.29-.81-.43.62-.24 1.18-.69 1.59-1.45.25-.47.48-.52 1.1-.63 2.93-.5 5.55 4.87 9.78 4.28 4.15-.59 3.6-4.41 5.27-4.69 2.03-.36 4.3 1.91 6.74 2.73-9.05 4.87-18.67 8.85-28.75 11.82m34.57-15.11c.24-1.06.21-1.94.69-2.11.84-.3 1.84-.2 2.84-.07-1.16.74-2.34 1.46-3.53 2.18m6.87-6.8c.8 1.68.79 3.53-1.97 3.21-3.98-.45-5.91-.93-6.62 3-.93 5.15-5.54 1.06-8.04.05-.91-.38-1.96-.64-3.09-.44-3.15.55-2.17 4.24-5.2 4.68-3.13.43-5.7-4.98-9.85-4.26-3.16.56-1.83 3.16-5.08 2-.54-.57-.76-1.31-.35-2.39.08-.18.13-.37.18-.56.14-.14.25-.25.37-.39.6.56 1.36.99 2.22 1.22 2.78.73 5.63-.89 6.38-3.62.39-1.44.12-2.9-.63-4.06l19.77-4.58-16.64.74c1.39-3-1.23-4.96-.66-5.75 1.12-1.53 3.79-2.01 5.05-3.42.16 0 .32 0 .49-.01 2.35.9 5.09.01 6.4-2.22.61-1.05.81-2.23.63-3.34.4-.22.8-.34 1.25-.29 3.55.39 1.85 5.79 7.61 3.3 1.12-.49 3.24-2.13 4.3-1.07 2.06 2.06-1.81 5.07 4.3 6.74 1.64.44 4.71.62 4.98 2.43.16 1.01-.48 1.65-1.78 2.49-2.99 1.88-5.65 3.12-4.02 6.54m2.24.9c-.35-1.93-2.3-2.84.77-4.92.66-.45 1.38-.85 2.04-1.26 3.95-2.51 3.35-5.98-1.19-7.12-.72-.18-1.44-.3-2.1-.46.27-.34.48-.76.6-1.29.12-.51.33-.61.9-.87 2.7-1.24 6.64 3.29 10.57 1.64 3.86-1.62 2.32-5.17 3.86-5.87 1.82-.84 4.48.65 6.99.89-6.8 7.13-14.31 13.58-22.42 19.27m27.37-24.69c-.07-.7-.14-1.22.17-1.43.44-.3.98-.48 1.55-.6-.57.68-1.14 1.36-1.72 2.03m3.86-3.93c-3.96.58-5.95.6-5.6 4.58.45 5.22-5.07 2.44-7.75 2.09-.99-.13-2.07-.11-3.11.36-2.9 1.33-.98 4.66-3.8 5.84-2.91 1.22-6.82-3.36-10.63-1.6-2.12.97-1.65 2.4-2.58 2.98-.7-.42-1.13-1.07-1.01-2.25.09-.93-.04-1.87-.39-2.63.17-.26.32-.53.44-.83.08-.18.14-.36.2-.54 2.81.75 5.66-.87 6.4-3.61.22-.79.24-1.6.07-2.35l15.36-8.5-17.23 5.51c-.48-.39-1.06-.69-1.69-.88 1.4-.89 2.6-1.98 2.72-3.75.24-3.65-3.24-4.36-3.05-5.34.1-.52.34-1.02.67-1.52.67.91 1.67 1.62 2.87 1.94 2.77.73 5.63-.89 6.37-3.62.23-.84.23-1.69.05-2.48.68-1.43 1.34-2.65 2.51-2.83 2.41-.36 3.07 2.14 4.8 2.55.54.42 1.18.75 1.88.93 2.71.71 5.49-.8 6.32-3.4.86 1.75-.21 4.4 5.02 4.44 1.69 0 4.7-.58 5.44 1.08.42.94-.02 1.73-1.06 2.85-2.38 2.58-4.63 4.46-2.16 7.35 1.22 1.42 1.69 3.2-1.05 3.6m2.77-4.32c-.88-1.04-1.75-1.75.12-3.94.52-.6 1.11-1.16 1.64-1.74 3.16-3.43 1.66-6.64-3.02-6.58-2.18.04-4.3.55-5.2-.89.92-.56 1.52-1.43 1.48-2.76-.02-.52.16-.67.63-1.07 2.29-1.88 7.29 1.47 10.65-1.11 3.29-2.55.88-5.58 2.18-6.65 1.5-1.25 4.4-.52 6.87-.9-4.24 9.08-9.4 17.67-15.35 25.64m18.52-32.94c-.07-.27-.07-.48.07-.63.09-.11.19-.21.3-.31l-.37.93zm2.97-3.99c-3.67 1.57-5.59 2.1-4.2 5.85 1.81 4.93-4.26 3.65-6.94 4-.98.12-2.02.41-2.9 1.14-2.45 2.03.28 4.75-2.13 6.61-2.48 1.93-7.46-1.5-10.69 1.16-1.69 1.4-1.04 2.6-1.59 3.41-.31-1.12-.94-2.11-1.81-2.63a5.169 5.169 0 0 0-1.84-3.11c.86-.56 1.6-1.29 2.02-2.33.34-.84.43-1.56.38-2.2l14.02-11.95-15.38 8.99c-.41-.61-.71-1.13-.51-1.66 1.02-2.75 7.06-3.18 7.32-7.29.23-3.41-2.82-4.25-3.05-5.15.77-.76 1.2-1.76 1.48-2.81.94-1.2 1.94-2.38 1.71-3.76a5.18 5.18 0 0 0 3.28-1.86c1.61.85 3 2.15 5.45-1.15.73-.99 1.73-3.45 3.19-3.06 2.83.78 1.02 5.29 7.16 3.72 1.63-.42 4.39-1.77 5.54-.34.65.81.43 1.68-.28 3.03-1.62 3.1-3.3 5.49-.16 7.65 1.56 1.06 2.48 2.66-.06 3.74m.51-5.65c-.53-.57-.71-1.35.11-3.06.35-.71.76-1.41 1.12-2.1 2.15-4.11-.15-6.83-4.65-5.58-2.5.69-4.72 2.03-5.9-.47-.61-1.28-1.64-2.33-2.83-2.62 2.23-1.12 5.69-1.67 6.84-4.48 1.56-3.83-2.08-5.27-1.49-6.83 1.01-2.75 7.05-3.18 7.32-7.29.24-3.65-3.24-4.35-3.05-5.34.5-2.66 4.81-4.66 2.59-7.72-2.34-3.22-5.28.33-5.67-4.45-.07-.79-.06-1.6-.09-2.38-.24-4.61-3.6-5.84-6.87-2.54-1.8 1.83-3.05 4.09-5.35 2.5-2.41-1.67-5.85-1.58-6.13 2.88-.05.83.07 3.86-1.04 4.05-2.03.36-3.59-.5-5.38 1.9-2.48 3.32 1.87 7.46.85 10.2-.59 1.57-4.31.37-5.61 4.29-1.33 4 3.59 7.46 2.57 10.22-.07.19-.16.35-.25.48-1.32-.76-3.15-.31-4.95 1.52-1.81 1.82-3.05 4.08-5.35 2.49-1.42-.98-3.18-1.35-4.46-.6 2.99-9.31 4.6-19.21 4.6-29.47 0-54.08-44.58-97.91-99.56-97.91s-99.67 43.81-99.67 97.89c0 10.25 1.6 20.15 4.57 29.45-1.27-.71-3-.34-4.39.62-2.3 1.59-3.54-.67-5.35-2.49-1.81-1.83-3.65-2.27-4.97-1.52-.09-.13-.17-.29-.24-.48-1.03-2.76 3.9-6.22 2.58-10.22-1.31-3.92-5.03-2.72-5.61-4.29-1.02-2.75 3.33-6.88.85-10.2-1.8-2.4-3.34-1.54-5.39-1.9-1.1-.2-.98-3.22-1.04-4.05-.28-4.46-3.71-4.56-6.13-2.88-2.3 1.59-3.54-.67-5.35-2.5-3.27-3.29-6.64-2.07-6.86 2.54-.03.77-.03 1.59-.09 2.38-.4 4.78-3.32 1.23-5.67 4.45-2.22 3.07 2.08 5.07 2.59 7.72.18.99-3.3 1.69-3.05 5.34.27 4.11 6.31 4.54 7.32 7.29.58 1.56-3.05 3-1.5 6.83 1.15 2.81 4.61 3.36 6.84 4.48-1.19.3-2.22 1.34-2.82 2.62-1.18 2.5-3.41 1.15-5.9.47-4.5-1.25-6.8 1.47-4.65 5.58.36.69.79 1.39 1.13 2.1.84 1.75.64 2.53.08 3.09-4.52-14.02-6.95-28.94-6.95-44.41C3.45 69.18 70.4 3.33 153 3.33s149.56 65.85 149.56 147.08c0 15.47-2.44 30.38-6.94 44.38"/><path class="cls-1" d="M99.1 120.64c-.76-5.46-2.19-9.41-3.95-12.23l-.11-.16-.07-.11-.12-.17-.08-.12-.09-.12-.1-.15-.12-.16-.09-.14c-.39-.52-.78-.99-1.19-1.42l-.12-.13-.12-.12-.17-.17-.21-.2-.12-.11-.12-.1-.16-.14-.12-.1-.12-.1-.11-.09-.11-.09-.11-.09-.11-.08-.11-.08-.12-.09-.1-.08-.11-.07-.11-.08-.11-.07-.11-.07-.12-.08-.11-.07-.13-.07c-3.27-1.9-6.57-1.73-8.46-1.01-1.89.9-2.91 2.7-2.91 4.67 0 2.92 2.12 5.11 4.52 5.11 2.7 0 4.99-1.73 4.57-4.37l-.23-1.5c6.49 2.49 9.67 7.9 11.21 13.98l.04.17zm-3.38 38.16c-2.87 5.86-7.44 12.01-12.58 16.15v5.15c.53-.58 1.04-1.18 1.57-1.79 4.67-5.86 8-11.56 10.34-17.59.23-.63.45-1.28.68-1.93m127.11 24.12c-1.27-1.44-2.52-2.91-3.72-4.44-8.32-10.54-14.71-23.78-14.53-49.3.11-15.61 4.59-23.39 9.59-26.76 2.7-1.83 5.57-2.36 7.95-2.12-3.06-3.07-8.54-9.07-17.24-20.25-10.06 2.16-17.34-.81-26.35-3.97-2.41-.85-4.66-1.54-6.81-1.85-6.66-.93-13.8-.07-18.72 4.83-6.78-6.77-17.22-5.91-25.53-2.99-9 3.17-16.29 6.13-26.35 3.97-8.7 11.18-14.18 17.18-17.24 20.25 2.39-.23 5.24.29 7.95 2.12 5 3.36 9.48 11.15 9.6 26.76.18 25.52-6.21 38.75-14.54 49.3-1.2 1.53-2.45 3-3.72 4.44 1.96 12.64 9.33 32.62 42.8 39.32 6.76 1.35 22 5.33 27.02 12.53 5.03-7.2 20.25-11.18 27.02-12.53 33.48-6.7 40.85-26.68 42.81-39.32m-11.22-75.61c-2.14 2.9-3.9 7.23-4.74 13.6l.04-.22c1.58-6.93 4.24-11.52 11.25-14.2l-.24 1.5c-.42 2.64 1.86 4.37 4.57 4.37 2.4 0 4.53-2.19 4.53-5.11 0-1.98-1.03-3.76-2.81-4.62l-.11-.05c-2.45-.93-7.25-.97-11.25 3.24-.43.45-.83.93-1.21 1.45l-.03.05zm-.87 52.82.04.11.04.11.04.11.04.11.05.11c2.34 6.09 5.68 11.78 10.35 17.64.53.61 1.05 1.2 1.56 1.79v-5.15c-1.56-1.26-7.99-6.81-12.56-16.15.15.44.3.89.45 1.32m.37-45.81 5.62-3.2c-.32-.55-.53-1.19-.61-1.88-2.14 1.13-3.76 2.88-5.01 5.08m-121.83-3.19 5.62 3.2c-1.24-2.2-2.87-3.96-5.01-5.09-.08.7-.29 1.33-.61 1.89m-12.37 93.32 9.05-6.82c-.78-1.55-1.47-3.17-2.09-4.86l-10.76 6.13-.29-.48 10.66-6.79c-.54-1.6-.99-3.26-1.39-4.97l-12.61 5.92-.26-.49 12.59-6.71-.18-.89-.31-2.1v-2.04l-14.96 5.66-.22-.51 15.18-6.64v-4.74l-17.53 5.09-.17-.53 20.8-7.22c1.58-1.53 3.04-3.17 4.38-4.89l-27.03 5.68-.13-.54 28.96-7.61c.7-1.03 1.37-2.09 1.99-3.16l-32.27 4.21-.09-.55 33.67-6.11c.39-.79.76-1.59 1.11-2.4l-35.57 1.86-.05-.56 36.59-3.75c.24-.66.47-1.32.68-1.99l-37.53-.94v-.56l38.22-.95c.15-.59.28-1.19.41-1.79l-38.37-3.93.05-.56 38.77 2.03c.09-.59.16-1.17.23-1.75l-38.21-6.93.08-.55 38.34 4.99c.03-.6.06-1.22.06-1.83l-37.07-9.74.13-.53 36.95 7.75c0-.67-.01-1.34-.03-2.01l-35.07-12.19.17-.52 34.82 10.16c-.03-.78-.07-1.56-.12-2.32l-32.34-14.14.22-.51 31.91 12.07c-.1-.97-.23-1.92-.37-2.86l-28.68-15.29.26-.49 27.94 13.13c-.31-1.41-.68-2.75-1.14-4.01l-7.96-5.07c-1.26 1.18-3.1 1.79-4.81 1.79-3.57 0-6.3-3.17-6.3-6.86 0-.65.09-1.27.24-1.87l-4.64-2.96.3-.47 4.62 2.62c.43-1.07 1.12-2 2.03-2.72-.02-.03.58-.5 1.95-1.84l-4.81-3.63.33-.45 5.11 3.46c1.02-1.02 2.37-2.42 4.08-4.31l-4.97-4.4.37-.43 5.2 4.15c1.14-1.27 2.42-2.76 3.86-4.46l-4.45-4.6.4-.4 4.62 4.31c1.17-1.4 2.45-2.95 3.82-4.67l-3.45-4.19.43-.36 3.56 3.89c1.23-1.53 2.54-3.18 3.93-4.97l-2.15-3.07.45-.32 2.17 2.78.19-.24c2.74.64 5.21.91 7.53.93l-4.23-7.18.49-.29 4.91 7.46c2.03-.08 3.95-.35 5.86-.78l-4.84-9.96.5-.25 5.49 9.95c1.68-.42 3.36-.94 5.09-1.53l-4.39-11.22.52-.22 4.99 11.05c1.46-.51 2.96-1.05 4.55-1.61l.36-.12-3.52-11.63.54-.17 4.11 11.42c1.7-.56 3.38-1.04 5.03-1.32l-2.58-11.91.54-.12 3.23 11.87c1.83-.23 3.56-.31 5.19-.25l-1.73-12.92.56-.08 2.45 13.07c1.85.13 3.55.44 5.1.87l-.79-14.73.56-.05 1.62 15.21c1.85.65 3.44 1.5 4.72 2.46l.46-17.92h.56l.46 17.93c1.29-.96 2.88-1.81 4.72-2.46l1.62-15.22.55.05-.79 14.73c1.54-.43 3.26-.74 5.11-.87l2.45-13.07.55.08-1.73 12.92c1.63-.06 3.36.02 5.19.25l3.22-11.87.56.13-2.59 11.91c1.7.29 3.39.74 5.04 1.29l4.09-11.38.53.17-3.5 11.58c1.64.57 3.27 1.19 4.89 1.78l5-11.05.52.21-4.4 11.24c.68.23 1.33.45 2.01.66 1.05.33 2.07.61 3.08.86l5.5-9.96.5.25-4.84 9.97c1.98.43 3.91.69 5.87.76l4.91-7.46.48.29-4.22 7.19c2.41 0 4.87-.31 7.54-.92l.18.23 2.16-2.77.45.33-2.14 3.06c1.39 1.79 2.7 3.45 3.93 4.98l3.56-3.89.42.36-3.45 4.2c1.39 1.71 2.66 3.26 3.84 4.67l4.61-4.31.4.39-4.44 4.6c1.44 1.71 2.73 3.18 3.86 4.46l5.2-4.14.37.42-4.97 4.39c1.72 1.9 3.07 3.3 4.09 4.31l5.1-3.45.34.44-4.8 3.62c1.38 1.32 2 1.77 2 1.77.88.77 1.55 1.73 1.97 2.79l4.62-2.62.29.48-4.64 2.95c.16.61.24 1.24.24 1.89 0 3.69-2.73 6.86-6.29 6.86-1.72 0-3.56-.61-4.83-1.8l-7.95 5.06c-.46 1.25-.83 2.6-1.14 4.01l27.94-13.13.26.5-28.68 15.28c-.14.94-.27 1.89-.37 2.87l31.91-12.08.22.51-32.33 14.13c-.06.77-.1 1.54-.13 2.32l34.82-10.17.17.53-35.06 12.19c-.02.67-.03 1.34-.03 2.02l36.94-7.76.13.54-37.07 9.74c0 .61.03 1.22.06 1.82l38.33-4.98.09.54-38.21 6.94c.07.58.14 1.16.23 1.74l38.77-2.03.04.55-38.37 3.94c.12.6.26 1.2.41 1.79l38.22.95v.56l-37.53.94c.21.67.44 1.33.68 2l36.58 3.75-.04.55-35.58-1.86c.34.81.72 1.61 1.11 2.4l33.67 6.11-.09.54-32.27-4.2c.62 1.08 1.28 2.14 1.98 3.17l28.96 7.61-.13.54-27.03-5.67c1.35 1.72 2.8 3.36 4.38 4.89l20.8 7.22-.17.53-17.66-5.16.08 4.79 15.22 6.65-.22.51-15-5.68v1.98l-.27 2.17-.18.89 12.6 6.71-.26.49-12.6-5.92c-.39 1.71-.85 3.37-1.38 4.97l10.65 6.79-.29.48-10.76-6.13c-.61 1.69-1.31 3.31-2.08 4.86l9.05 6.82-.33.45-9.24-6.26c-.86 1.61-1.8 3.13-2.82 4.58l7.85 6.94-.38.43-8.12-6.49a42.02 42.02 0 0 1-3.52 4.12l7.01 7.27-.39.39-7.38-6.9a45.351 45.351 0 0 1-4.12 3.56l6.5 7.89-.42.35-6.95-7.59a52.423 52.423 0 0 1-4.56 2.95l6.16 8.79-.46.32-6.67-8.57c-1.54.85-3.15 1.63-4.82 2.36l5.83 9.93-.47.29-6.44-9.76c-1.59.66-3.24 1.26-4.94 1.83l5.44 11.21-.5.25-6.11-11.08c-1.61.5-3.27.96-4.96 1.38l4.89 12.51-.51.21-5.62-12.44c-.88.2-1.77.39-2.67.57-.65.12-1.4.3-2.24.48l4.14 13.7-.53.16-4.87-13.56c-1.44.35-3.05.78-4.74 1.29l3.06 14.09-.56.12-3.75-13.84c-1.57.5-3.16 1.06-4.73 1.69l1.8 13.44-.55.09-2.45-13.04c-1.73.73-3.41 1.54-4.92 2.44l.61 11.39-.57.04-1.14-10.76c-2.2 1.43-3.98 3.05-4.97 4.87-.06.09-.32.74-.57 1.33l-.13 4.82h-.56l-.12-4.83c-.24-.59-.51-1.23-.56-1.32-.99-1.82-2.77-3.44-4.97-4.88l-1.14 10.77-.56-.05.61-11.39c-1.52-.89-3.19-1.7-4.93-2.43l-2.45 13.04-.55-.09 1.81-13.44c-1.57-.63-3.18-1.2-4.73-1.69l-3.75 13.84-.55-.12 3.05-14.09c-1.69-.52-3.3-.94-4.73-1.29l-4.87 13.56-.54-.16 4.14-13.7c-.83-.19-1.58-.36-2.22-.48-.91-.18-1.8-.37-2.68-.57l-5.62 12.44-.52-.21 4.9-12.51c-1.7-.42-3.35-.88-4.96-1.38l-6.11 11.08-.51-.25 5.45-11.21c-1.7-.56-3.36-1.17-4.95-1.83l-6.44 9.76-.47-.29 5.83-9.93c-1.67-.73-3.28-1.51-4.82-2.36l-6.67 8.57-.46-.32 6.15-8.79a53.8 53.8 0 0 1-4.55-2.95l-6.94 7.59-.44-.36 6.51-7.89c-1.46-1.11-2.83-2.3-4.12-3.55l-7.38 6.89-.4-.39 7.03-7.27a40.51 40.51 0 0 1-3.52-4.12l-8.12 6.48-.37-.42 7.85-6.94a41.621 41.621 0 0 1-2.82-4.58l-9.25 6.26-.33-.45z"/><path class="cls-1" d="M140.04 14.62c-.06 0-.14 0-.22.01-.29.04-2.42.62-6.99 1.25-2.22.31-3.55.2-3.96.26-.69.1-.96.5-.9.98.09.65.61.71 1.3.71h.48c.61 0 1.32.03 1.97.4 1.2.69 1.38 1.84 1.69 4.06l2.23 15.58c.28 1.94-.07 3.29-.89 3.89-1.04.75-1.96.96-1.84 1.79.06.42.34.68.85.68.07 0 .15 0 .23-.02 1.09-.16 2.82-.76 5.08-1.07 2.91-.4 4.94-.31 5.95-.46.77-.1 1.09-.43 1-1.03-.16-1.07-1.56-.6-2.93-.85-1.48-.28-2.31-1.5-2.63-3.73l-2.26-15.86c-.26-1.87-.3-3.25.36-4.1.77-1 2.35-.85 2.2-1.88-.06-.42-.3-.61-.73-.61m33.81.59c-.43 0-.7.23-.8.63-.32 1.24 1.75.89 2.74 2.45.73 1.13.5 2.35.01 4.26l-3.86 15.26c-.45 1.78-1.19 2.85-2.51 3.27-1.06.36-1.98.18-2.19.99-.12.51.12.86.76 1.02.91.22 2.85.33 5.51.98 2.53.62 4.03 1.36 4.7 1.52.17.05.32.06.46.06.4 0 .67-.2.79-.66.26-1.02-1.03-1.08-1.9-1.79-1.12-.93-1.32-2.31-.8-4.33l3.9-15.38c.7-2.8 1.1-4.14 2.71-4.14.32 0 .68.05 1.11.16 3.6.88 5.25 4.18 4.28 7.99-.74 2.88-2.26 4.34-4.62 4.34-.54 0-1.13-.08-1.76-.24-.95-.23-1.5-.57-1.69-.62-.04 0-.1-.01-.14-.01-.27 0-.54.18-.59.41-.23.9 1.15 1.9 3.74 2.53.79.19 1.56.29 2.32.29 3.76 0 6.93-2.32 7.91-6.14 1.12-4.43-1.43-8.33-7.52-9.82-1.66-.41-4.16-.69-7.36-1.48-2.57-.63-4.16-1.35-4.83-1.51-.13-.03-.25-.04-.36-.04m-59.17 3.78c-.24 0-.55.11-.98.27-1.14.43-3.28 1.58-6.59 2.83l-9.02 3.41c-3.01 1.14-5.26 1.65-6.52 2.12-.84.32-.74.79-.39 1.91.97 3.16 1.19 4.96 1.29 5.22.18.43.39.65.67.65.09 0 .17-.01.26-.05 1.14-.43.35-1.37.5-3.75.13-2.03 1.78-2.95 4.9-4.13.91-.35 1.51-.54 1.95-.54.61 0 .88.39 1.24 1.31l6.63 16.98c.74 1.91.6 3.34-.65 4.51-.96.91-2.15 1.11-1.78 2.04.13.33.4.51.77.51.18 0 .38-.04.6-.12 1.33-.51 3.32-1.68 5.99-2.69 2.63-.99 4.63-1.36 5.58-1.72.65-.25.85-.63.64-1.18-.16-.39-.44-.51-.8-.51-.28 0-.6.07-.95.13-.34.08-.71.14-1.08.14h-.1c-1.81-.05-2.77-1.06-3.53-3l-6.54-16.75c-.67-1.73-.24-1.97 2.19-2.88l.65-.25c1.49-.57 2.6-.87 3.5-.87s1.57.3 2.21.96c.9.92 1.04 1.49 1.56 1.49.12 0 .26-.03.43-.1.53-.2.49-.32.21-1.02l-.13-.34-1.8-3.7c-.29-.61-.53-.85-.9-.85m42.48 5.47c-.26 0-.48.03-.63.18l-2.69 2.43c-.17.16-.3.4-.31.67 0 .29.06.53.22.69l2.44 2.66c.16.16.44.29.68.3h.06a1 1 0 0 0 .65-.22l2.66-2.44c.17-.15.3-.43.31-.67.01-.28-.07-.52-.22-.69l-2.4-2.61a1.01 1.01 0 0 0-.68-.31h-.07m63.04 5.49c-.17 0-.32.11-.54.27l-20.21 15.01c-1.6 1.19-2.74 1.99-4.04 2.06-.07 0-.13.01-.19.01-.23 0-.45-.03-.66-.06-.2-.03-.39-.06-.55-.06-.3 0-.55.09-.73.41-.26.45-.11.86.39 1.13.39.21 1.6.45 3.28 1.37 2.32 1.26 3.66 2.45 4.4 2.86.2.1.38.16.53.16.27 0 .5-.16.68-.47.31-.56-.18-.93-.95-1.56-1.46-1.22-1.92-2.3-1.33-3.35.2-.35.52-.68.95-1.03l2.47-2.15c.63-.56 1.11-.78 1.6-.78.58 0 1.17.32 2.03.79l4.64 2.53.22.12c1.6.87 2.02 1.14 1.78 2.95l-.32 2.89c-.07.7-.25 1.28-.51 1.74-.52.91-1.26 1.1-1.98 1.1-.24 0-.49-.03-.73-.05-.23-.02-.46-.05-.65-.05-.34 0-.62.07-.76.33-.24.42-.2.85.12 1.03.28.16 2.05.66 5.04 2.29 2.11 1.15 3.54 2.34 4.57 2.91.2.1.35.17.47.17.21 0 .35-.14.54-.48.42-.74-.01-.89-.76-1.7-.98-1.09-1.01-2.02-.88-3.42l2.69-25.87c.04-.49-.07-.87-.32-1.01a.673.673 0 0 0-.31-.09M75.58 38.22c-.13 0-.27.05-.43.17-.39.29-.3.88-1.09 1.46-1.2.89-3.28.57-5.8 2.43-3.9 2.9-4.16 7.71-1.65 10.98 1.79 2.33 3.6 3.11 5.79 3.11 1.69 0 3.61-.46 5.92-1.03 2.28-.56 4.02-1.01 5.44-1.01s2.52.46 3.46 1.7c2.02 2.63 1.25 5.7-1.22 7.54-1.1.8-2.5 1.23-4.08 1.23-1.34 0-2.81-.3-4.32-.93-2.22-.93-2.99-1.91-3.56-1.91-.11 0-.22.03-.32.11-.55.41-.49.76-.12 1.24.02.03.2.2.56.48l4.59 3.84c.56.47.78.7 1.07.7.22 0 .47-.12.91-.37 1.78-1.01 4.09-1.27 5.98-2.67 4.46-3.31 5.19-8.22 1.8-12.64-1.57-2.06-3.56-3.25-5.76-3.52a7.55 7.55 0 0 0-.83-.05c-1.8 0-3.76.66-6.21 1.35-1.75.49-3.18.78-4.35.78-1.47 0-2.54-.45-3.37-1.54-1.33-1.73-.94-4.22 1.21-5.81 1.31-.98 2.96-1.48 4.62-1.48.98 0 1.96.17 2.89.53 2.36.93 2.88 1.98 3.49 1.98.15 0 .3-.06.49-.19.32-.24.33-.56.04-.94-.98-1.29-2.59-2.45-3.7-3.89-.37-.48-.57-.88-.79-1.18-.24-.3-.44-.46-.67-.46m77.42 7.42c-58.47 0-105.87 46.62-105.87 104.11 0 8.16.95 16.1 2.76 23.71h1.82c-1.83-7.6-2.81-15.54-2.81-23.71 0-56.53 46.6-102.36 104.09-102.36s104.1 45.83 104.1 102.36c0 8.16-.97 16.1-2.81 23.71h1.83c1.8-7.61 2.75-15.55 2.75-23.71 0-57.49-47.39-104.11-105.87-104.11m92.76 2.26c-.18 0-.39.1-.65.33-.99.89.95 1.27.83 3.53-.07 1.19-1.06 2.56-2.92 4.2l-6.43 5.69c-3.6 3.2-6.7 4.86-7.55 5.12-.39.12-.74.18-1.05.18-.57 0-1.04-.15-1.42-.32-.38-.15-.68-.31-.91-.31-.09 0-.17.02-.24.09-.54.48-.62.88-.26 1.27.44.47 1.77 1.4 3.36 3.13 1.5 1.64 2.15 2.94 2.56 3.4.3.33.51.52.76.52.17 0 .35-.1.59-.31 1-.89-1.19-2.14-1.09-3.83.1-1.82 2.1-3.64 5.28-6.46l7.07-6.26c.65-.57 1.11-.87 1.38-.87.09 0 .16.03.22.09.09.09.17.6.08 1.23l-3.51 25.31c-.19 1.41-.44 2.33.07 2.9.06.07.16.11.27.11.31 0 .77-.27 1.39-.83l15.54-13.43c1.55-1.32 2.55-2.13 3.82-2.13.19 0 .38.02.58.06.98.16 1.5.75 2 .75.17 0 .34-.07.51-.23.43-.38.39-.66 0-1.08-.73-.8-2.15-1.87-3.62-3.48-1.15-1.25-1.78-2.42-2.4-3.11-.23-.25-.45-.37-.67-.37a.75.75 0 0 0-.51.22c-.84.75.76 1.49 1.13 3.75.26 1.6-.84 2.86-2.72 4.51l-7.74 6.85c-.73.66-1.27.98-1.59.98-.1 0-.19-.03-.24-.1-.19-.2-.26-.89-.09-2.08l3.13-21.35c.24-1.61.38-2.17-.39-3-.63-.69-1.66-1.45-2.7-2.58-.48-.54-.79-1.23-1.29-1.77-.2-.22-.38-.34-.57-.34M49.09 60.47c-.37 0-.65.31-1.12.93-1.27 1.66-3.21 4.65-6.22 8.6-3.03 3.94-4.8 5.73-5 5.99-.42.54-.38 1.03.04 1.35a.8.8 0 0 0 .47.17c.81 0 1.44-1.6 3.07-1.93.2-.03.39-.04.57-.04 1.14 0 2.07.65 3.45 1.67l12.77 9.47c1.5 1.11 2.21 2.19 2.09 3.55-.08 1.1-.61 1.86.07 2.37.17.12.33.18.5.18.26 0 .51-.15.75-.47.46-.62 1.46-2.53 3.58-5.28 1.89-2.47 3.71-4.24 4.89-5.78 1.52-1.99 2-3.74 1.39-5.6-.55-1.67-1.91-3.37-2.6-3.88-.2-.15-.4-.23-.58-.23-.17 0-.31.07-.41.19-.49.64.62 1.46.77 3.73.13 2.16-.84 4.96-2.48 7.1-.92 1.2-1.58 1.71-2.3 1.71s-1.51-.51-2.66-1.37l-5.08-3.77c-1.34-.99-1.7-1.51-.8-2.69l.96-1.25c1.11-1.45 1.96-2.15 3.11-2.15.33 0 .68.05 1.07.16.95.27 1.51.82 1.99.82.18 0 .36-.09.53-.31.27-.36.22-.69-.2-1-.33-.24-2.06-1.12-4.73-3.1-1.23-.92-1.82-1.56-2.08-1.75-.25-.18-.46-.27-.63-.27-.15 0-.28.07-.4.22-.64.83.36 1.52.75 2.82.39 1.24-.02 2.3-1.05 3.64l-.79 1.02c-.43.57-.84.84-1.29.84-.35 0-.72-.16-1.14-.48l-5.09-3.76c-1.43-1.06-1.34-2.11.11-4 2.15-2.8 3.65-4.04 5.3-4.04.22 0 .44.02.66.06.95.19 1.51.88 2.01.88.18 0 .35-.09.52-.31.34-.45.23-.64-.26-.99-.2-.15-1.17-.82-2.79-2.02l-.69-.51c-.45-.33-.75-.49-1.01-.49M274.74 84.8c-.11 0-.23.02-.34.08-1.25.49.36 2.05-.29 3.88-.52 1.33-1.64 1.81-3.49 2.55l-12.79 5.09-1.21.48c-1.27.51-2.23.85-3.13.85-.44 0-.85-.08-1.29-.26-1.07-.45-1.6-1.56-2.36-1.56-.1 0-.21.02-.32.07-.49.2-.63.6-.39 1.19.35.86 1.41 2.47 2.44 4.96.89 2.16 1.17 3.82 1.51 4.63.18.42.39.64.72.64.13 0 .29-.04.47-.11 1.05-.42.12-1.65.44-2.9.36-1.57 1.8-2.24 4.04-3.12l.75-.29.15-.06 1.74-.69c.52-.21.95-.36 1.33-.36.21 0 .41.05.6.15l1.55.77c.44.22.64.36.66.43.04.11-.05.32-.26.66l-7.77 12.05c-.54.82-.69 1.53-.49 2.01.23.56.68 1.15 1.03 1.97.38.93.55 1.99.95 2.96.18.44.4.66.74.66.14 0 .31-.04.49-.11.8-.32-.02-.81.36-2.44.21-.91.8-2.13 1.81-3.75l6.71-10.77c.4-.63.7-.96.93-1.05.09-.03.18-.05.3-.05.3 0 .72.11 1.23.35l5.5 2.45c3.44 1.53 5.44 2.86 6.04 3.35.97.81 1.18 1.65 1.8 1.65.1 0 .22-.03.35-.08.53-.22.6-.59.35-1.18-.31-.74-1.1-1.81-1.8-3.52-.65-1.6-.89-3.02-1.35-4.14-.17-.4-.38-.57-.62-.57-.09 0-.19.02-.29.07-.87.34-.63.72-.43 1.42.19.79 0 1.29-.56 1.52-.13.05-.29.07-.51.07-1.23 0-3.97-.82-7.92-2.61l-5.83-2.62c-.37-.15-.61-.4-.66-.56-.14-.33.14-.49.91-.79l6.31-2.5.34-.14c1-.39 1.79-.69 2.54-.69.41 0 .83.1 1.26.31 1.1.52 1.36 1.55 2.04 1.55.1 0 .2-.02.33-.07.45-.18.57-.53.38-.98-.17-.44-1.21-2.11-2.46-5.16-1.06-2.56-1.43-4.32-1.69-4.96-.2-.48-.5-.72-.85-.72M29.09 90.59c-.47 0-.67.37-1.01 1.2-.79 1.94-1.88 5.32-3.76 9.89-1.88 4.58-3.13 6.76-3.25 7.06-.26.63-.09 1.08.4 1.28.12.04.23.07.33.07.92 0 1.03-1.89 2.62-2.66.44-.21.86-.3 1.29-.3.87 0 1.78.34 3.01.83l14.83 5.89c1.75.69 2.71 1.56 2.95 2.91.21 1.08-.1 1.95.7 2.27.11.05.24.07.35.07.32 0 .59-.22.77-.66.29-.71.76-2.82 2.08-6.01 1.18-2.87 2.46-5.04 3.2-6.82.95-2.31.95-4.12-.14-5.77-.98-1.47-2.74-2.77-3.53-3.09-.15-.06-.29-.09-.43-.09-.26 0-.46.11-.54.31-.31.75.98 1.25 1.73 3.41.7 2.06.5 5-.53 7.49-.69 1.67-1.28 2.29-2.22 2.29-.63 0-1.41-.27-2.49-.7l-5.9-2.34c-1.55-.61-2.05-1.03-1.48-2.4l.6-1.45c.87-2.11 1.65-2.98 3.4-2.98h.1c.87.02 1.5.32 1.95.32.28 0 .48-.11.62-.47.17-.41.03-.72-.46-.92-.38-.15-2.28-.56-5.38-1.79-1.44-.57-2.17-1.04-2.47-1.16-.21-.08-.38-.12-.53-.12-.23 0-.39.1-.48.33-.4.97.76 1.38 1.47 2.53.69 1.1.58 2.22-.05 3.78l-.5 1.2c-.33.81-.74 1.17-1.34 1.17-.26 0-.55-.07-.91-.21l-5.9-2.34c-1.67-.66-1.86-1.69-.96-3.89 1.52-3.68 2.77-5.21 4.71-5.36h.16c.39 0 .75.09 1.06.18.3.09.56.18.8.18s.43-.11.58-.45c.21-.52.06-.67-.51-.89-.23-.09-1.35-.49-3.23-1.24l-.8-.31c-.41-.16-.69-.24-.92-.24m245.44 33.03c-.06 0-.12.01-.18.02-.28.05-.5.18-.63.36l-2.08 2.93c-.13.2-.2.49-.15.73.06.27.19.5.38.62l3.01 2c.14.1.37.16.57.16.06 0 .11 0 .16-.02.28-.05.51-.18.63-.36l2.05-2.89c.13-.19.2-.44.14-.72-.05-.28-.14-.5-.33-.63l-3.02-2.04c-.15-.1-.35-.17-.56-.17m-243.08 1.21c-.18 0-.35.04-.48.13l-2.99 1.92c-.19.13-.37.34-.41.62-.06.28-.06.52.07.71l2.03 3c.13.19.35.35.62.41.09.02.17.02.25.02.18 0 .35-.04.48-.13l3.05-1.96c.2-.12.36-.38.42-.62.05-.27.02-.52-.11-.71l-2.04-2.97a1.07 1.07 0 0 0-.62-.41c-.09-.02-.17-.02-.25-.02m-.56 5.9c-.07 0-.15-.02-.27-.03-.16-.03-.26-.13-.37-.23l-1.93-2.66.43-.25 2.15 1.96 2.48-1.2.26.54-2.61 1.83s-.09.04-.15.04m241.83-2.9-.45-.4 1.73-2.66c.06-.09.18-.11.39-.15h.08c.13 0 .23.04.34.09l2.79 1.75-.29.39-2.74-1.03-1.84 2.03M23.37 106.92c.75-.93 1.56-1.36 2.61-1.36.72 0 1.56.21 2.54.6l14.38 5.71c3.18 1.26 4.65 2.27 4.32 4.27-.83-1.93-2.45-2.62-4.53-3.45l-.33-.13-14.41-5.73c-.93-.36-1.74-.56-2.48-.56s-1.47.21-2.09.65m256.58-1.43c.31 0 .58-.05.82-.14.79-.32.91-.66.96-1.73l.21-.04c.32 1.22.31 2.13-.56 2.48-.15.06-.3.09-.47.09-.53 0-1.2-.26-2.17-.6l.08-.21c.43.1.8.15 1.13.15m-21.73 10.74c-.14 0-.3-.09-.34-.19-.27-.67.16-1.45 1.23-3.13l6.4-10.03c.43-.65.72-1.03.83-1.07.06-.02.11-.03.17-.03.2 0 .43.11.5.28.05.11-.02.36-.21.65l-7.84 12.41c-.31.52-.43.99-.66 1.09-.03.01-.05.01-.08.01M38.67 101.17l-.23-.06c.04-.76-.15-1.35-.54-2.03l.04-.2 2.27.77-.05.11c-.63.35-1.06.78-1.5 1.4m13.02 4.74-.17-.02c.6-2.75.51-4.99-.77-7.23l.2-.06c1.94 1.6 2.36 3.59 1.37 6-.14.33-.36.76-.63 1.31m-23.6-10.46-.17-.02c.23-.77.42-1.22.47-1.37.51-1.25 1.09-1.8 2-1.8.39 0 .85.1 1.4.29l-.15.15c-1.56.16-2.46 1.06-3.55 2.75m225.32 2.99c1.22 0 2.41-.45 3.8-1l.34-.13 14.41-5.73c1.97-.78 2.94-1.64 3.04-3.2h.18c.2 2.01-.75 3.12-3.16 4.08l-14.38 5.71c-1.57.62-2.77 1.05-3.81 1.05-.88 0-1.65-.3-2.43-1.03l.11-.14c.66.27 1.28.39 1.89.39M39.46 74.83c.7-.51 1.37-.76 2.07-.76.94 0 1.92.45 3.12 1.33l12.38 9.18c2.74 2.02 3.89 3.39 3.05 5.23-.3-2.09-1.67-3.16-3.46-4.49l-.29-.22-12.41-9.2c-1.17-.86-2.2-1.29-3.21-1.29-.42 0-.82.07-1.24.22m27.61 6.24-.15-.07c1.31-2.5 1.81-4.69 1.16-7.18h.21c1.45 2.03 1.34 4.05-.26 6.14-.22.29-.55.65-.95 1.11m-11.32-7.89-.23-.11c.25-.72.22-1.35.03-2.1l.09-.18 1.93 1.43c-.7.18-1.25.49-1.81.97m204.01-3.11-.14-.15c1.04-1.62 1.45-2.79.99-3.9l.17-.05c1.08 1.36 1.12 2.3-.09 3.38-.18.16-.49.37-.93.72M227.6 67.8c1.47 0 2.9-.73 4.74-1.91-.62.82-1.06 1.37-1.33 1.61-.73.65-1.43.98-2.16.98-.54 0-1.09-.18-1.69-.53l.06-.17c.13.01.26.02.39.02m-148.06-.54c-.26 0-.49-.14-.74-.36l-4.53-3.77c-.16-.14-.29-.24-.33-.3l.06-.25s.08-.05.12-.05c.1 0 .18.12.41.26l5.44 3.71.21.19-.05.34c-.21.16-.4.23-.58.23m-32.48-2.29-.15-.06c.43-.69.72-1.07.82-1.2.67-.87 1.26-1.29 1.93-1.29.51 0 1.06.24 1.75.7l-.18.11c-.22-.03-.43-.05-.63-.05-1.24 0-2.23.63-3.52 1.8m195.87 19.11s-.09-.02-.11-.05c-.11-.11-.1-.28-.05-.6l4.11-28.9c.14-.98.07-1.96-.06-3.13l.12-.11c.99 1.93.84 3.63.56 5.66l-3.53 25.7c-.09.45-.19.81-.65 1.22-.17.14-.3.22-.39.22M72.58 55.32c-2.29 0-4.03-.75-5.51-2.68-.88-1.15-1.34-2.48-1.56-4.17l.17-.03c.24 1.23.67 2.27 1.41 3.23 1.56 2.04 3.18 2.74 5.22 2.74s4.38-.66 7.52-1.37c1.32-.31 2.49-.48 3.53-.48 1.99 0 3.49.63 4.63 2.12.39.51.69 1.1.97 1.79l-.25.09c-.3-.53-.54-.9-.68-1.1-1.13-1.48-2.54-2-4.28-2s-3.93.54-6.47 1.17c-1.8.43-3.34.69-4.7.69m124.13-6.77c-.47 0-.96-.12-1.49-.36l-.06-.16c1.83-.1 3.06-1.04 4.63-2.25l.1.15-.16.28c-.89 1.59-1.87 2.34-3.02 2.34M71.69 41.74c1.19-.64 2.16-.94 3.03-.94 1.18 0 2.17.58 3.24 1.71l-.16.13c-1.66-.71-3.03-1.03-4.47-1.03-.53 0-1.08.05-1.64.14m142.37 3.99c-.24 0-.58-.11-1.02-.35l-4.11-2.24c-1.13-.62-1.56-.95-1.3-1.4.09-.18.34-.45.74-.74l6.17-4.72c.24-.19.47-.28.64-.28.08 0 .14.01.2.05.14.07.24.4.16.95l-.81 7.32c-.08.74-.23 1.16-.26 1.23-.07.12-.2.19-.38.19m-1.94 10.89-.03-.11c.79-.17 1.32-.62 1.74-1.35.32-.56.57-1.34.66-2.34l1.86-16.47c.04-.48 0-.91.16-1.19.12-.23.31-.32.48-.32.08 0 .16.02.23.06.21.11.24.31.18.75l-1.89 17.09c-.1.77-.42 1.74-.77 2.38-.58 1.02-1.4 1.48-2.62 1.5M92.99 32.18l-.1-.26c-.72-1.83-.24-3.09 1.66-3.8.23-.09.54-.17.94-.27l.04.11c-1.68 1.28-2.45 2.43-2.39 4.17l-.15.05m16.9 16.88-.13-.12c.56-.56.54-1.96-.27-4.02l-6.7-17.16-.28-.72c-.17-.45-.59-.85-1.24-1.03l.08-.16h.17c1.36 0 1.91 1.08 2.75 3.23l5.88 15.06c1.02 2.62 1.09 4.02-.27 4.92m46.96-18.44-2.24-2.25c-.08-.08-.07-.2-.07-.4 0-.16.09-.28.18-.39l2.37-2.3.31.38-1.64 2.4 1.59 2.22-.51.35m-45.87-8.32-.09-.22c.78-.34 1.3-.58 1.53-.67.5-.18.92-.29 1.32-.29.93 0 1.57.57 2.11 1.79l-.12.04c-.97-.69-1.84-1.03-2.81-1.03-.59 0-1.22.13-1.95.37m74.69 10.3.07-.27c1.9-.53 3.33-2.16 3.93-4.54.68-2.68-.03-5.51-2.08-7.54l.09-.18c2.76 1.88 3.88 4.93 3.19 7.64-.65 2.53-2.5 4.35-5.2 4.89m-50.06 9.72-.11-.15c1.28-1.67 1.08-3.39.78-5.58l-.06-.36-2.16-15.15c-.3-2.06-.91-3.2-2.42-3.67l.06-.17c2.02.29 2.88 1.46 3.25 4.01l2.15 15.1c.43 3.01.51 4.71-1.5 5.96m34.67-.56h-.09c1.83-1.09 2.29-2.75 2.83-4.89l.09-.35 3.76-14.83c.49-1.95.31-3.36-.72-4.44 1.76 1.01 2.11 2.42 1.49 4.92l-3.75 14.8c-.82 3.22-1.63 4.8-3.61 4.8M153 7.12C76.05 7.12 13.1 66.07 8.28 140.55l1.74.62C14.53 67.36 76.81 8.87 153 8.87s138.45 58.47 142.97 132.27l1.74-.63C292.88 66.06 229.94 7.12 153 7.12"/><g><path class="cls-1" d="m45.05 283.68 10.28 7.75-1.31 1.74-8.41-6.34-3.24 4.3 7.77 5.86-1.24 1.64-7.77-5.86-3.62 4.8 8.55 6.45-1.27 1.69-10.42-7.86 10.67-14.16zM64.26 297.13l-5.44 9.52c-.64 1.12-.96 2.17-.96 3.15-.01 1.48.73 2.64 2.21 3.49 1.78 1.02 3.34 1.11 4.67.26.72-.46 1.4-1.25 2.03-2.36l5.44-9.52 2.11 1.2-4.94 8.65c-1.08 1.89-2.17 3.2-3.27 3.93-2 1.32-4.31 1.24-6.92-.25s-3.85-3.43-3.72-5.82c.07-1.31.65-2.92 1.73-4.81l4.94-8.65 2.11 1.2zM82.03 306.61l7.46 3.05c1.23.5 2.17 1.1 2.82 1.79 1.23 1.32 1.46 2.92.69 4.81-.4.98-.93 1.71-1.6 2.17-.66.46-1.43.73-2.32.81.53.52.88 1.06 1.03 1.62.15.56.05 1.32-.3 2.29l-.82 2.23c-.23.63-.37 1.12-.41 1.46-.08.58.02 1.01.3 1.3l-.15.37L86 327.4c-.02-.17 0-.38.05-.62s.18-.69.42-1.34l.98-2.79c.39-1.09.29-1.97-.28-2.63-.33-.37-.94-.73-1.82-1.1l-4.92-2.01-2.87 7.04-2.22-.91 6.7-16.42zm4.15 10.47c1.01.41 1.9.53 2.66.36s1.36-.81 1.81-1.9c.48-1.17.39-2.14-.26-2.9-.35-.4-.89-.76-1.63-1.06l-5.28-2.16-2.29 5.61 5 2.04zM116.18 320.57c.75 1.81.82 3.9.21 6.27-.66 2.57-1.86 4.53-3.6 5.89-2.04 1.6-4.48 2.04-7.31 1.31-2.64-.68-4.5-2.09-5.56-4.22-.91-2.03-1.04-4.33-.38-6.9.6-2.32 1.69-4.16 3.27-5.52 2.03-1.74 4.49-2.24 7.39-1.49 3.03.78 5.03 2.33 5.98 4.66zm-4.87 10.42c1.3-1.23 2.19-2.81 2.68-4.72.52-2.02.41-3.78-.33-5.29-.74-1.5-2.02-2.49-3.86-2.96-1.78-.46-3.38-.22-4.82.71-1.44.93-2.46 2.59-3.07 4.97-.49 1.9-.42 3.63.21 5.19s2.02 2.61 4.18 3.16c2.05.53 3.72.17 5.02-1.06zM125.99 331.9c-.07 1.01.06 1.84.39 2.52.62 1.26 1.89 2 3.82 2.24a6.8 6.8 0 0 0 2.4-.1c1.43-.33 2.22-1.13 2.38-2.41.12-.96-.09-1.68-.62-2.15-.54-.47-1.42-.93-2.64-1.38l-2.24-.82c-1.47-.53-2.49-1.05-3.07-1.55-.99-.87-1.4-2.03-1.23-3.49.19-1.58.88-2.82 2.07-3.7 1.19-.89 2.76-1.21 4.71-.98 1.8.22 3.27.85 4.42 1.89s1.6 2.54 1.37 4.5l-2.24-.27c0-.96-.16-1.71-.47-2.26-.59-1-1.71-1.61-3.38-1.81-1.35-.16-2.35.02-3.02.54-.66.52-1.04 1.17-1.13 1.95-.11.86.17 1.54.82 2.02.42.31 1.42.76 2.98 1.33l2.32.85c1.12.41 1.97.89 2.54 1.44.98.95 1.38 2.21 1.19 3.78-.24 1.95-1.1 3.26-2.58 3.93-1.49.67-3.14.9-4.97.67-2.13-.26-3.74-1.02-4.81-2.28-1.07-1.26-1.48-2.84-1.23-4.73l2.24.27zM149.37 321.87l.18 10.96c.02 1.29.28 2.36.78 3.2.74 1.28 1.97 1.9 3.68 1.87 2.05-.03 3.44-.75 4.15-2.16.38-.76.57-1.78.55-3.06l-.18-10.96 2.43-.04.16 9.96c.04 2.18-.23 3.86-.8 5.05-1.05 2.16-3.07 3.26-6.08 3.31-3 .05-5.06-.99-6.17-3.11-.61-1.16-.93-2.84-.97-5.02l-.16-9.96 2.43-.04zm1.65-4.23 2.26-.04.04 2.51-2.26.04-.04-2.51zm3.98-.06 2.26-.04.04 2.51-2.26.04-.04-2.51zM172.4 332.86c.18.99.52 1.77 1 2.34.91 1.07 2.33 1.47 4.25 1.22.86-.11 1.63-.34 2.3-.69 1.3-.67 1.87-1.65 1.7-2.93-.13-.96-.5-1.6-1.14-1.93-.64-.32-1.61-.55-2.9-.68l-2.38-.23c-1.55-.15-2.67-.4-3.35-.74-1.18-.59-1.87-1.62-2.06-3.08-.21-1.58.15-2.95 1.08-4.1.93-1.15 2.37-1.86 4.32-2.12 1.79-.24 3.38 0 4.75.73s2.19 2.07 2.44 4.02l-2.24.3c-.24-.93-.58-1.62-1.02-2.07-.82-.83-2.06-1.13-3.73-.91-1.35.18-2.28.6-2.79 1.27s-.72 1.39-.61 2.17c.11.86.54 1.45 1.29 1.75.49.2 1.56.38 3.22.55l2.46.25c1.19.12 2.13.38 2.81.76 1.19.68 1.89 1.8 2.1 3.37.26 1.95-.25 3.43-1.52 4.45s-2.82 1.65-4.65 1.89c-2.13.28-3.88-.06-5.23-1.02-1.35-.95-2.14-2.38-2.37-4.28l2.24-.29zM202.66 314.66l.52 2.05-5.79 1.48 3.88 15.14-2.35.6-3.88-15.14-5.79 1.48-.52-2.05 13.93-3.57zM209.4 312.42l12-4.67.79 2.03-9.81 3.82 1.95 5.02 9.07-3.53.74 1.91-9.07 3.53 2.18 5.6 9.98-3.88.77 1.97-12.16 4.73-6.43-16.53zM228.86 304.26l11.33-6.11 1.03 1.91-9.27 5 2.56 4.74 8.56-4.62.97 1.81-8.56 4.62 2.86 5.29 9.42-5.09 1 1.86-11.49 6.2-8.42-15.61zM246.92 294.05l2.78-2.03 12.95 9.12-4.73-15.1 2.76-2.01 10.44 14.34-1.85 1.35-6.16-8.46c-.21-.29-.56-.78-1.04-1.47s-1-1.42-1.57-2.19l4.71 15.07-1.92 1.4-12.94-9.08.32.44c.26.35.65.88 1.2 1.58.54.7.94 1.23 1.18 1.57l6.16 8.46-1.85 1.35-10.44-14.34z"/></g></svg>